<ttFont>
          <CharString index="0">
            -45 9 -36 38 -91 callsubr
            -51 callsubr
            vvcurveto
            88 24 123 22 107 vhcurveto
            43 -58 -66 14 -55 hhcurveto
            -126 -97 -141 -167 -44 callgsubr
            59 59 39 75 40 hvcurveto
            7 85 rmoveto
            -92 -39 -64 -57 -42 hhcurveto
            -50 -25 68 75 144 63 97 83 32 36 -14 -31 35 hvcurveto
            -8 -49 -11 -70 -10 -71 rrcurveto
            return
          </CharString>
          <CharString index="1">
            -66 callsubr
            -58 callsubr
            12 -8 8 -11 8 vhcurveto
            -21 17 -81 57 -34 42 rrcurveto
            -22 -12 -13 -15 -19 vvcurveto
            -16 11 -11 14 -9 vhcurveto
            return
          </CharString>
          <CharString index="2">
            7 callgsubr
            172 vhcurveto
            98 14 0 1 24 hvcurveto
            33 2 12 15 27 vvcurveto
            7 -1 7 -1 8 vhcurveto
            -4 -33 -18 0 -119 hhcurveto
            15 111 8 74 1 27 rrcurveto
            2 34 return
          </CharString>
          <CharString index="3">
            -61 callgsubr
            4 callgsubr
            -167 87 -106 149 hvcurveto
            78 622 -47 callsubr
            return
          </CharString>
          <CharString index="4">
            vvcurveto
            -28 11 -14 31 14 23 3 5 11 vhcurveto
            -3 20 -1 20 21 vvcurveto
            return
          </CharString>
          <CharString index="5">
            rmoveto
            139 104 129 162 120 -67 73 -111 -141 -98 -131 -162 -119 65 -72 109 hvcurveto
            59 434 rmoveto
            70 35 -70 -88 -111 -53 -115 -101 -70 -36 68 86 -45 callsubr
            hvcurveto
            return
          </CharString>
          <CharString index="6">
            -73 callgsubr
            -101 callgsubr
            hvcurveto
            2 callsubr
            return
          </CharString>
          <CharString index="7">
            -33 callgsubr
            -3 -65 -9 -81 -11 -86 rrcurveto
            -34 -271 -17 -104 -17 -103 callsubr
            return
          </CharString>
          <CharString index="8">
            rmoveto
            -35 -35 45 -36 hhcurveto
            -49 -60 -47 -37 -7 5 -6 8 -4 hvcurveto
            31 34 21 11 10 37 29 -45 41 hhcurveto
            48 60 46 38 12 -13 5 0 hvcurveto
            -20 -19 -31 -22 -15 hhcurveto
            endchar
          </CharString>
          <CharString index="9">
            -95 callgsubr
            94 8 38 99 87 hhcurveto
            34 44 -7 -26 38 hvcurveto
            -10 -114 -72 -344 -85 vvcurveto
            -87 callsubr
            50 86 430 90 vvcurveto
            26 -16 15 -19 -13 -14 -7 -15 -11 vhcurveto
            11 -24 -51 15 -28 hhcurveto
            return
          </CharString>
          <CharString index="10">
            -30 -7 -8 -19 -18 vvcurveto
            -6 1 -5 2 -6 vhcurveto
            25 9 35 7 28 3 -4 -45 -7 -59 -7 -51 -11 -82 -11 -73 -5 -35 rrcurveto
            -39 hlineto
            -35 -17 -11 -25 -5 1 -5 1 -6 hvcurveto
            1 26 25 0 22 63 32 -2 22 hhcurveto
            28 9 20 20 5 0 4 -1 4 hvcurveto
            -2 -18 -25 -2 -29 hhcurveto
            return
          </CharString>
          <CharString index="11">
            -91 callgsubr
            135 39 callsubr
            return
          </CharString>
          <CharString index="12">
            vstem
            454 -26 callsubr
            -54 -2 -7 -76 hvcurveto
            1 -7 0 -9 -9 -145 -67 -378 -74 vvcurveto
            -23 9 -10 27 -2 vhcurveto
            -1 13 98 -86 callsubr
            -32 -105 callsubr
            17 -65 callsubr
            return
          </CharString>
          <CharString index="13">
            -142 -26 -22 -119 -105 hhcurveto
            -41 -37 24 38 -11 hvcurveto
            -14 -7 -31 -19 -27 vvcurveto
            -37 55 -22 64 189 27 163 156 23 vhcurveto
            16 106 14 89 8 47 rrcurveto
            -68 callgsubr
            -98 rrcurveto
            return
          </CharString>
          <CharString index="14">
            30 23 28 69 18 hvcurveto
            21 85 23 242 10 117 rrcurveto
            return
          </CharString>
          <CharString index="15">
            vvcurveto
            24 -17 8 -22 -10 -12 -2 -3 -11 vhcurveto
            -5 -95 -14 -79 -15 return
          </CharString>
          <CharString index="16">
            29 16 26 20 6 vhcurveto
            return
          </CharString>
          <CharString index="17">
            -29 -22 -36 -15 -2 hvcurveto
            16 -4 4 -24 -24 return
          </CharString>
          <CharString index="18">
            10 18 4 16 17 vvcurveto
            8 -1 6 -4 5 vhcurveto
            15 -15 -77 0 -52 hhcurveto
            return
          </CharString>
          <CharString index="19">
            rmoveto
            -28 callsubr
            -102 callgsubr
            hintmask 11101000
            193 hmoveto
            -28 callsubr
            hintmask 11011000
            -55 callgsubr
          </CharString>
          <CharString index="20">
            -42 6 -49 44 -91 callsubr
            -51 callsubr
            return
          </CharString>
          <CharString index="21">
            -85 callsubr
            -18 return
          </CharString>
          <CharString index="22">
            -1 41 hhcurveto
            104 48 1 42 15 -5 17 -3 10 hvcurveto
            -13 -24 -89 -10 -70 hhcurveto
            return
          </CharString>
          <CharString index="23">
            -21 rrcurveto
            -58 callgsubr
            -93 callsubr
            return
          </CharString>
          <CharString index="24">
            -23 10 -11 29 11 20 3 5 11 vhcurveto
            -2 17 -1 19 19 vvcurveto
            return
          </CharString>
          <CharString index="25">
            -28 -21 -33 -18 -4 vhcurveto
            18 -7 3 -27 -24 -46 -38 -167 -39 vvcurveto
            -70 return
          </CharString>
          <CharString index="26">
            -99 callgsubr
            135 39 callsubr
            -49 callgsubr
            -63 callsubr
            46 -13 -45 15 -18 callsubr
            -62 17 -49 return
          </CharString>
          <CharString index="27">
            hhcurveto
            -111 -52 104 132 164 88 161 136 50 53 -29 -69 15 hvcurveto
            34 5 25 21 34 vvcurveto
            56 -65 43 -89 -195 -135 -168 -241 return
          </CharString>
          <CharString index="28">
            -7 -31 0 -126 -26 -60 rrcurveto
            -5 10 9 -4 10 hhcurveto
            13 10 9 26 10 hvcurveto
            18 46 33 109 20 vvcurveto
            28 -21 12 -22 -17 -17 -8 -16 -3 vhcurveto
            return
          </CharString>
          <CharString index="29">
            47 51 82 94 23 vvcurveto
            8 -5 6 -12 9 vhcurveto
            -59 -44 -88 -96 -44 -51 29 -51 62 -96 47 -44 rrcurveto
            14 9 10 9 12 vvcurveto
            24 -52 90 -31 47 vhcurveto
            return
          </CharString>
          <CharString index="30">
            -92 callsubr
            -99 rrcurveto
            return
          </CharString>
          <CharString index="31">
            46 6 47 6 44 vhcurveto
            return
          </CharString>
          <CharString index="32">
            17 134 -64 callgsubr
            return
          </CharString>
          <CharString index="33">
            -28 18 -19 25 return
          </CharString>
          <CharString index="34">
            -83 callsubr
            52 7 54 14 107 vhcurveto
            return
          </CharString>
          <CharString index="35">
            8 -2 8 -4 8 vhcurveto
            -28 6 -12 21 24 vvcurveto
            39 37 48 44 vhcurveto
            5 hlineto
            3 6 1 6 7 vvcurveto
            13 -6 10 -16 vhcurveto
            return
          </CharString>
          <CharString index="36">
            -34 57 -11 -38 vvcurveto
            -30 -31 -15 -31 -10 -7 2 7 -10 vhcurveto
            -10 -9 -9 -11 -11 vvcurveto
            -12 8 -11 23 73 58 55 55 return
          </CharString>
          <CharString index="37">
            rmoveto
            -7 -9 -2 -8 -1 -7 rrcurveto
            -17 20 -9 19 -4 vhcurveto
            38 57 48 71 53 72 return
          </CharString>
          <CharString index="38">
            -8 -17 0 -3 -16 return
          </CharString>
          <CharString index="39">
            13 110 22 101 17 vvcurveto
            27 -20 7 -22 -11 -11 -1 -2 -10 vhcurveto
            -4 -65 -8 -81 -11 -86 -34 -274 rcurveline
            -67 178 -94 223 -53 80 rrcurveto
            17 -12 -10 12 -26 hhcurveto
            -15 -15 -1 -7 -17 hvcurveto
            3 -17 1 -18 -20 vvcurveto
            return
          </CharString>
          <CharString index="40">
            21 12 8 12 15 vvcurveto
            return
          </CharString>
          <CharString index="41">
            50 -35 75 -38 24 -21 rrcurveto
            return
          </CharString>
          <CharString index="42">
            1 34 hhcurveto
            73 57 -6 -15 34 hvcurveto
            return
          </CharString>
          <CharString index="43">
            -19 -249 -12 -96 callsubr
            return
          </CharString>
          <CharString index="44">
            -95 callgsubr
            94 6 30 99 69 hhcurveto
            28 return
          </CharString>
          <CharString index="45">
            301 rmoveto
            -40 -38 7 -11 hhcurveto
            -27 -12 -17 -24 -4 -4 callgsubr
            4 24 27 4 58 28 35 -8 19 hhcurveto
            23 16 18 23 -22 callsubr
            -6 -28 -49 -1 -25 hhcurveto
            return
          </CharString>
          <CharString index="46">
            89 8 -21 222 59 395 -20 return
          </CharString>
          <CharString index="47">
            -62 callgsubr
            -72 37 -45 65 hvcurveto
            31 249 rmoveto
            return
          </CharString>
          <CharString index="48">
            hvcurveto
            32 8 12 20 20 vvcurveto
            return
          </CharString>
          <CharString index="49">
            8 8 8 12 12 vvcurveto
            return
          </CharString>
          <CharString index="50">
            12 -4 13 -4 7 vhcurveto
            -19 -43 -54 -5 -60 hhcurveto
            -25 -30 0 1 -27 hvcurveto
            162 90 95 119 86 vvcurveto
            61 -43 42 -71 -74 -77 -59 -41 -13 10 -9 18 -2 vhcurveto
            return
          </CharString>
          <CharString index="51">
            -94 -69 -47 -67 -60 -63 34 50 -18 vhcurveto
            -29 -13 -23 -15 -33 vvcurveto
            -48 81 -38 88 138 94 83 149 vhcurveto
            187 -268 -75 145 vvcurveto
            87 59 41 61 return
          </CharString>
          <CharString index="52">
            rmoveto
            -48 -19 -21 -27 -13 5 -8 7 -17 hvcurveto
            11 22 31 8 31 88 88 -25 82 hhcurveto
            -125 -141 -194 -224 -51 -91 rrcurveto
            -12 -23 -6 -18 -17 vvcurveto
            return
          </CharString>
          <CharString index="53">
            26 -22 7 -22 return
          </CharString>
          <CharString index="54">
            rmoveto
            -126 -46 -101 -86 -71 hhcurveto
            -56 -20 52 50 -7 callgsubr
            hvcurveto
            return
          </CharString>
          <CharString index="55">
            -75 callsubr
            vhcurveto
            endchar
          </CharString>
          <CharString index="56">
            -25 17 -7 22 24 return
          </CharString>
          <CharString index="57">
            -21 callgsubr
            -7 0 -8 3 -15 hvcurveto
            return
          </CharString>
          <CharString index="58">
            -111 -138 return
          </CharString>
          <CharString index="59">
            14 -10 15 -21 13 return
          </CharString>
          <CharString index="60">
            rmoveto
            120 43 -112 -119 -169 -77 -162 -155 -119 -43 114 124 -59 callgsubr
            hvcurveto
            return
          </CharString>
          <CharString index="61">
            -42 -17 48 50 64 34 71 56 hvcurveto
            return
          </CharString>
          <CharString index="62">
            112 53 118 102 return
          </CharString>
          <CharString index="63">
            11 0 10 -3 9 return
          </CharString>
          <CharString index="64">
            -76 callgsubr
            -50 callgsubr
            return
          </CharString>
          <CharString index="65">
            -89 callgsubr
            endchar
          </CharString>
          <CharString index="66">
            -51 callsubr
            46 38 13 callsubr
            -36 53 -69 -49 -63 -33 -65 -42 vhcurveto
            2 12 1 12 12 vvcurveto
            return
          </CharString>
          <CharString index="67">
            rmoveto
            41 8 17 21 28 vvcurveto
            56 -86 27 -64 -124 -101 -75 -139 vhcurveto
            -207 269 87 -143 vvcurveto
            return
          </CharString>
          <CharString index="68">
            -69 -64 -111 -85 -48 23 -19 26 34 28 27 32 hvcurveto
            return
          </CharString>
          <CharString index="69">
            -114 -47 -49 callsubr
            -7 return
          </CharString>
          <CharString index="70">
            -3 -65 -9 -81 -32 -243 rrcurveto
            return
          </CharString>
          <CharString index="71">
            -3 62 264 63 215 64 return
          </CharString>
          <CharString index="72">
            rmoveto
            35 9 12 16 25 vvcurveto
            49 -70 22 -47 -90 -88 -45 -108 vhcurveto
            -153 220 62 -111 vvcurveto
            return
          </CharString>
          <CharString index="73">
            -21 -21 32 46 172 46 -15 44 174 44 42 -20 hstemhm
            89 61 118 61 101 61 118 61 return
          </CharString>
          <CharString index="74">
            -2 17 -2 19 18 vvcurveto
            81 31 199 25 195 vhcurveto
            89 -196 58 -161 67 -153 rrcurveto
            return
          </CharString>
          <CharString index="75">
            -49 callsubr
            -9 hvcurveto
            -11 callsubr
            return
          </CharString>
          <CharString index="76">
            rmoveto
            -1 -11 0 return
          </CharString>
          <CharString index="77">
            35 36 -16 -43 14 hvcurveto
            -5 callgsubr
            return
          </CharString>
          <CharString index="78">
            359 -21 callsubr
            return
          </CharString>
          <CharString index="79">
            -42 -34 -47 -48 vhcurveto
            return
          </CharString>
          <CharString index="80">
            4 callgsubr
            -155 75 -102 130 -14 vhcurveto
            return
          </CharString>
          <CharString index="81">
            580 -19 callgsubr
            return
          </CharString>
          <CharString index="82">
            23 -11 23 -27 16 vhcurveto
            -11 8 -11 6 13 vvcurveto
            return
          </CharString>
          <CharString index="83">
            -203 18 -21 669 -20 return
          </CharString>
          <CharString index="84">
            hstem
            29 78 260 79 vstem
            return
          </CharString>
          <CharString index="85">
            4 0 3 -1 4 hvcurveto
            return
          </CharString>
          <CharString index="86">
            rmoveto
            -126 -138 -4 -66 -1 vhcurveto
            116 9 63 81 69 hhcurveto
            -17 callgsubr
            return
          </CharString>
          <CharString index="87">
            -20 11 -17 16 -21 vhcurveto
            10 27 21 2 31 84 93 -25 59 hhcurveto
            65 33 15 36 return
          </CharString>
          <CharString index="88">
            hhcurveto
            -50 callsubr
            return
          </CharString>
          <CharString index="89">
            -59 callsubr
            50 return
          </CharString>
          <CharString index="90">
            vvcurveto
            -54 callsubr
            return
          </CharString>
          <CharString index="91">
            36 29 33 40 return
          </CharString>
          <CharString index="92">
            -28 vvcurveto
            -83 callsubr
            52 return
          </CharString>
          <CharString index="93">
            -74 -73 7 -20 hhcurveto
            -21 callgsubr
            hvcurveto
            hintmask 10000000
            -7 0 -8 3 -15 vhcurveto
            return
          </CharString>
          <CharString index="94">
            -1 -87 -17 -95 -23 -191 rrcurveto
            -9 -74 -17 -101 -21 vvcurveto
            -26 9 -12 33 return
          </CharString>
          <CharString index="95">
            -21 26 36 -11 38 hhcurveto
            104 116 87 166 140 -106 37 -113 return
          </CharString>
          <CharString index="96">
            -66 callgsubr
            18 2 21 15 callgsubr
            return
          </CharString>
          <CharString index="97">
            16 -5 15 -12 11 vhcurveto
            -7 -14 -20 -2 -23 -67 -93 19 -49 hhcurveto
            endchar
          </CharString>
          <CharString index="98">
            33 -9 29 -32 -29 -22 -36 -15 -2 vhcurveto
            return
          </CharString>
          <CharString index="99">
            57 -44 -21 72 -20 hstemhm
            return
          </CharString>
          <CharString index="100">
            41 callgsubr
            86 -12 85 return
          </CharString>
          <CharString index="101">
            30 24 23 34 32 -24 25 -30 -30 -25 -25 -32 -34 25 -23 30 hvcurveto
            return
          </CharString>
          <CharString index="102">
            hlineto
            23 6 17 19 0 0 5 -1 3 hvcurveto
            -4 -44 -52 -1 -56 hhcurveto
            return
          </CharString>
          <CharString index="103">
            -6 -52 -90 -1 -49 return
          </CharString>
          <CharString index="104">
            68 29 41 -48 callsubr
            hvcurveto
            return
          </CharString>
          <CharString index="105">
            -111 -93 vvcurveto
            return
          </CharString>
          <CharString index="106">
            81 105 146 156 46 49 rrcurveto
            12 13 5 17 15 vvcurveto
            return
          </CharString>
          <CharString index="107">
            rmoveto
            11 -6 9 -18 -4 -6 -1 -2 -7 vhcurveto
            -1 -22 -3 -26 return
          </CharString>
          <CharString index="108">
            5 21 callgsubr
            53 4 return
          </CharString>
          <CharString index="109">
            167 hmoveto
            return
          </CharString>
          <CharString index="110">
            -17 -21 -7 -14 -22 hvcurveto
            12 -31 5 -36 -39 vvcurveto
            -189 return
          </CharString>
          <CharString index="111">
            483 1 rmoveto
            6 116 20 125 19 162 rrcurveto
            return
          </CharString>
          <CharString index="112">
            -17 -22 -8 -16 -24 hvcurveto
            16 -33 11 -49 -47 vvcurveto
            endchar
          </CharString>
          <CharString index="113">
            -2 callsubr
            -42 6 -49 44 return
          </CharString>
          <CharString index="114">
            -20 hstem
            39 78 212 66 vstem
            return
          </CharString>
          <CharString index="115">
            22 18 -21 670 -20 25 -20 return
          </CharString>
          <CharString index="116">
            -36 -15 -2 vhcurveto
            16 -4 return
          </CharString>
          <CharString index="117">
            48 83 394 84 return
          </CharString>
          <CharString index="118">
            29 16 28 18 5 return
          </CharString>
          <CharString index="119">
            hstemhm
            79 77 -22 85 return
          </CharString>
          <CharString index="120">
            167 39 vvcurveto
            70 return
          </CharString>
          <CharString index="121">
            111 -67 67 return
          </CharString>
          <CharString index="122">
            -10 4 -9 6 -7 vhcurveto
            27 22 78 39 48 34 rrcurveto
            return
          </CharString>
          <CharString index="123">
            -33 -34 15 30 -31 hvcurveto
            12 72 14 76 9 62 rrcurveto
            return
          </CharString>
          <CharString index="124">
            -15 -17 -5 -10 -17 hvcurveto
            11 -23 4 -37 -33 vvcurveto
            -102 return
          </CharString>
          <CharString index="125">
            42 callsubr
            68 -68 207 return
          </CharString>
          <CharString index="126">
            -10 60 -42 42 -42 60 333 54 -41 41 -41 60 return
          </CharString>
          <CharString index="127">
            4 -16 -12 2 -13 hhcurveto
            -13 -12 -2 -4 -19 hvcurveto
            return
          </CharString>
          <CharString index="128">
            -10 -7 0 -1 -8 hvcurveto
            27 41 30 39 37 44 return
          </CharString>
          <CharString index="129">
            14 23 3 5 11 hvcurveto
            -3 20 -1 20 21 vvcurveto
            return
          </CharString>
          <CharString index="130">
            496 -21 221 42 hstemhm
            80 65 -65 111 return
          </CharString>
          <CharString index="131">
            rmoveto
            -80 -25 -72 -71 -48 hhcurveto
            return
          </CharString>
          <CharString index="132">
            57 hstemhm
            39 139 -68 68 return
          </CharString>
          <CharString index="133">
            16 116 17 88 8 vvcurveto
            return
          </CharString>
          <CharString index="134">
            59 -14 59 hstemhm
            return
          </CharString>
          <CharString index="135">
            -22 -142 59 344 50 345 59 hstemhm
            return
          </CharString>
          <CharString index="136">
            -53 -2 62 606 41 callgsubr
            85 -12 85 return
          </CharString>
          <CharString index="137">
            15 86 vhcurveto
            -30 34 39 -14 38 hhcurveto
            112 return
          </CharString>
          <CharString index="138">
            11 -21 433 51 return
          </CharString>
          <CharString index="139">
            47 107 hstemhm
            return
          </CharString>
          <CharString index="140">
            3 3 9 vhcurveto
            -12 42 0 28 35 vvcurveto
            return
          </CharString>
          <CharString index="141">
            11 -21 684 -20 hstemhm
            80 74 -41 41 return
          </CharString>
          <CharString index="142">
            71 -3 callsubr
            return
          </CharString>
          <CharString index="143">
            11 -21 484 -20 hstemhm
            51 67 -47 47 return
          </CharString>
          <CharString index="144">
            294 rmoveto
            80 40 58 50 39 hhcurveto
            50 return
          </CharString>
          <CharString index="145">
            -4 callsubr
            -74 -73 7 -20 hhcurveto
            return
          </CharString>
          <CharString index="146">
            12 130 rrcurveto
            return
          </CharString>
          <CharString index="147">
            99 68 99 return
          </CharString>
          <CharString index="148">
            24 5 17 20 hvcurveto
            7 vlineto
            -4 -43 return
          </CharString>
          <CharString index="149">
            25 callsubr
            220 return
          </CharString>
          <CharString index="150">
            -60 -89 -12 2 -13 2 -13 hvcurveto
            12 return
          </CharString>
        <CharString name=".notdef">
          -209 endchar
        </CharString>
        <CharString name="A">
          -61 callsubr
          hstem
          -94 callgsubr
          endchar
        </CharString>
        <CharString name="AE">
          277 -3 62 -48 -21 219 57 57 63 215 64 hstemhm
          318 85 hintmask 01111100
          299 266 rmoveto
          -37 -36 1 1 -34 hvcurveto
          77 116 63 104 50 77 -7 -83 -15 -114 -14 -102 rrcurveto
          371 314 -52 callgsubr
          -81 -72 -4 -7 -67 hvcurveto
          -40 -74 -88 -144 -94 -138 -50 -74 -51 -70 -37 -55 rrcurveto
          -17 -25 -25 -35 -13 vvcurveto
          -24 31 -8 23 -4 vhcurveto
          28 56 58 85 52 78 rrcurveto
          -1 46 32 -1 34 hhcurveto
          22 24 0 1 27 hvcurveto
          -11 -81 -8 -67 -26 -6 callgsubr
          hvcurveto
          hintmask 10111100
          15 -5 17 -3 10 vhcurveto
          -13 -24 -89 -10 -70 hhcurveto
          -18 -18 -105 callsubr
          22 -65 callsubr
          endchar
        </CharString>
        <CharString name="Aacute">
          -61 callsubr
          236 -20 hstem
          404 795 rmoveto
          -106 callgsubr
          -91 -226 -107 callgsubr
          endchar
        </CharString>
        <CharString name="Acircumflex">
          -61 callsubr
          227 -20 hstem
          339 870 rmoveto
          -104 callgsubr
          -26 -301 -107 callgsubr
          endchar
        </CharString>
        <CharString name="Adieresis">
          -61 callsubr
          69 107 hstem
          192 40 callsubr
          vstem
          -94 callgsubr
          -29 505 rmoveto
          25 31 25 33 28 -19 21 -24 -29 -27 -26 -34 -28 18 -19 25 hvcurveto
          -25 callgsubr
        </CharString>
        <CharString name="Agrave">
          -61 callsubr
          249 -20 hstem
          192 810 rmoveto
          -106 callsubr
          121 -241 -107 callgsubr
          endchar
        </CharString>
        <CharString name="Aring">
          -61 callsubr
          68 33 112 33 hstem
          244 42 87 43 vstem
          319 711 -80 callgsubr
          -25 -287 -107 callgsubr
          endchar
        </CharString>
        <CharString name="Atilde">
          -61 callsubr
          78 104 hstem
          -94 callgsubr
          129 573 -99 callsubr
        </CharString>
        <CharString name="B">
          70 -10 61 280 50 231 61 hstemhm
          384 82 -65 65 -65 82 hintmask 11110000
          265 612 rmoveto
          hintmask 11100100
          66 70 -17 -80 -105 -82 -29 -92 -15 -16 -16 callgsubr
          21 171 -1 12 4 42 rrcurveto
          2 19 20 2 20 hhcurveto
          -29 -561 rmoveto
          -39 -47 17 19 -19 hvcurveto
          13 61 17 84 13 94 rrcurveto
          4 20 33 1 27 hhcurveto
          70 60 -38 -82 -100 -70 -60 -78 hvcurveto
          -185 5 rmoveto
          -51 47 77 -15 70 hhcurveto
          116 105 89 148 67 -28 41 -52 27 hvcurveto
          hintmask 11110000
          62 26 35 68 74 vvcurveto
          110 -97 33 -107 -30 -54 -1 -12 -64 vhcurveto
          hintmask 11101000
          -61 -10 -104 -14 -108 vhcurveto
          -16 -128 -22 -133 -18 -70 rrcurveto
          endchar
        </CharString>
        <CharString name="C">
          78 39 callgsubr
          48 83 vstem
          427 134 rmoveto
          -57 -35 -45 -26 -53 -80 callsubr
          -166 88 -108 146 103 85 47 50 23 -21 15 -22 9 vhcurveto
          endchar
        </CharString>
        <CharString name="Ccedilla">
          78 -232 45 177 61 561 61 hstemhm
          48 83 99 111 -54 54 hintmask 11111000
          427 134 rmoveto
          -57 -35 -45 -26 -53 -80 callsubr
          -152 74 -103 124 -16 vhcurveto
          -12 -26 -4 -18 -8 vvcurveto
          hintmask 11110100
          -71 callsubr
          -25 callsubr
          5 3 9 4 9 vhcurveto
          100 2 82 46 49 vvcurveto
          23 -21 15 -22 9 vhcurveto
          endchar
        </CharString>
        <CharString name="D">
          143 39 callgsubr
          479 84 vstem
          51 53 -42 callgsubr
          -4 -183 -40 -263 -36 -162 rrcurveto
          157 555 -39 callgsubr
          33 159 27 195 14 167 rrcurveto
          endchar
        </CharString>
        <CharString name="Delta">
          224 0 60 583 -20 hstem
          87 70 rmoveto
          136 256 46 81 81 148 14 -70 20 -80 90 -335 rrcurveto
          -7 -41 -56 -3 -95 hhcurveto
          -108 -47 3 7 -40 hvcurveto
          -70 -30 rmoveto
          -1 -8 0 -1 -4 vvcurveto
          -18 5 -9 17 vhcurveto
          495 hlineto
          22 8 19 21 2 hvcurveto
          -14 49 -128 464 -23 87 rrcurveto
          1 -6 -8 2 -10 hhcurveto
          -16 -17 -4 -18 -9 hvcurveto
          -100 -198 -110 -189 -107 -194 rrcurveto
          endchar
        </CharString>
        <CharString name="E">
          14 -36 callsubr
          hstem
          60 85 -95 callsubr
          endchar
        </CharString>
        <CharString name="Eacute">
          19 -36 callsubr
          213 -20 hstem
          60 85 vstem
          459 580 -103 callgsubr
          -39 214 rmoveto
          -106 callgsubr
          endchar
        </CharString>
        <CharString name="Ecircumflex">
          19 -36 callsubr
          205 -20 hstem
          60 85 vstem
          329 870 rmoveto
          -104 callgsubr
          130 -290 -103 callgsubr
          endchar
        </CharString>
        <CharString name="Edieresis">
          14 -36 callsubr
          47 107 hstem
          60 85 197 99 -95 callsubr
          -236 132 rmoveto
          25 31 25 33 28 -19 21 -24 -29 -27 -26 -34 -28 18 -19 25 hvcurveto
          -25 callgsubr
        </CharString>
        <CharString name="Egrave">
          19 -36 callsubr
          227 -20 hstem
          60 85 vstem
          459 580 -103 callgsubr
          -271 230 rmoveto
          -106 callsubr
          endchar
        </CharString>
        <CharString name="Eth">
          166 -10 61 272 63 226 61 hstem
          502 84 vstem
          231 608 -39 callgsubr
          15 73 14 81 12 82 rrcurveto
          101 14 0 1 21 hvcurveto
          33 2 12 15 27 vvcurveto
          7 -1 7 -1 8 vhcurveto
          -4 -32 -17 0 -121 hhcurveto
          10 76 8 75 6 71 rrcurveto
          -157 -555 -42 callgsubr
          -2 -81 -9 -97 -12 -97 rrcurveto
          -45 hlineto
          -16 -30 -5 -40 -7 1 -7 1 -8 hvcurveto
          3 20 19 1 41 hhcurveto
          -14 -100 -18 -96 -16 -74 rrcurveto
          endchar
        </CharString>
        <CharString name="Euro">
          -9 57 205 39 71 39 215 56 hstem
          130 67 vstem
          546 581 rmoveto
          16 9 12 21 18 vvcurveto
          34 -62 10 -57 -129 -134 -88 -183 -46 vhcurveto
          -46 hlineto
          -19 -10 -14 -20 -3 -4 callgsubr
          33 3 6 1 27 1 -4 -23 -2 -23 -1 -25 rrcurveto
          -46 hlineto
          -19 -10 -14 -20 -3 -4 callgsubr
          35 3 6 1 32 1 rrcurveto
          -191 2 117 -71 33 callgsubr
          -10 8 hvcurveto
          -21 -31 -29 -15 -54 hhcurveto
          -75 -89 62 143 -7 hvcurveto
          246 -5 callsubr
          -122 hlineto
          1 25 3 23 5 23 rrcurveto
          252 -5 callsubr
          -119 hlineto
          138 41 103 77 84 hhcurveto
          55 24 -15 -21 24 hvcurveto
          endchar
        </CharString>
        <CharString name="Eurooldstyle">
          -10 57 170 39 61 39 168 56 hstem
          115 68 vstem
          433 317 rmoveto
          41 callsubr
          -53 -1 -57 hhcurveto
          -108 hlineto
          117 41 95 51 75 hhcurveto
          54 25 -15 -22 25 hvcurveto
          16 10 10 21 19 vvcurveto
          34 -62 9 -55 -117 -127 -63 -161 -48 vhcurveto
          -49 hlineto
          -15 -14 -10 -24 -3 0 -2 1 -5 hvcurveto
          34 3 6 1 28 1 -5 -19 -3 -23 -1 -19 rrcurveto
          -44 hlineto
          -15 -14 -10 -24 -3 -4 callgsubr
          36 3 4 1 32 1 rrcurveto
          -167 3 112 -60 33 callgsubr
          -11 8 hvcurveto
          -21 -30 -29 -15 -54 hhcurveto
          -76 -81 51 119 -9 hvcurveto
          237 hlineto
          41 callsubr
          -54 -1 -116 hhcurveto
          -54 hlineto
          2 18 2 23 5 20 rrcurveto
          endchar
        </CharString>
        <CharString name="F">
          -5 18 -21 326 63 215 64 hstem
          60 86 vstem
          150 5 rmoveto
          -3 20 -1 20 21 vvcurveto
          46 6 47 22 164 vhcurveto
          98 13 0 1 24 hvcurveto
          33 2 12 15 27 vvcurveto
          7 -1 7 -1 8 vhcurveto
          -4 -33 -18 0 -119 hhcurveto
          15 111 8 74 1 27 rrcurveto
          2 34 22 -65 callsubr
          -89 callsubr
          -63 -59 -2 -7 -76 hvcurveto
          1 -7 0 -9 -9 vvcurveto
          -59 -11 -97 -13 -99 vhcurveto
          -27 -216 -17 -104 -17 vvcurveto
          -28 11 -14 31 14 23 3 5 11 vhcurveto
          endchar
        </CharString>
        <CharString name="G">
          110 39 callgsubr
          48 83 297 81 vstem
          428 301 rmoveto
          -4 -55 -8 -83 -8 -72 rrcurveto
          -26 -31 -42 -14 -41 -80 callsubr
          -166 88 -108 146 103 84 41 54 10 vhcurveto
          11 95 19 78 15 vvcurveto
          24 -21 7 -23 -9 -10 0 -3 -18 vhcurveto
          endchar
        </CharString>
        <CharString name="H">
          160 18 -21 333 59 277 -7 callsubr
          204 86 -12 85 hintmask 11101010
          538 666 rmoveto
          hintmask 11110100
          -33 callgsubr
          -3 -65 -9 -81 -16 -126 rrcurveto
          -2 -43 -59 0 -39 hhcurveto
          -42 -61 0 2 -43 hvcurveto
          19 147 18 82 13 vvcurveto
          -38 callgsubr
          -3 -65 -9 -81 -11 -86 -25 -200 rcurveline
          -9 -71 -17 -104 -17 -103 callsubr
          -76 callsubr
          16 129 rlineto
          hintmask 11110010
          -2 42 61 0 42 hhcurveto
          40 56 0 2 46 hvcurveto
          -12 -101 rlineto
          -9 -71 -17 -104 -17 -103 callsubr
          -76 callsubr
          -87 callgsubr
          vhcurveto
          endchar
        </CharString>
        <CharString name="I">
          -24 callsubr
          hstemhm
          60 86 -12 85 hintmask 11010000
          175 666 rmoveto
          hintmask 11100000
          -100 callsubr
          hintmask 11010000
          -76 callsubr
          -87 callgsubr
          vhcurveto
          endchar
        </CharString>
        <CharString name="Iacute">
          -24 callsubr
          233 -7 callsubr
          hintmask 11101000
          hintmask 11110000
          175 666 rmoveto
          -100 callsubr
          -76 callsubr
          -87 callgsubr
          vhcurveto
          108 129 rmoveto
          hintmask 11101000
          -106 callgsubr
          endchar
        </CharString>
        <CharString name="Icircumflex">
          -24 callsubr
          224 -7 callsubr
          hintmask 11101000
          202 870 -57 callgsubr
          -27 -204 rmoveto
          -100 callsubr
          -76 callsubr
          hintmask 11101000
          -87 callgsubr
          vhcurveto
          endchar
        </CharString>
        <CharString name="Idieresis">
          -24 callsubr
          66 107 hstemhm
          54 99 -19 85 2 99 hintmask 11110100
          175 666 rmoveto
          -100 callsubr
          -76 callsubr
          -87 callgsubr
          vhcurveto
          -78 46 rmoveto
          -73 callgsubr
          28 -19 21 -24 -29 -27 -26 -34 hvcurveto
          hintmask 11101100
          -74 callsubr
          vhcurveto
          -25 callgsubr
        </CharString>
        <CharString name="Igrave">
          -24 callsubr
          246 -7 callsubr
          hintmask 11101000
          hintmask 11110000
          175 666 rmoveto
          -100 callsubr
          -76 callsubr
          -87 callgsubr
          vhcurveto
          -104 144 rmoveto
          hintmask 11101000
          -106 callsubr
          endchar
        </CharString>
        <CharString name="J">
          -129 -98 -21 785 -20 hstem
          208 85 vstem
          36 -119 rmoveto
          32 118 37 193 27 hvcurveto
          43 310 rlineto
          14 105 23 84 25 vvcurveto
          24 -20 7 -23 -9 -15 0 -3 -18 vhcurveto
          -4 -65 -9 -81 -12 -86 -41 -295 rcurveline
          -17 -125 -13 -57 -111 -10 rrcurveto
          -1 -6 0 -5 -5 vvcurveto
          -25 9 -22 27 vhcurveto
          endchar
        </CharString>
        <CharString name="J_alt">
          -62 -141 60 747 -20 hstem
          275 85 vstem
          316 666 rmoveto
          -10 -14 0 -3 -17 hvcurveto
          -5 -65 -8 -81 -12 -86 -53 -378 rcurveline
          -100 -14 -54 -34 -49 hhcurveto
          -42 -35 17 32 -23 hvcurveto
          -20 -16 -14 -16 -20 vvcurveto
          -33 53 -24 61 114 83 85 131 18 vhcurveto
          2 14 27 200 19 132 rrcurveto
          16 114 21 83 17 vvcurveto
          25 -21 6 -23 vhcurveto
          endchar
        </CharString>
        <CharString name="K">
          58 11 -21 676 -20 22 -7 callsubr
          hintmask 11001000
          175 666 rmoveto
          hintmask 10110000
          -100 callsubr
          -76 callsubr
          10 82 8 6 9 5 9 8 rlinecurve
          30 -72 71 -126 41 -59 rrcurveto
          -43 30 30 -14 27 hhcurveto
          31 31 10 32 9 -1 6 -3 11 hvcurveto
          -2 -7 -17 -1 -6 hhcurveto
          -18 -17 8 20 -17 hvcurveto
          -40 49 -80 156 -27 62 rrcurveto
          108 91 137 131 56 vvcurveto
          28 -29 8 -29 4 vhcurveto
          hintmask 11001000
          -21 -66 -45 -77 -193 -150 4 29 rcurveline
          -52 callsubr
        </CharString>
        <CharString name="L">
          29 callsubr
          hintmask 11100000
          113 450 rmoveto
          -17 -127 -36 -259 -29 vvcurveto
          -23 9 -10 27 -2 vhcurveto
          hintmask 11010000
          -1 13 84 -86 callsubr
          -18 -16 callgsubr
          60 6 38 32 244 vhcurveto
          14 110 21 104 16 vvcurveto
          25 -24 7 -21 -8 -17 0 -3 -15 vhcurveto
          -4 -65 -7 -83 -9 -65 rrcurveto
          endchar
        </CharString>
        <CharString name="Lslash">
          29 callsubr
          hintmask 11010000
          173 666 rmoveto
          hintmask 11100000
          -8 -17 0 -3 -15 hvcurveto
          -8 -117 -13 -107 -15 -106 -112 -78 rcurveline
          22 callgsubr
          34 26 27 22 34 25 rrcurveto
          -15 -107 -13 -105 -18 vvcurveto
          -23 9 -10 27 -2 vhcurveto
          -1 13 84 -85 callsubr
          hintmask 11010000
          -18 -18 7 callgsubr
          173 vhcurveto
          131 91 19 callgsubr
          -31 -25 -39 -31 -44 -31 rrcurveto
          13 102 24 126 14 vvcurveto
          25 -24 7 -21 vhcurveto
          endchar
        </CharString>
        <CharString name="M">
          321 18 -21 22 -21 669 41 callgsubr
          75 427 87 hintmask 10111000
          696 436 rmoveto
          12 85 11 78 24 60 rrcurveto
          5 -12 -35 3 -6 hhcurveto
          hintmask 01111000
          -31 -28 -14 -34 -22 hvcurveto
          -111 -170 -82 -183 -52 -124 -34 163 -20 157 -60 157 rrcurveto
          30 -12 -20 18 -28 hhcurveto
          hintmask 10111000
          -17 -23 -3 -5 -19 hvcurveto
          2 -15 1 -16 -18 vvcurveto
          -39 -4 -45 -6 -43 vhcurveto
          -36 -252 rlineto
          -11 -75 -17 -104 -20 vvcurveto
          -23 9 -12 28 13 18 36 callgsubr
          64 7 34 55 384 vhcurveto
          57 -187 19 -192 37 -138 rrcurveto
          -21 5 20 -5 17 hhcurveto
          10 15 2 2 5 hvcurveto
          55 137 97 227 101 172 rrcurveto
          -35 -258 -38 -231 -14 vvcurveto
          -26 11 -12 30 13 26 36 callgsubr
          48 7 50 7 46 vhcurveto
          endchar
        </CharString>
        <CharString name="N">
          141 18 -21 669 -20 21 41 callgsubr
          76 353 74 hintmask 11011000
          4 callsubr
          -68 callsubr
          hintmask 10111000
          -13 callsubr
          16 11 3 5 11 vhcurveto
          -33 callsubr
          23 callgsubr
          endchar
        </CharString>
        <CharString name="Ntilde">
          141 18 -21 669 -20 21 -20 74 27 callsubr
          60 76 353 74 hintmask 11010110
          4 callsubr
          hintmask 11001110
          -68 callsubr
          -13 callsubr
          vhcurveto
          hintmask 11010110
          16 11 3 5 11 hvcurveto
          -33 callsubr
          hintmask 10110110
          23 callgsubr
          -53 779 -99 callsubr
        </CharString>
        <CharString name="O">
          -40 callgsubr
          25 callgsubr
          284 -10 -104 callsubr
          endchar
        </CharString>
        <CharString name="OE">
          402 -11 70 264 63 226 62 -8 -20 hstemhm
          48 83 hintmask 11011000
          131 288 rmoveto
          200 96 124 155 38 43 -7 -17 45 vhcurveto
          -8 -141 -43 -258 -13 -119 rrcurveto
          -13 -50 -43 -7 -38 hhcurveto
          -120 -62 72 166 hvcurveto
          -83 -25 rmoveto
          -202 112 -72 137 48 51 9 15 50 vhcurveto
          -14 20 59 -2 53 hhcurveto
          70 hlineto
          71 50 4 39 15 -5 17 -3 10 hvcurveto
          hintmask 11101000
          -13 -24 -89 -10 -70 hhcurveto
          -18 -18 -105 callsubr
          22 -65 callsubr
          10 18 4 16 17 vvcurveto
          8 -1 6 -4 5 vhcurveto
          15 -15 -77 1 -52 hhcurveto
          -63 -66 -1 -14 -69 hvcurveto
          15 -45 -43 8 -41 hhcurveto
          -193 -139 -159 -252 hvcurveto
          endchar
        </CharString>
        <CharString name="Oacute">
          -40 callgsubr
          205 -20 25 callgsubr
          284 -10 -104 callsubr
          120 183 rmoveto
          -106 callgsubr
          endchar
        </CharString>
        <CharString name="Ocircumflex">
          -40 callgsubr
          196 -20 25 callgsubr
          391 870 rmoveto
          -104 callgsubr
          -107 -880 -104 callsubr
          endchar
        </CharString>
        <CharString name="Odieresis">
          -40 callgsubr
          38 107 hstem
          48 83 114 40 callsubr
          14 84 vstem
          284 -10 -104 callsubr
          -74 100 rmoveto
          25 31 25 33 28 -19 21 -24 -29 -27 -26 -34 -28 18 -19 25 hvcurveto
          -25 callgsubr
        </CharString>
        <CharString name="Ograve">
          -40 callgsubr
          218 -20 25 callgsubr
          284 -10 -104 callsubr
          -112 198 rmoveto
          -106 callsubr
          endchar
        </CharString>
        <CharString name="Omega">
          418 0 60 561 56 hstemhm
          40 177 -82 82 453 85 hintmask 11011000
          474 621 rmoveto
          131 65 -82 -127 -133 -62 -113 -132 -74 hvcurveto
          -5 -14 -4 -17 -15 vvcurveto
          -25 11 -21 40 vhcurveto
          221 hlineto
          hintmask 11101000
          12 41 36 94 14 vvcurveto
          10 -7 4 -9 -2 -2 0 -1 -3 vhcurveto
          -21 -34 -26 -41 -24 -27 rrcurveto
          -181 hlineto
          130 68 113 125 167 vvcurveto
          159 -115 98 -159 -184 -162 -157 -200 -121 67 -82 88 -57 vhcurveto
          -181 hlineto
          -16 27 -13 37 -12 38 rrcurveto
          1 -3 -2 0 -2 hhcurveto
          -21 0 -15 -21 -33 4 -63 3 -31 hvcurveto
          221 hlineto
          48 14 29 30 4 hvcurveto
          2 11 0 12 10 vvcurveto
          -82 54 -37 74 89 vvcurveto
          159 98 153 159 vhcurveto
          endchar
        </CharString>
        <CharString name="Oslash">
          193 -63 -21 74 60 562 62 70 -20 25 callgsubr
          293 50 rmoveto
          -36 -29 10 18 -23 hvcurveto
          291 448 rlineto
          20 -41 9 -51 -53 vvcurveto
          -169 -77 -162 -155 vhcurveto
          69 562 rmoveto
          45 35 -16 -26 25 hvcurveto
          -296 -454 rlineto
          -28 44 -12 63 65 vvcurveto
          -59 callgsubr
          vhcurveto
          -78 -622 -61 callgsubr
          85 -22 68 -42 47 hvcurveto
          60 91 rlineto
          6 8 2 8 6 vvcurveto
          18 -18 10 -21 1 vhcurveto
          -19 -33 -22 -37 -25 -40 rrcurveto
          26 -37 -47 14 -54 hhcurveto
          -194 -128 -182 -229 -94 27 -75 51 -47 hvcurveto
          -52 -80 rlineto
          -5 -8 -3 -8 -6 vvcurveto
          -17 17 -11 22 -1 vhcurveto
          18 31 20 35 23 36 rrcurveto
          -18 33 40 -10 45 hhcurveto
          endchar
        </CharString>
        <CharString name="Otilde">
          -40 callgsubr
          47 27 callsubr
          10 callsubr
          hintmask 11101100
          284 -10 -61 callgsubr
          -45 callgsubr
          hvcurveto
          hintmask 11011100
          -194 -128 -182 -229 -167 87 -106 149 hvcurveto
          78 622 rmoveto
          120 43 -112 -119 -169 -77 -162 -155 -119 -43 114 124 hvcurveto
          hintmask 11101100
          -59 callgsubr
          vhcurveto
          93 168 -99 callsubr
        </CharString>
        <CharString name="P">
          58 18 -21 246 61 308 61 hstem
          60 86 259 82 vstem
          255 304 rmoveto
          -30 -28 9 16 -23 hvcurveto
          10 75 13 95 7 80 2 29 rlinecurve
          3 22 22 1 20 38 callgsubr
          -169 -73 rmoveto
          -9 -71 -17 -100 -21 vvcurveto
          -28 11 -14 31 13 24 3 5 11 vhcurveto
          -3 19 -1 19 20 vvcurveto
          47 6 48 6 45 vhcurveto
          9 72 rlineto
          -12 callsubr
          -36 -64 -5 -7 -39 hvcurveto
          -64 -8 -80 -10 -86 vhcurveto
          endchar
        </CharString>
        <CharString name="Q">
          190 -198 67 -67 248 562 62 hstemhm
          10 callsubr
          hintmask 10111000
          -63 callgsubr
          hintmask 01111000
          -27 callsubr
          -140 40 127 -50 124 hhcurveto
          89 74 32 63 20 -14 19 -29 15 hvcurveto
          -58 -29 -57 -24 -61 hhcurveto
          -88 -85 50 73 -29 hvcurveto
          endchar
        </CharString>
        <CharString name="Q_alt">
          207 -220 71 761 62 25 callgsubr
          -63 callgsubr
          -27 callsubr
          -152 34 107 -60 98 hhcurveto
          44 53 16 50 17 -9 17 -18 17 hvcurveto
          -31 -25 -33 -15 -34 hhcurveto
          -65 -68 54 87 -22 hvcurveto
          endchar
        </CharString>
        <CharString name="R">
          77 -3 58 -44 -21 622 61 hstemhm
          60 86 -17 77 199 82 hintmask 10101100
          401 84 rmoveto
          hintmask 10110100
          -29 36 -40 98 -19 59 rrcurveto
          98 15 76 90 121 vvcurveto
          133 -109 37 -109 -36 -65 -5 -7 -39 vhcurveto
          -64 -8 -85 -10 -81 vhcurveto
          -25 -200 rlineto
          -9 -71 -17 -97 -24 vvcurveto
          -26 10 -16 32 14 23 3 5 11 vhcurveto
          -3 18 -1 19 20 vvcurveto
          47 6 49 6 45 vhcurveto
          hintmask 01101100
          29 226 10 77 4 36 5 66 rlinecurve
          3 20 29 1 18 hhcurveto
          85 47 -17 -100 -106 -56 -67 -95 -13 -9 1 5 -14 hvcurveto
          hintmask 10110100
          -7 -11 -4 -10 -8 vvcurveto
          -8 3 -8 24 -5 vhcurveto
          21 -63 50 -120 34 -57 rrcurveto
          -37 22 36 -11 33 hhcurveto
          38 28 14 32 7 -1 7 -3 8 hvcurveto
          -2 -10 -15 -1 -9 hhcurveto
          -22 -19 7 22 -16 hvcurveto
          endchar
        </CharString>
        <CharString name="S">
          21 -10 63 554 64 44 callgsubr
          hintmask 11011000
          402 531 -40 callsubr
          hintmask 11101000
          -56 callsubr
          54 55 -31 -45 15 vhcurveto
          endchar
        </CharString>
        <CharString name="Scaron">
          21 -10 63 554 64 199 -20 44 callgsubr
          hintmask 11101100
          280 710 -37 callgsubr
          -92 callgsubr
          122 -179 -40 callsubr
          -56 callsubr
          vhcurveto
          hintmask 11110100
          54 55 -31 -45 15 hvcurveto
          endchar
        </CharString>
        <CharString name="T">
          -31 18 -21 605 59 3 -20 hstemhm
          142 86 hintmask 11010000
          46 598 rmoveto
          4 43 64 0 59 hhcurveto
          -25 -254 -45 -278 -31 vvcurveto
          -28 11 -14 31 vhcurveto
          hintmask 10110000
          22 callsubr
          hintmask 11010000
          -76 callsubr
          26 201 12 93 12 68 6 37 rlinecurve
          31 68 0 1 28 hvcurveto
          32 2 13 11 28 vvcurveto
          6 -1 9 -1 5 vhcurveto
          -3 -32 -68 0 -73 hhcurveto
          -106 hlineto
          -40 -34 0 -1 -23 hvcurveto
          -32 -1 -13 -12 -34 vvcurveto
          -5 0 -4 1 -6 vhcurveto
          endchar
        </CharString>
        <CharString name="Thorn">
          34 18 -21 130 61 308 61 -61 170 hstemhm
          51 86 -12 85 171 82 hintmask 11010110
          231 188 rmoveto
          -30 -28 9 16 -23 hvcurveto
          hintmask 11101010
          29 224 4 29 4 27 rrcurveto
          2 20 20 1 19 38 callgsubr
          -65 478 rmoveto
          -33 callgsubr
          -3 -65 -9 -81 -11 -86 rrcurveto
          -8 -66 -43 -307 -19 -103 callsubr
          hintmask 11010110
          31 2 31 4 31 vhcurveto
          -12 callsubr
          -13 -16 -1 -1 -18 hvcurveto
          6 30 7 41 7 -17 callsubr
          vhcurveto
          endchar
        </CharString>
        <CharString name="U">
          157 -10 72 604 29 callgsubr
          hintmask 11101000
          450 274 rmoveto
          -126 -46 -101 -86 -71 hhcurveto
          -56 -20 52 50 hvcurveto
          hintmask 11011000
          -7 callgsubr
          vhcurveto
          -51 callgsubr
          -8 -56 -4 -29 -8 vvcurveto
          hintmask 11101000
          -28 11 -14 31 vhcurveto
          hintmask 11011000
          22 callsubr
          -76 callsubr
          hintmask 11100100
          -87 callgsubr
          -69 callsubr
          vhcurveto
          -37 callsubr
          endchar
        </CharString>
        <CharString name="Uacute">
          -23 callgsubr
          233 8 callgsubr
          92 -18 85 hintmask 11110100
          450 274 -53 callsubr
          hintmask 11101100
          26 callsubr
          hintmask 11110100
          -76 callgsubr
          hintmask 11101100
          -50 callgsubr
          -8 -56 -4 -29 -8 -103 callsubr
          -76 callsubr
          -87 callgsubr
          -69 callsubr
          vhcurveto
          -37 callsubr
          33 521 rmoveto
          -67 callsubr
          18 -11 13 2 callgsubr
          hintmask 11110010
          -96 callgsubr
          -11 5 -10 8 -8 vhcurveto
          27 20 82 31 50 28 rrcurveto
          endchar
        </CharString>
        <CharString name="Ucircumflex">
          -23 callgsubr
          224 29 callgsubr
          hintmask 11110100
          388 870 rmoveto
          -65 callgsubr
          hintmask 11101100
          -14 8 6 -4 8 hhcurveto
          18 54 45 36 46 hvcurveto
          0 59 -35 32 -54 vhcurveto
          15 6 12 12 15 vvcurveto
          41 -69 58 -37 28 vhcurveto
          62 -596 -53 callsubr
          -51 callgsubr
          hintmask 11110100
          -8 -56 -4 -29 -8 -103 callsubr
          -76 callsubr
          -87 callgsubr
          vhcurveto
          hintmask 11101100
          -33 callgsubr
          hintmask 11110010
          -37 callsubr
          endchar
        </CharString>
        <CharString name="Udieresis">
          -23 callgsubr
          66 107 12 callsubr
          27 40 callsubr
          -18 85 hintmask 11110110
          450 274 rmoveto
          hintmask 11101110
          -126 -46 -101 -86 -71 hhcurveto
          hintmask 11110110
          -56 -20 52 50 -7 callgsubr
          hvcurveto
          26 callsubr
          hintmask 11101101
          -43 callsubr
          -8 -56 -4 -29 -8 -103 callsubr
          -76 callsubr
          -87 callgsubr
          -69 callsubr
          vhcurveto
          -37 callsubr
          -161 438 rmoveto
          25 31 25 33 28 -19 21 -24 -29 -27 -26 -34 -28 18 -19 25 hvcurveto
          -25 callgsubr
        </CharString>
        <CharString name="Ugrave">
          -23 callgsubr
          246 29 callgsubr
          hintmask 11110010
          450 274 -53 callsubr
          hintmask 11101010
          26 callsubr
          hintmask 11110010
          -76 callgsubr
          hintmask 11101100
          -50 callgsubr
          -8 -56 -4 -29 -8 -103 callsubr
          -76 callsubr
          -87 callgsubr
          -69 callsubr
          vhcurveto
          -37 callsubr
          -199 536 rmoveto
          -66 callsubr
          -58 callsubr
          hintmask 11110010
          12 -8 8 -11 8 vhcurveto
          -21 17 -81 57 -34 42 rrcurveto
          -22 -12 -13 -15 -19 vvcurveto
          -16 11 -11 14 -9 vhcurveto
          endchar
        </CharString>
        <CharString name="V">
          111 34 callsubr
          311 95 hintmask 11011000
          -11 callgsubr
          hintmask 11101000
          -7 14 16 -4 16 hhcurveto
          224 148 425 179 56 -21 24 -31 3 callsubr
          -130 -291 -144 -19 -12 callgsubr
          hintmask 11011000
          5 callsubr
        </CharString>
        <CharString name="W">
          438 34 callsubr
          265 72 -37 95 243 95 hintmask 11011010
          -11 callgsubr
          hintmask 11101010
          -7 14 15 -4 16 hhcurveto
          92 79 72 97 61 hvcurveto
          4 -62 19 -56 38 -40 rrcurveto
          -7 14 15 -4 16 hhcurveto
          218 144 425 179 56 -21 24 -31 hvcurveto
          hintmask 11010110
          3 callsubr
          -125 -291 -138 -19 vhcurveto
          -29 28 -9 66 75 vvcurveto
          33 2 35 2 33 vhcurveto
          35 92 19 93 62 vvcurveto
          53 -21 23 -31 -17 -21 -7 -13 -22 vhcurveto
          12 -29 5 -34 -37 vvcurveto
          -179 -125 -276 -138 -18 -12 callgsubr
          hintmask 11011010
          5 callsubr
        </CharString>
        <CharString name="X">
          76 11 -21 684 -20 hstem
          505 46 rmoveto
          -91 65 -46 132 -38 105 rrcurveto
          87 98 113 132 45 vvcurveto
          34 -42 11 -24 6 vhcurveto
          -15 -55 -71 -114 -76 -90 rrcurveto
          111 -43 -56 148 -58 hhcurveto
          -7 -6 -1 -4 -7 hvcurveto
          -15 -8 -15 -18 -14 -25 73 -56 19 -44 72 -170 rrcurveto
          -69 -76 -170 -172 -63 vvcurveto
          -31 38 -10 25 -6 vhcurveto
          26 73 100 143 76 75 rrcurveto
          -120 50 55 -171 65 hhcurveto
          31 21 34 22 12 hvcurveto
          endchar
        </CharString>
        <CharString name="Y">
          8 callsubr
          hstemhm
          171 86 hintmask 10110000
          50 619 rmoveto
          hintmask 11010000
          -98 callgsubr
          endchar
        </CharString>
        <CharString name="Yacute">
          8 callsubr
          227 -20 hstemhm
          171 86 hintmask 10111000
          50 619 rmoveto
          -98 callgsubr
          354 176 rmoveto
          hintmask 11011000
          -106 callgsubr
          endchar
        </CharString>
        <CharString name="Ydieresis">
          8 callsubr
          60 107 hstemhm
          168 40 callsubr
          -99 176 hintmask 10111100
          50 619 rmoveto
          -98 callgsubr
          hintmask 10111010
          161 93 rmoveto
          -101 callsubr
          hintmask 11011100
          -73 callgsubr
          -101 callgsubr
          hvcurveto
          endchar
        </CharString>
        <CharString name="Z">
          5 callgsubr
          hstemhm
          hintmask 10001000
          hintmask 01010000
          141 667 -55 callsubr
          hintmask 10010000
          -20 callsubr
          hvcurveto
          hintmask 00110000
          12 -3 7 -8 14 vhcurveto
          34 callgsubr
          21 callsubr
          rrcurveto
          hintmask 10000100
          279 325 rlineto
          16 18 4 25 21 vvcurveto
          -14 callgsubr
        </CharString>
        <CharString name="Zcaron">
          5 callgsubr
          203 -20 hstemhm
          hintmask 10001010
          312 710 -37 callgsubr
          hintmask 01010010
          -92 callgsubr
          -171 -43 -55 callsubr
          hintmask 10010010
          -20 callsubr
          12 -3 7 -8 14 hvcurveto
          34 callgsubr
          hintmask 00110010
          21 callsubr
          279 325 rcurveline
          16 18 4 25 21 vvcurveto
          hintmask 10000110
          -14 callgsubr
        </CharString>
        <CharString name="a">
          37 -54 callgsubr
          hstem
          28 78 212 66 vstem
          319 104 -31 callsubr
          -11 -11 vvcurveto
          -107 callsubr
          endchar
        </CharString>
        <CharString name="aacute">
          48 -54 callgsubr
          214 7 callsubr
          330 104 -31 callsubr
          -11 -11 vvcurveto
          -107 callsubr
          57 415 rmoveto
          -106 callgsubr
          endchar
        </CharString>
        <CharString name="acircumflex">
          48 -54 callgsubr
          205 7 callsubr
          303 679 rmoveto
          -104 callgsubr
          27 -575 -31 callsubr
          -11 -11 vvcurveto
          -107 callsubr
          endchar
        </CharString>
        <CharString name="acute">
          -238 546 -21 163 -20 hstem
          172 604 rmoveto
          -67 callsubr
          19 -11 12 2 callgsubr
          -96 callgsubr
          -11 5 -10 8 -8 vhcurveto
          27 20 82 31 50 28 rrcurveto
          endchar
        </CharString>
        <CharString name="adieresis">
          48 -54 callgsubr
          32 callsubr
          39 78 44 99 68 67 -67 99 hintmask 11111010
          330 104 -31 callsubr
          -11 -11 vvcurveto
          -107 callsubr
          hintmask 11111100
          -133 332 rmoveto
          25 31 25 33 28 -19 21 -24 -29 -27 -26 -34 -28 18 -19 25 hvcurveto
          -25 callgsubr
        </CharString>
        <CharString name="ae">
          269 -10 50 145 43 196 50 hstem
          39 78 199 12 callgsubr
          600 -29 callsubr
          -408 -319 rmoveto
          -50 -25 68 75 144 63 97 83 35 46 -21 -24 32 hvcurveto
          -36 -48 -24 -66 -85 vvcurveto
          -11 0 -10 1 -10 vhcurveto
          -69 -38 -52 -40 -35 hhcurveto
          415 62 rmoveto
          -46 -30 -37 -16 -38 hhcurveto
          -57 -44 43 104 -6 hvcurveto
          -1 10 11 -1 12 hhcurveto
          69 181 14 171 57 -41 47 -83 -42 -53 -17 -33 -39 hvcurveto
          40 -56 -52 10 -50 hhcurveto
          -126 -97 -141 -167 -44 callgsubr
          58 57 37 77 41 hvcurveto
          -78 26 57 -36 88 hhcurveto
          35 callsubr
          endchar
        </CharString>
        <CharString name="agrave">
          48 -54 callgsubr
          227 7 callsubr
          330 104 -31 callsubr
          -11 -11 vvcurveto
          -107 callsubr
          -175 430 rmoveto
          -106 callsubr
          endchar
        </CharString>
        <CharString name="ampersand">
          261 -11 59 156 176 -89 59 -59 176 -145 58 236 59 hstemhm
          39 82 -13 77 -77 202 36 55 272 57 hintmask 1000111001100000
          415 235 rmoveto
          -9 10 -5 18 15 vvcurveto
          25 13 19 26 vhcurveto
          hintmask 1100010011100000
          15 29 -6 -5 17 hvcurveto
          hintmask 1100010101100000
          -198 -28 -75 -65 -123 hhcurveto
          -101 -53 71 75 72 48 76 98 22 hvcurveto
          22 5 21 0 32 vvcurveto
          5 -1 6 -1 7 vhcurveto
          -1 -7 -6 0 -6 hhcurveto
          -75 -29 50 39 67 53 42 67 hvcurveto
          hintmask 1001011001100000
          41 41 -21 -48 19 hvcurveto
          29 4 17 16 23 vvcurveto
          41 -60 44 -78 -118 -88 -87 -96 -49 26 -41 54 -27 vhcurveto
          -102 -43 -47 -78 -75 vvcurveto
          -98 79 -92 139 vhcurveto
          hintmask 1010011001100000
          149 109 76 230 50 hvcurveto
          -3 14 12 -1 10 hhcurveto
          75 54 81 55 hvcurveto
          hintmask 1100011001100000
          18 -7 22 -20 -18 -17 -13 -17 -8 vhcurveto
          8 -12 5 -16 -15 vvcurveto
          -28 -15 -16 -27 vhcurveto
          -41 -61 30 -53 hhcurveto
          -77 -53 -79 -57 -18 7 -22 20 18 15 13 18 9 hvcurveto
          endchar
        </CharString>
        <CharString name="ampersand_alt">
          160 -10 56 575 52 hstemhm
          60 78 4 69 164 72 -8 71 hintmask 11110100
          hintmask 11111000
          375 552 rmoveto
          -79 -60 -45 -67 -43 vhcurveto
          -23 53 -14 47 31 vvcurveto
          57 30 48 67 49 18 -33 -36 vhcurveto
          -163 -256 rmoveto
          43 -81 56 -83 46 -53 rrcurveto
          -22 -29 -33 -11 -34 hhcurveto
          -75 -48 43 72 58 31 42 43 35 hvcurveto
          224 -10 rmoveto
          3 -8 0 -10 -9 vvcurveto
          -48 -11 -41 -19 -33 vhcurveto
          -53 55 -50 75 -36 72 rrcurveto
          hintmask 11110100
          77 48 100 63 112 vvcurveto
          59 -40 52 -83 -99 -83 -71 -105 -39 18 -55 27 -58 vhcurveto
          -67 -46 -60 -56 -99 vvcurveto
          -102 86 -52 94 64 51 19 30 40 vhcurveto
          -37 42 36 -12 22 hhcurveto
          hintmask 11111000
          34 16 23 23 3 hvcurveto
          1 9 0 6 5 vvcurveto
          -35 -30 15 26 -32 hvcurveto
          40 53 18 63 46 vvcurveto
          21 -8 18 -28 -9 -17 -6 -6 -12 vhcurveto
          endchar
        </CharString>
        <CharString name="approxequal">
          74 62 16 62 60 62 16 62 hstem
          539 168 rmoveto
          -60 callgsubr
          200 vmoveto
          -60 callgsubr
          endchar
        </CharString>
        <CharString name="aring">
          48 -54 callgsubr
          46 33 112 33 hstemhm
          39 78 107 42 63 66 -42 42 hintmask 11111110
          299 520 -80 callgsubr
          12 -561 -31 callsubr
          -11 -11 vvcurveto
          hintmask 11111101
          -107 callsubr
          endchar
        </CharString>
        <CharString name="asciicircum">
          31 438 -21 258 -20 hstem
          236 582 rmoveto
          -45 43 109 -120 31 hhcurveto
          8 7 5 11 11 hvcurveto
          -35 58 -130 140 -45 44 -45 -44 -130 -140 -35 -58 rrcurveto
          -12 12 6 -4 9 hhcurveto
          27 114 119 46 43 hvcurveto
          endchar
        </CharString>
        <CharString name="asciitilde">
          107 213 76 -36 36 -36 76 hstemhm
          hintmask 01000000
          40 267 rmoveto
          hintmask 10000000
          -20 10 -17 9 -12 vhcurveto
          25 26 36 10 40 79 79 -40 66 hhcurveto
          56 65 16 46 hvcurveto
          hintmask 00100000
          20 -10 17 -9 12 vhcurveto
          -25 -26 -36 -10 -40 -79 -71 40 -97 hhcurveto
          -56 -42 -16 -46 hvcurveto
          endchar
        </CharString>
        <CharString name="asterisk">
          11 426 -21 338 -20 hstemhm
          241 80 -80 189 hintmask 11010000
          247 738 rmoveto
          -1 -39 -2 -41 -3 -45 rrcurveto
          hintmask 11100000
          32 -45 -25 17 -15 hhcurveto
          -27 -21 -34 -26 -8 hvcurveto
          37 -13 37 -15 40 -19 rrcurveto
          -48 -40 -47 -40 -22 vvcurveto
          -22 23 -18 21 -8 vhcurveto
          27 36 29 38 36 41 rrcurveto
          -58 31 17 -45 29 hhcurveto
          22 24 21 20 14 hvcurveto
          -28 28 -29 30 -29 36 rrcurveto
          62 24 62 13 42 vvcurveto
          18 -10 18 -12 12 vhcurveto
          -33 -22 -36 -24 -40 -23 rrcurveto
          11 43 11 40 18 vvcurveto
          24 -19 8 -22 -11 -12 -2 -3 -10 vhcurveto
          endchar
        </CharString>
        <CharString name="at">
          397 -109 61 102 61 -46 46 276 52 91 56 hstemhm
          90 68 88 73 373 74 hintmask 11011111
          336 54 rmoveto
          45 45 31 61 41 hvcurveto
          -53 5 27 -24 36 hhcurveto
          90 141 147 160 124 -85 90 -151 -255 -185 -250 -208 -132 76 -109 176 103 104 42 56 21 -18 14 -20 8 hvcurveto
          -49 -28 -67 -31 -68 hhcurveto
          hintmask 10111111
          -133 -57 84 104 174 152 220 197 129 56 -67 -108 -136 -74 -106 -57 -18 -11 13 26 50 38 117 27 74 hvcurveto
          35 -41 -54 11 -45 hhcurveto
          -111 -100 -143 -136 -74 37 -36 53 hvcurveto
          hintmask 11011111
          132 150 rmoveto
          -60 -34 -43 -29 -30 hhcurveto
          -28 -14 29 42 105 58 100 69 23 19 -9 -19 20 hvcurveto
          -9 -35 -17 -75 -14 -49 rrcurveto
          endchar
        </CharString>
        <CharString name="atilde">
          48 -54 callgsubr
          56 27 callsubr
          39 78 212 66 hintmask 11101100
          330 104 -31 callsubr
          -11 -11 vvcurveto
          -45 9 -36 38 -91 callsubr
          hintmask 11011100
          -51 callsubr
          vvcurveto
          88 24 123 22 107 vhcurveto
          43 -58 -66 14 -55 hhcurveto
          -126 -97 -141 -167 hvcurveto
          hintmask 11101100
          -44 callgsubr
          59 59 39 75 40 vhcurveto
          7 85 rmoveto
          -92 -39 -64 -57 -42 hhcurveto
          -50 -25 68 75 144 63 97 83 32 36 -14 -31 35 hvcurveto
          -8 -49 -11 -70 -10 -71 rrcurveto
          22 400 -99 callsubr
        </CharString>
        <CharString name="b">
          35 -10 49 385 50 268 -20 hstem
          124 75 168 78 vstem
          43 46 rmoveto
          -33 48 61 -23 59 hhcurveto
          149 85 150 150 120 -61 64 -80 -47 -57 -30 -55 -36 hvcurveto
          20 125 15 124 38 vvcurveto
          34 -10 32 -34 -29 -21 9 callsubr
          5 -26 -24 vvcurveto
          -66 -55 -381 -26 -144 vhcurveto
          107 248 rmoveto
          80 38 57 50 39 hhcurveto
          54 29 -78 -75 -151 -73 -81 -77 -33 -34 15 30 -32 hvcurveto
          11 72 13 76 8 62 rrcurveto
          endchar
        </CharString>
        <CharString name="backslash">
          -181 -101 -21 864 -20 hstem
          129 113 rmoveto
          13 -86 11 -81 6 -65 rrcurveto
          -2 9 8 -1 7 hhcurveto
          26 7 13 15 3 0 4 -45 281 hvcurveto
          -49 313 -13 86 -11 81 -6 65 rlinecurve
          -9 3 -12 0 0 vvcurveto
          -22 -14 -6 -21 -15 94 -587 0 hvcurveto
          endchar
        </CharString>
        <CharString name="bar">
          -228 -21 985 -20 hstem
          257 61 vstem
          257 136 rmoveto
          -183 -7 -144 -20 vvcurveto
          -30 22 -8 24 8 6 0 3 16 vhcurveto
          -7 46 -1 124 119 vvcurveto
          308 vlineto
          183 7 144 -41 callgsubr
          -124 -119 vvcurveto
          endchar
        </CharString>
        <CharString name="braceleft">
          28 callsubr
          138 66 -66 181 -150 66 hintmask 11100100
          181 286 rmoveto
          hintmask 11101000
          34 12 43 52 6 43 rrcurveto
          hintmask 11110000
          -5 27 186 2 18 vhcurveto
          50 5 11 14 75 hhcurveto
          35 13 17 32 3 0 3 -1 3 hvcurveto
          1 -13 -12 0 -11 hhcurveto
          hintmask 11100100
          -122 -34 -39 -72 -10 hvcurveto
          -3 -22 -28 -189 1 2 rrcurveto
          -32 -5 -38 -52 -83 hhcurveto
          -7 -50 rlineto
          76 27 -43 -32 hvcurveto
          -13 -31 -198 -34 vvcurveto
          -54 31 -29 105 11 12 0 1 13 vhcurveto
          5 9 4 12 10 vvcurveto
          21 -16 6 -29 -57 -13 10 25 vhcurveto
          24 31 190 27 vvcurveto
          40 -26 42 -28 11 vhcurveto
          endchar
        </CharString>
        <CharString name="braceright">
          28 callsubr
          97 181 -98 67 -36 67 hintmask 11101000
          234 286 rmoveto
          hintmask 11110000
          -33 -12 -43 -51 -7 -43 rrcurveto
          hintmask 11100100
          1 5 -27 -186 -3 -18 rrcurveto
          -46 -6 -4 -18 -75 hhcurveto
          -37 -15 -11 -37 -3 0 -4 1 -3 hvcurveto
          -1 13 12 0 10 hhcurveto
          hintmask 11101000
          122 34 39 72 10 hvcurveto
          3 22 27 189 -2 vvcurveto
          32 5 38 51 83 hhcurveto
          7 50 rlineto
          -76 -27 44 32 hvcurveto
          16 31 201 28 vvcurveto
          54 -31 29 -105 -11 -12 0 -1 -13 vhcurveto
          -5 -9 -4 -12 -10 vvcurveto
          -21 15 -6 29 57 13 -10 -25 vhcurveto
          -24 -31 -205 -11 vvcurveto
          -40 27 -44 27 -11 vhcurveto
          endchar
        </CharString>
        <CharString name="bracketleft">
          -58 -190 58 796 56 hstem
          272 664 rmoveto
          -2 36 10 0 35 hhcurveto
          38 10 22 20 6 -1 5 -1 5 hvcurveto
          -186 hlineto
          -127 -910 rlineto
          186 hlineto
          5 11 3 11 9 vvcurveto
          16 -10 11 -30 -11 -31 0 -2 -39 vhcurveto
          endchar
        </CharString>
        <CharString name="bracketright">
          -79 -190 56 2 -20 814 58 hstemhm
          hintmask 10100000
          107 -134 rmoveto
          2 -37 -31 0 -11 hhcurveto
          -37 -11 -17 -25 -5 0 -5 1 -6 hvcurveto
          185 hlineto
          127 910 rlineto
          hintmask 01100000
          -186 hlineto
          -4 -9 -4 -12 -10 vvcurveto
          hintmask 10100000
          -21 15 -6 25 35 8 0 2 38 vhcurveto
          endchar
        </CharString>
        <CharString name="breve">
          -89 534 65 88 -20 hstem
          248 599 rmoveto
          -56 -18 32 56 -7 hvcurveto
          -33 -3 -9 -15 -22 vvcurveto
          -45 37 -68 78 86 60 84 44 14 -8 9 -25 2 vhcurveto
          -56 -23 -25 -32 -57 hhcurveto
          endchar
        </CharString>
        <CharString name="brokenbar">
          -228 -21 986 -20 hstem
          257 61 vstem
          257 534 rmoveto
          -29 callgsubr
          39 vlineto
          56 7 95 -41 callgsubr
          -84 -40 vvcurveto
          -573 vmoveto
          -29 callgsubr
          40 vlineto
          56 7 95 -41 callgsubr
          -84 -40 vvcurveto
          endchar
        </CharString>
        <CharString name="bullet">
          -158 155 228 hstem
          40 206 vstem
          129 155 rmoveto
          62 55 58 73 56 -36 41 -50 -67 -53 -65 -68 -57 37 -38 52 hvcurveto
          endchar
        </CharString>
        <CharString name="c">
          -26 -10 50 379 55 hstem
          39 79 vstem
          -26 callgsubr
          -123 66 -67 117 71 68 29 41 14 -10 15 -21 13 vhcurveto
          -75 callgsubr
          endchar
        </CharString>
        <CharString name="caron">
          -89 540 -21 152 -20 28 -20 hstemhm
          hintmask 11000000
          226 519 -37 callgsubr
          hintmask 10100000
          -92 callgsubr
          endchar
        </CharString>
        <CharString name="ccedilla">
          -26 -232 45 177 50 379 55 hstemhm
          39 79 43 111 -54 54 hintmask 11111000
          -26 callgsubr
          -107 49 -64 90 -15 vhcurveto
          -13 -26 -4 -18 -9 -71 callsubr
          -25 callsubr
          hintmask 11110100
          5 3 7 4 11 vhcurveto
          74 -3 callsubr
          -75 callgsubr
          endchar
        </CharString>
        <CharString name="cedilla">
          -89 -232 45 219 -20 hstemhm
          102 111 -54 54 hintmask 11100000
          142 32 rmoveto
          -31 -47 -9 -32 -12 -71 callsubr
          vhcurveto
          hintmask 11010000
          -25 callsubr
          12 19 33 7 15 vhcurveto
          endchar
        </CharString>
        <CharString name="cent">
          5 -21 86 56 399 56 103 -20 hstem
          85 71 vstem
          156 288 rmoveto
          128 79 80 85 22 vhcurveto
          -55 -386 rlineto
          -59 17 -50 49 90 vvcurveto
          200 396 rmoveto
          -4 -6 -1 -2 -8 hvcurveto
          -16 -4 -39 -6 -49 vhcurveto
          -128 -21 -115 -101 -179 vvcurveto
          -129 80 -59 92 -15 vhcurveto
          -6 -37 -3 -25 -2 vvcurveto
          -20 11 -5 15 vhcurveto
          0 8 0 8 2 vhcurveto
          1 25 2 28 4 31 rrcurveto
          7 hlineto
          51 119 25 61 18 -13 16 -24 5 hvcurveto
          -54 -46 -38 -15 -39 hhcurveto
          -10 hlineto
          56 399 rlineto
          10 hlineto
          39 34 -15 -54 31 hvcurveto
          30 7 19 19 24 vvcurveto
          53 -97 22 -50 vhcurveto
          -8 hlineto
          6 42 6 37 4 vvcurveto
          11 -6 9 -18 vhcurveto
          endchar
        </CharString>
        <CharString name="centoldstyle">
          -75 -21 86 -20 449 56 94 -20 hstem
          84 72 vstem
          156 196 rmoveto
          118 65 81 81 19 vhcurveto
          -25 -173 -15 -115 -10 -74 rrcurveto
          -65 19 -31 56 69 vvcurveto
          205 353 0 callsubr
          -6 -47 rrcurveto
          -136 -20 -90 -111 -152 vvcurveto
          -108 57 -71 103 -15 vhcurveto
          -7 -49 -1 -16 -2 vvcurveto
          -17 8 -6 17 vhcurveto
          0 11 0 4 2 vhcurveto
          20 4 38 3 26 vhcurveto
          9 hlineto
          49 109 25 62 18 -12 15 -22 5 hvcurveto
          -54 -43 -35 -15 -37 hhcurveto
          -10 hlineto
          20 152 18 130 13 91 46 -1 29 -15 30 -53 rrcurveto
          29 7 18 20 23 vvcurveto
          53 -92 22 -47 vhcurveto
          -4 hlineto
          6 45 4 27 2 vvcurveto
          endchar
        </CharString>
        <CharString name="ch">
          426 -10 50 379 55 224 45 hstemhm
          39 79 183 45 100 78 8 76 104 69 -32 70 hintmask 1111111010000000
          564 382 rmoveto
          10 59 34 184 54 vvcurveto
          hintmask 1111111100000000
          29 -5 35 -52 -176 -74 -58 -95 -36 11 -41 21 -46 vhcurveto
          5 -18 -19 2 -16 hhcurveto
          hintmask 1111111010000000
          -111 -130 -82 callgsubr
          hvcurveto
          -75 callgsubr
          34 6 14 21 22 37 -57 37 90 vvcurveto
          78 57 53 102 23 4 -12 -25 vhcurveto
          -109 -86 -442 -79 vvcurveto
          -79 callgsubr
        </CharString>
        <CharString name="circumflex">
          -89 540 -21 160 -20 hstem
          225 679 rmoveto
          -104 callgsubr
          endchar
        </CharString>
        <CharString name="colon">
          -215 -10 127 234 127 hstemhm
          30 115 -67 115 hintmask 11010000
          80 -10 rmoveto
          -90 callgsubr
          48 361 rmoveto
          -16 callsubr
          31 -21 23 -28 hvcurveto
          hintmask 11100000
          -35 -31 -35 -39 -32 22 -21 28 hvcurveto
          endchar
        </CharString>
        <CharString name="comma">
          -238 -143 13 callgsubr
          30 14 callsubr
          hintmask 11100000
          hintmask 11010000
          74 -12 rmoveto
          -28 callsubr
          -55 callgsubr
        </CharString>
        <CharString name="copyright">
          449 -34 57 75 59 332 59 69 57 hstem
          130 72 81 84 383 72 vstem
          617 157 rmoveto
          16 -13 13 -16 9 vhcurveto
          -27 -19 -28 -11 -39 hhcurveto
          -63 -72 42 131 97 51 62 62 37 45 -17 -45 13 hvcurveto
          31 4 12 14 22 vvcurveto
          57 -83 24 -48 -92 -112 -67 -163 -166 115 -54 95 67 57 27 32 vhcurveto
          133 163 rmoveto
          -182 -125 -115 -148 -151 -124 115 182 181 124 116 151 148 125 -116 -181 vhcurveto
          72 hmoveto
          204 -154 150 -191 -195 -152 -150 -204 -202 152 -152 195 191 154 152 202 vhcurveto
          endchar
        </CharString>
        <CharString name="ct">
          294 -10 53 376 45 22 -21 30 -21 128 42 hstemhm
          39 79 240 32 97 66 -66 219 -165 72 hintmask 1110111010000000
          hintmask 1110111100000000
          495 465 rmoveto
          -42 -16 -15 -28 -6 1 -5 1 -7 hvcurveto
          2 22 28 4 34 hhcurveto
          -13 -102 -23 -133 -50 vvcurveto
          -86 35 -49 90 46 48 15 34 16 -12 14 -4 4 vhcurveto
          -18 -22 -26 -12 -24 hhcurveto
          -41 -24 11 66 50 25 158 12 82 hvcurveto
          48 42 0 1 32 hvcurveto
          -85 callgsubr
          -41 -30 -2 -87 hhcurveto
          3 20 11 52 13 vvcurveto
          4 vlineto
          51 -3 -58 40 -57 hhcurveto
          hintmask 1101111001000000
          -70 -67 43 callsubr
          -25 -32 5 -25 hhcurveto
          -111 -130 -71 callgsubr
          hvcurveto
          hintmask 1110111100000000
          -48 callsubr
          vhcurveto
          -75 callgsubr
          34 6 14 21 22 19 -13 9 39 vvcurveto
          74 54 58 48 15 34 -2 -30 vhcurveto
          -20 -13 -69 -16 vvcurveto
          endchar
        </CharString>
        <CharString name="d">
          38 -10 50 385 49 268 -20 hstem
          29 78 212 69 3 76 vstem
          365 426 rmoveto
          33 -39 -35 15 -39 hhcurveto
          -126 -97 -141 -167 -44 callgsubr
          59 59 39 75 40 hvcurveto
          -1 -10 0 -12 -11 vvcurveto
          -40 10 -41 40 -91 callsubr
          -51 callsubr
          50 79 460 70 -48 callgsubr
          -40 -17 -111 -9 -62 vhcurveto
          -36 -237 rmoveto
          -92 -39 -66 -57 -42 hhcurveto
          -50 -25 68 75 144 61 98 88 27 26 -6 -41 48 hvcurveto
          endchar
        </CharString>
        <CharString name="dagger">
          -1 -85 -21 531 68 -68 248 -236 56 -56 69 hstemhm
          hintmask 11000000
          69 459 rmoveto
          hintmask 10010000
          -1 -8 -1 -10 -16 vvcurveto
          hintmask 10100000
          58 4 29 6 65 2 rrcurveto
          -60 -385 -24 -58 -31 vvcurveto
          hintmask 11000000
          -36 37 -33 0 vhcurveto
          0 53 38 6 39 vhcurveto
          5 39 -3 54 45 372 rrcurveto
          -1 43 19 -5 33 hhcurveto
          48 17 18 44 9 -1 9 -3 7 hvcurveto
          17 callgsubr
          20 callsubr
          hintmask 10001000
          -15 callgsubr
          endchar
        </CharString>
        <CharString name="daggerdbl">
          -1 -105 243 -76 76 -63 63 292 63 -63 76 -76 243 hstemhm
          hintmask 10010000
          270 281 rmoveto
          5 44 -5 51 8 60 rrcurveto
          -1 43 20 -5 33 hhcurveto
          43 21 16 46 hvcurveto
          hintmask 10000100
          9 -1 9 -3 7 vhcurveto
          hintmask 10010000
          17 callgsubr
          hintmask 00101000
          20 callsubr
          -15 callgsubr
          -1 -8 -1 -10 -16 vvcurveto
          58 4 29 6 65 2 -9 -60 -21 -51 -6 -45 rrcurveto
          -2 -16 -1 -18 -18 -15 1 -17 -9 vvcurveto
          -17 -1 -17 -3 -22 vhcurveto
          1 -43 -19 5 -33 hhcurveto
          -43 -22 -16 -46 hvcurveto
          hintmask 10010000
          -9 1 -9 3 -7 vhcurveto
          hintmask 00110000
          58 17 38 6 52 1 -11 -64 -15 -59 -11 -51 rrcurveto
          hintmask 01010000
          -4 16 12 -2 13 hhcurveto
          13 12 2 4 19 hvcurveto
          3 51 1 59 7 64 rrcurveto
          -3 75 22 -10 16 hhcurveto
          30 12 23 24 3 hvcurveto
          1 8 1 10 16 vvcurveto
          -58 -4 -29 -6 -65 -2 9 57 18 50 7 43 rrcurveto
          endchar
        </CharString>
        <CharString name="degree">
          -83 387 56 212 56 hstem
          47 65 175 66 vstem
          217 655 rmoveto
          47 23 -35 -47 -65 -40 -65 -63 -48 -24 35 47 65 41 65 64 hvcurveto
          9 56 rmoveto
          -101 -78 -88 -103 -78 50 -55 79 98 79 86 106 76 -50 56 -77 hvcurveto
          endchar
        </CharString>
        <CharString name="dieresis">
          -182 521 107 hstem
          39 40 callsubr
          vstem
          82 521 rmoveto
          25 31 25 33 28 -19 21 -24 -29 -27 -26 -34 -28 18 -19 25 hvcurveto
          -25 callgsubr
        </CharString>
        <CharString name="divide">
          23 114 87 57 86 114 hstem
          236 109 vstem
          486 258 24 callgsubr
          -6 -52 -90 -1 -49 -74 -73 7 21 callgsubr
          -67 callgsubr
          -195 109 rmoveto
          -6 callsubr
          -344 vmoveto
          -6 callsubr
          endchar
        </CharString>
        <CharString name="dollar">
          -57 -21 817 -20 hstem
          131 71 187 73 vstem
          202 481 rmoveto
          79 50 44 54 6 vhcurveto
          -32 -224 rlineto
          -41 18 -31 25 52 vvcurveto
          187 -287 rmoveto
          -92 -60 -49 -63 -4 vhcurveto
          11 79 10 79 12 83 rrcurveto
          49 -17 41 -22 -57 vvcurveto
          -151 -272 rmoveto
          0 8 0 7 2 vhcurveto
          1 21 2 22 3 24 rrcurveto
          119 11 84 88 137 vvcurveto
          90 -60 21 -91 33 vhcurveto
          12 80 13 94 9 63 44 -8 38 -29 13 -39 rrcurveto
          40 8 16 20 29 vvcurveto
          54 -80 27 -62 1 vhcurveto
          4 28 2 18 2 vvcurveto
          11 -6 9 -18 -4 -6 -1 -2 -8 vhcurveto
          -1 -21 -2 -23 -3 -24 rrcurveto
          -102 -16 -79 -76 -121 vvcurveto
          -103 66 -28 66 -22 vhcurveto
          -16 -114 -8 -53 -11 -83 -49 9 -45 31 -14 43 rrcurveto
          -28 -13 -23 -15 -32 vvcurveto
          -46 70 -34 80 -4 vhcurveto
          -6 -40 0 -4 -4 vvcurveto
          -16 10 -5 15 vhcurveto
          endchar
        </CharString>
        <CharString name="dollaroldstyle">
          -47 -21 721 -20 hstem
          130 60 213 60 vstem
          190 414 rmoveto
          70 55 34 56 4 vhcurveto
          -11 -74 -8 -63 -8 -56 rrcurveto
          -47 16 -37 21 48 vvcurveto
          213 -250 rmoveto
          -79 -67 -38 -62 -3 vhcurveto
          9 71 10 69 9 65 rrcurveto
          54 -15 47 -18 -52 vvcurveto
          -47 469 0 callsubr
          -3 -26 rrcurveto
          -100 -12 -78 -63 -105 vvcurveto
          -91 67 -27 67 -19 vhcurveto
          -30 -213 -49 8 -47 27 -15 36 rlinecurve
          -24 -11 -24 -13 -27 vvcurveto
          -41 70 -31 82 -4 vhcurveto
          -4 -29 0 -3 -5 vvcurveto
          -16 10 -5 15 vhcurveto
          0 11 0 4 2 vhcurveto
          14 1 22 3 21 vhcurveto
          94 9 102 54 136 vvcurveto
          85 -79 21 -73 21 vhcurveto
          11 80 11 70 7 54 47 -7 41 -24 14 -32 rrcurveto
          35 7 17 16 24 vvcurveto
          49 -82 24 -63 1 vhcurveto
          2 19 5 33 2 vvcurveto
          endchar
        </CharString>
        <CharString name="dotaccent">
          -89 521 107 hstem
          174 99 vstem
          217 521 rmoveto
          -73 callgsubr
          -101 callgsubr
          hvcurveto
          endchar
        </CharString>
        <CharString name="dotlessi">
          -238 11 -21 484 -20 hstemhm
          42 69 -24 24 -24 76 hintmask 11010000
          120 474 rmoveto
          hintmask 11100000
          -20 callgsubr
          vhcurveto
          hintmask 11001000
          29 16 26 20 6 hvcurveto
          -51 callsubr
          50 52 192 70 vvcurveto
          33 -11 30 -32 vhcurveto
          endchar
        </CharString>
        <CharString name="e">
          -18 -36 callgsubr
          26 callgsubr
          320 102 -105 callgsubr
          41 22 -30 -36 hvcurveto
          endchar
        </CharString>
        <CharString name="eacute">
          -15 -36 callgsubr
          214 -20 26 callgsubr
          320 102 -105 callgsubr
          41 22 -30 -36 hvcurveto
          51 245 rmoveto
          -106 callgsubr
          endchar
        </CharString>
        <CharString name="ecircumflex">
          -18 -36 callgsubr
          205 -20 26 callgsubr
          273 679 rmoveto
          -104 callgsubr
          47 -577 -105 callgsubr
          41 22 -30 -36 hvcurveto
          endchar
        </CharString>
        <CharString name="edieresis">
          -18 -36 callgsubr
          32 callsubr
          29 79 17 40 callsubr
          -78 78 hintmask 11111110
          320 102 -105 callgsubr
          hintmask 11111101
          -17 callgsubr
          -145 162 rmoveto
          25 31 25 33 28 -19 21 -24 -29 -27 -26 -34 -28 18 -19 25 hvcurveto
          -25 callgsubr
        </CharString>
        <CharString name="egrave">
          -18 -36 callgsubr
          227 -20 26 callgsubr
          320 102 -105 callgsubr
          41 22 -30 -36 hvcurveto
          -181 260 rmoveto
          -106 callsubr
          endchar
        </CharString>
        <CharString name="eight">
          -10 59 565 59 hstemhm
          71 72 0 70 190 73 -47 47 -47 68 hintmask 11101000
          331 614 rmoveto
          hintmask 11100010
          54 44 -29 -43 -68 -45 -45 -66 -31 hvcurveto
          -66 30 -39 35 55 vvcurveto
          57 53 39 65 vhcurveto
          -74 -565 rmoveto
          -75 -39 52 57 91 59 53 78 35 hvcurveto
          74 -36 49 -35 -70 vvcurveto
          -73 -53 -74 -93 vhcurveto
          -8 -59 rmoveto
          153 74 107 107 86 -47 44 -58 33 hvcurveto
          hintmask 11101000
          66 33 60 57 92 vvcurveto
          77 -72 47 -86 -108 -88 -69 -102 vhcurveto
          hintmask 11010100
          -68 35 -38 48 -29 vhcurveto
          -78 -36 -77 -71 -115 vvcurveto
          -81 55 -74 123 vhcurveto
          endchar
        </CharString>
        <CharString name="eightoldstyle">
          8 -10 56 522 56 hstemhm
          15 70 4 68 183 70 -45 45 -45 67 hintmask 11111000
          272 568 rmoveto
          hintmask 11110010
          52 41 -25 -39 -63 -42 -42 -67 -28 hvcurveto
          -61 27 -38 32 48 vvcurveto
          54 51 36 64 vhcurveto
          -77 -522 rmoveto
          -72 -38 47 52 85 59 50 76 32 hvcurveto
          71 -33 49 -32 -63 vvcurveto
          -68 -56 -70 -89 vhcurveto
          -7 -56 rmoveto
          149 73 100 102 78 -46 39 -55 31 hvcurveto
          hintmask 11111000
          65 31 58 53 85 vvcurveto
          71 -69 44 -83 -106 -85 -64 -97 vhcurveto
          hintmask 11110100
          -62 34 -34 45 -27 vhcurveto
          -76 -33 -77 -66 -108 vvcurveto
          -75 53 -68 120 vhcurveto
          endchar
        </CharString>
        <CharString name="ellipsis">
          308 -10 127 hstem
          30 115 166 115 166 115 cntrmask 01110000
          80 -10 rmoveto
          -90 callgsubr
          562 hmoveto
          -90 callgsubr
          -281 hmoveto
          -90 callgsubr
          endchar
        </CharString>
        <CharString name="emdash">
          279 233 -8 callsubr
          hintmask 01100000
          hintmask 10000000
          687 297 rmoveto
          -5 -28 -40 -2 -31 hhcurveto
          -418 hlineto
          -48 -40 4 -13 hhcurveto
          hintmask 01100000
          -37 -2 -39 -30 hvcurveto
          hintmask 10000000
          7 40 37 1 28 hhcurveto
          419 hlineto
          45 26 -5 22 hhcurveto
          hintmask 01100000
          30 11 33 26 hvcurveto
          3 -1 4 3 vvcurveto
          endchar
        </CharString>
        <CharString name="endash">
          233 -8 callsubr
          hintmask 10000000
          hintmask 01100000
          169 290 rmoveto
          hintmask 10000000
          -42 -41 4 -12 hhcurveto
          -34 -10 -30 -27 -4 0 -3 1 -5 hvcurveto
          4 27 32 4 64 hhcurveto
          hintmask 01100000
          168 hlineto
          hintmask 10000000
          31 37 -5 21 hhcurveto
          33 11 30 28 -22 callsubr
          -6 -32 -54 -1 -29 hhcurveto
          endchar
        </CharString>
        <CharString name="equal">
          124 57 -44 -21 208 57 7 -20 hstemhm
          hintmask 10010000
          486 158 24 callgsubr
          hintmask 10100000
          38 callsubr
          -21 callgsubr
          hvcurveto
          hintmask 10010000
          -7 0 -8 3 -15 vhcurveto
          hintmask 10100000
          -67 callgsubr
          200 vmoveto
          hintmask 01100000
          -44 callsubr
          vhcurveto
          hintmask 10100000
          -4 callsubr
          hhcurveto
          hintmask 01100000
          -74 -73 7 21 callgsubr
          -67 callgsubr
          endchar
        </CharString>
        <CharString name="eth">
          90 -10 56 373 55 257 -20 hstem
          36 68 279 74 vstem
          269 419 rmoveto
          75 39 -67 -88 -113 -55 -105 -109 -77 -38 66 89 114 58 104 107 hvcurveto
          -72 151 rmoveto
          -12 -8 -7 -9 -12 vvcurveto
          -13 9 -10 11 -9 vhcurveto
          34 24 26 20 48 33 41 -40 32 -58 15 -84 rrcurveto
          48 -32 -48 22 -50 hhcurveto
          -108 -120 -105 -184 -121 67 -74 108 181 65 188 174 110 -29 88 -74 69 hvcurveto
          72 48 rlineto
          13 9 6 8 12 vvcurveto
          12 -7 14 -8 9 vhcurveto
          -31 -25 -43 -30 -40 -27 rrcurveto
          30 -47 -66 19 -29 hhcurveto
          -21 -6 -14 -15 -2 0 -2 1 -4 hvcurveto
          42 -8 41 -14 36 -23 rrcurveto
          -40 -27 -30 -19 0 vvcurveto
          endchar
        </CharString>
        <CharString name="exclam">
          -188 -10 127 567 -20 hstemhm
          50 113 -70 70 -30 93 hintmask 11001000
          hintmask 11010000
          100 -10 rmoveto
          -90 callgsubr
          126 656 rmoveto
          hintmask 11001000
          28 -16 10 -25 -15 -22 -4 -4 -16 vhcurveto
          1 -7 0 -10 -9 -112 -40 -278 -34 vvcurveto
          hintmask 11100000
          -27 16 -10 19 12 14 4 6 13 vhcurveto
          -3 14 -1 14 16 vvcurveto
          25 4 26 9 73 vhcurveto
          18 134 32 106 39 vvcurveto
          endchar
        </CharString>
        <CharString name="exclamdown">
          -143 -198 -21 567 127 hstemhm
          60 93 -30 70 -70 113 hintmask 11100000
          hintmask 11010000
          186 475 -13 callgsubr
          -126 -656 rmoveto
          hintmask 11100000
          -28 16 -10 25 15 22 4 4 16 vhcurveto
          -1 7 0 10 9 112 40 278 34 vvcurveto
          hintmask 11001000
          27 -16 10 -19 -12 -14 -4 -6 -13 vhcurveto
          3 -14 1 -14 -16 vvcurveto
          -25 -4 -26 -9 -73 vhcurveto
          -18 -134 -32 -106 -39 vvcurveto
          endchar
        </CharString>
        <CharString name="f">
          -123 -110 -21 541 55 192 57 hstemhm
          39 139 -68 207 hintmask 11101000
          368 598 rmoveto
          36 6 12 23 20 vvcurveto
          hintmask 11110000
          50 -62 17 -49 -133 -54 32 callgsubr
          vhcurveto
          hintmask 11101000
          -66 callgsubr
          17 2 22 -74 callgsubr
          hintmask 11110000
          -49 callgsubr
          -63 callsubr
          43 -11 -48 14 hvcurveto
          endchar
        </CharString>
        <CharString name="f_alt">
          -126 43 callgsubr
          hstem
          107 68 vstem
          302 714 rmoveto
          -133 -54 32 callgsubr
          hvcurveto
          -23 -69 callgsubr
          17 2 32 15 callgsubr
          rrcurveto
          -331 -28 2 -215 -128 -81 callsubr
          vhcurveto
          endchar
        </CharString>
        <CharString name="ff">
          165 -110 -21 540 56 192 18 callsubr
          hintmask 11110010
          392 409 rmoveto
          40 callgsubr
          -23 -281 -69 -84 callsubr
          -49 callgsubr
          hintmask 11101100
          -63 callsubr
          46 -13 -45 15 -18 callsubr
          -62 17 -49 -133 -54 32 callgsubr
          vhcurveto
          -220 hlineto
          93 5 23 99 55 hhcurveto
          22 36 -13 -45 12 -18 callsubr
          -54 17 -43 vhcurveto
          hintmask 11110100
          -38 callsubr
          hvcurveto
          -13 hlineto
          -36 -22 -11 -32 -5 1 -6 1 -7 hvcurveto
          18 2 21 -74 callgsubr
          endchar
        </CharString>
        <CharString name="ff_alt">
          162 -204 67 6 -20 561 55 192 57 hstemhm
          107 68 220 68 -68 207 hintmask 10111010
          657 599 rmoveto
          32 8 12 20 20 vvcurveto
          hintmask 01111010
          50 -62 17 -49 -133 -54 32 callgsubr
          vhcurveto
          -220 hlineto
          92 5 23 100 55 hhcurveto
          22 36 -13 -45 12 -59 callsubr
          hintmask 10111100
          50 -54 17 -43 -38 callsubr
          vhcurveto
          -66 callgsubr
          17 2 22 15 callgsubr
          -6 -79 rcurveline
          -20 -249 -11 -96 callsubr
          220 hlineto
          40 callgsubr
          -24 -282 -68 -84 callsubr
          -49 callgsubr
          -63 callsubr
          46 -13 -45 15 hvcurveto
          endchar
        </CharString>
        <CharString name="ff_alt_1">
          162 43 callgsubr
          hstemhm
          107 68 208 219 -207 68 hintmask 11111000
          hintmask 11110100
          383 330 rmoveto
          -19 -249 -12 -138 -53 -53 rrcurveto
          -15 -15 -25 -12 -24 -81 callsubr
          -133 -54 -112 -137 -8 vhcurveto
          -220 hlineto
          92 5 23 100 -70 callgsubr
          hintmask 11111000
          -88 callgsubr
          17 2 22 15 callgsubr
          -6 -79 rcurveline
          -20 -249 -11 -96 callsubr
          220 hlineto
          endchar
        </CharString>
        <CharString name="ffi">
          330 -18 callgsubr
          64 12 -21 133 116 -57 18 callsubr
          15 69 -32 32 -32 76 hintmask 1110101010010000
          178 464 rmoveto
          94 5 23 99 -70 callgsubr
          -36 -22 -11 -32 -5 1 -6 1 -7 hvcurveto
          18 2 21 2 24 1 40 callgsubr
          -23 -281 -69 -21 rrcurveto
          hintmask 1110101010100000
          -58 callgsubr
          30 23 28 69 18 hvcurveto
          hintmask 1110010110001000
          21 85 23 242 10 117 rrcurveto
          220 hlineto
          -53 callgsubr
          hintmask 1101100110100000
          -95 callgsubr
          88 6 33 105 95 hhcurveto
          hintmask 1110101001100000
          -30 callsubr
          292 9 -81 callgsubr
          vvcurveto
          hintmask 1110011010100000
          -86 -37 6 callsubr
          vhcurveto
          hintmask 1101100110100000
          29 16 26 20 6 hvcurveto
          -51 callsubr
          50 44 192 70 vvcurveto
          33 -11 30 -32 vhcurveto
          endchar
        </CharString>
        <CharString name="ffl">
          352 -18 callgsubr
          55 192 42 callsubr
          207 28 69 hintmask 11110111
          392 410 rmoveto
          -53 callgsubr
          hintmask 11111011
          -98 callsubr
          -146 -59 -49 callsubr
          -9 hvcurveto
          -220 hlineto
          94 5 23 98 -70 callgsubr
          -36 -22 -11 -32 -5 1 -6 1 -7 hvcurveto
          18 2 21 -74 callgsubr
          endchar
        </CharString>
        <CharString name="fi">
          42 -18 callgsubr
          57 19 -21 30 -21 124 116 -57 25 callsubr
          154 69 -32 32 -32 76 hintmask 1110101011000000
          402 474 rmoveto
          hintmask 1101010011000000
          -8 -7 -3 -4 -7 hvcurveto
          -2 -51 -93 -1 -58 hhcurveto
          88 6 33 105 95 hhcurveto
          35 36 -16 -43 14 hvcurveto
          hintmask 1110110100100000
          48 15 29 20 50 -71 17 -56 -152 -62 -32 callsubr
          40 callgsubr
          -23 -281 -69 -21 rrcurveto
          -58 callgsubr
          hintmask 1110110101000000
          -93 callsubr
          37 130 0 1 23 hvcurveto
          5 -10 2 -15 -15 -86 -37 -2 callsubr
          hintmask 1110110100010000
          -42 callsubr
        </CharString>
        <CharString name="fi_alt">
          38 -204 67 127 -20 440 57 19 -21 30 -21 124 116 -57 57 hstemhm
          106 68 191 32 -32 76 hintmask 1110101101000000
          398 474 rmoveto
          hintmask 1101010101000000
          -8 -7 -3 -4 -7 hvcurveto
          -2 -52 -92 -1 -58 hhcurveto
          88 6 33 105 95 hhcurveto
          -30 callsubr
          hintmask 1110110110000000
          -77 callgsubr
          37 129 0 1 24 hvcurveto
          5 -10 2 -15 -15 -86 -37 -2 callsubr
          hintmask 1110110101000000
          -42 callsubr
        </CharString>
        <CharString name="five">
          -10 59 323 57 163 70 8 -20 hstemhm
          366 75 hintmask 11101000
          398 592 rmoveto
          47 28 12 32 4 hvcurveto
          7 -1 18 -4 9 vhcurveto
          -6 -30 -50 -2 -26 hhcurveto
          -49 -110 0 2 -27 hvcurveto
          -36 -206 -11 -46 -18 vvcurveto
          -13 3 -10 3 -4 vhcurveto
          3 22 28 2 28 hhcurveto
          99 50 -65 -75 -86 -64 -97 -106 -60 -28 14 26 -17 hvcurveto
          -22 -3 -19 -15 -22 vvcurveto
          -27 37 -32 98 156 100 127 142 vhcurveto
          hintmask 11011000
          98 -58 72 -128 vhcurveto
          hintmask 11101000
          -20 -23 -2 -4 -23 hvcurveto
          35 175 rlineto
          -2 34 97 -4 43 hhcurveto
          endchar
        </CharString>
        <CharString name="fiveoldstyle">
          -38 -159 58 304 48 144 70 8 -20 hstemhm
          269 70 hintmask 11101000
          299 395 rmoveto
          45 32 13 35 8 0 11 -5 11 hvcurveto
          -6 -29 -49 -2 -24 hhcurveto
          -48 -106 0 2 -27 hvcurveto
          -31 -159 -15 -63 -22 vvcurveto
          -13 3 -8 3 -4 vhcurveto
          4 28 29 1 26 hhcurveto
          100 38 -57 -66 -100 -70 -81 -118 -41 -23 11 19 -16 hvcurveto
          -21 -5 -15 -15 -20 vvcurveto
          -26 32 -22 71 165 106 114 147 vhcurveto
          hintmask 11011000
          97 -61 52 -105 vhcurveto
          hintmask 11101000
          -20 -32 -1 -4 -24 hvcurveto
          35 155 rlineto
          -2 33 93 -4 41 hhcurveto
          endchar
        </CharString>
        <CharString name="fl">
          71 -18 callgsubr
          55 192 57 hstem
          104 213 28 69 vstem
          324 714 rmoveto
          -146 -59 -111 -138 -9 hvcurveto
          -13 hlineto
          -36 -22 -11 -32 -5 1 -6 1 -7 hvcurveto
          18 2 21 -74 callgsubr
          -49 callgsubr
          -98 callsubr
          endchar
        </CharString>
        <CharString name="fl_alt">
          68 -204 67 127 -20 440 54 22 -21 192 57 hstem
          107 207 28 69 vstem
          169 410 rmoveto
          -49 callgsubr
          -98 callsubr
          -146 -59 -111 -138 -9 hvcurveto
          -77 callgsubr
          endchar
        </CharString>
        <CharString name="florin">
          -120 55 438 46 200 55 hstem
          319 376 rmoveto
          0 56 -3 28 38 17 9 40 3 0 3 -1 3 vhcurveto
          -33 -5 -48 -4 -48 -3 rrcurveto
          129 24 16 71 72 hhcurveto
          25 17 -11 -36 6 hvcurveto
          40 7 18 27 22 vvcurveto
          24 -22 22 -55 -131 -49 -122 -137 -28 vhcurveto
          0 -27 0 -8 -1 vhcurveto
          -23 -2 -10 -12 -19 vvcurveto
          -3 0 -2 1 -3 vhcurveto
          19 2 13 1 29 1 -56 -294 rcurveline
          -95 -18 -16 -53 -58 hhcurveto
          -22 -14 11 36 -5 hvcurveto
          -39 -8 -20 -26 -23 vvcurveto
          -24 21 -21 51 123 45 109 141 26 vhcurveto
          endchar
        </CharString>
        <CharString name="florinoldstyle">
          -120 55 398 46 182 55 hstem
          307 336 rmoveto
          -1 31 29 -2 30 hhcurveto
          30 22 3 32 2 hvcurveto
          7 0 10 -3 6 vhcurveto
          -34 -5 -50 -4 -52 -3 4 34 rcurveline
          95 11 15 53 72 hhcurveto
          27 18 -11 -36 9 hvcurveto
          28 5 30 18 29 vvcurveto
          26 -23 24 -63 -139 -42 -104 -137 -17 vhcurveto
          -13 -16 -1 -8 hhcurveto
          -20 -11 -9 -16 -1 hvcurveto
          -5 0 -5 2 -6 vhcurveto
          22 2 11 1 30 1 -29 -254 rcurveline
          -95 -11 -13 -53 -62 hhcurveto
          -24 -15 11 36 -7 hvcurveto
          -28 -5 -30 -18 -29 vvcurveto
          -26 21 -24 58 132 37 109 141 16 vhcurveto
          endchar
        </CharString>
        <CharString name="four">
          11 -21 218 62 404 -20 hstem
          303 76 vstem
          129 273 rmoveto
          81 112 108 132 62 62 -17 -114 0 4 -27 -196 rrcurveto
          -2 -33 -37 -1 -37 hhcurveto
          -32 -36 1 2 -32 hvcurveto
          254 388 rmoveto
          -65 -54 -188 -228 -64 -95 rrcurveto
          -4 -11 -3 -15 -14 vvcurveto
          -15 4 -12 13 -2 vhcurveto
          -7 53 97 0 102 hhcurveto
          -10 -67 -15 -87 -26 vvcurveto
          -26 9 -12 31 14 15 3 5 11 vhcurveto
          -3 19 -1 20 20 vvcurveto
          46 6 50 8 56 vhcurveto
          39 1 27 3 15 5 rrcurveto
          18 6 7 22 21 vvcurveto
          10 -2 9 -2 7 vhcurveto
          -17 -8 -40 -6 -37 -3 20 176 22 114 18 105 rrcurveto
          2 -8 -11 1 -10 hhcurveto
          -18 -19 -3 -10 -12 hvcurveto
          endchar
        </CharString>
        <CharString name="fouroldstyle">
          8 -138 -21 211 59 363 -20 hstem
          233 72 vstem
          60 114 rmoveto
          82 103 107 121 62 57 -17 -104 0 3 -26 -180 rrcurveto
          -2 -34 -37 -1 -36 hhcurveto
          -32 -36 1 2 -33 hvcurveto
          259 348 rmoveto
          -65 -49 -184 -204 -63 -84 rrcurveto
          -4 -12 -3 -15 -12 vvcurveto
          -17 9 -10 13 -1 vhcurveto
          -5 54 86 -1 98 hhcurveto
          -12 -69 -15 -82 -25 vvcurveto
          -24 10 -11 30 14 10 3 5 12 vhcurveto
          -3 17 -1 17 18 vvcurveto
          46 7 51 9 55 vhcurveto
          39 1 27 3 15 5 rrcurveto
          19 6 6 23 19 vvcurveto
          10 -2 8 -2 6 vhcurveto
          -17 -8 -40 -6 -37 -3 12 81 rcurveline
          22 157 21 101 2 16 rrcurveto
          1 -6 -3 1 -10 hhcurveto
          -18 -19 -2 -10 -11 hvcurveto
          endchar
        </CharString>
        <CharString name="fraction">
          -193 -86 -21 847 -20 hstem
          -136 -57 -93 callgsubr
          endchar
        </CharString>
        <CharString name="ft">
          182 -110 -21 121 53 367 55 -55 170 77 25 callsubr
          197 66 -66 219 hintmask 1110101100000000
          357 599 rmoveto
          32 8 12 20 20 vvcurveto
          50 -59 17 -47 -126 -51 32 callgsubr
          vhcurveto
          -66 callgsubr
          14 2 25 -74 callgsubr
          hintmask 1110110010000000
          239 hlineto
          -13 -102 -23 -133 -50 vvcurveto
          -86 35 -49 90 46 48 15 34 16 -12 14 -4 4 vhcurveto
          -18 -22 -26 -12 -24 hhcurveto
          -41 -24 11 66 50 25 158 12 82 hvcurveto
          48 42 0 1 32 hvcurveto
          -85 callgsubr
          -41 -30 -2 -87 hhcurveto
          3 20 11 52 13 vvcurveto
          hintmask 1101110100000000
          25 -19 6 -21 -11 -11 -1 -2 -9 vhcurveto
          -2 -24 -8 -54 -4 -32 rrcurveto
          -1 -62 -63 -2 -113 hhcurveto
          94 6 27 99 64 hhcurveto
          26 42 -13 -45 14 hvcurveto
          endchar
        </CharString>
        <CharString name="ft_alt">
          179 -204 67 127 53 366 56 -56 171 77 57 hstemhm
          107 68 197 66 -66 219 hintmask 11101101
          408 410 rmoveto
          -13 -102 -23 -133 -50 vvcurveto
          -86 35 -49 90 46 48 15 34 16 -12 14 -4 4 vhcurveto
          -18 -22 -26 -12 -24 hhcurveto
          -41 -24 11 66 50 25 158 12 82 hvcurveto
          48 42 0 1 32 hvcurveto
          -85 callgsubr
          -41 -30 -2 -87 hhcurveto
          3 20 11 52 13 vvcurveto
          25 -19 6 -21 -11 -11 -1 -2 -9 vhcurveto
          -2 -24 -8 -56 -4 -32 rrcurveto
          -238 hlineto
          93 6 27 99 64 hhcurveto
          hintmask 11011110
          26 42 -13 -45 14 -18 callsubr
          -59 17 -47 -126 -51 32 callgsubr
          vhcurveto
          -66 callgsubr
          14 2 25 15 callgsubr
          -6 -79 rcurveline
          hintmask 11101101
          -19 -249 -12 -91 callgsubr
          134 39 callsubr
          endchar
        </CharString>
        <CharString name="g">
          16 -253 50 193 50 384 51 hstem
          106 199 vstem
          181 40 rmoveto
          -46 -29 59 84 125 52 116 94 31 41 -16 -29 31 hvcurveto
          -8 -49 -11 -70 -10 -71 rrcurveto
          -94 -41 -62 -55 -42 hhcurveto
          70 435 rmoveto
          -128 -95 -146 -163 -89 39 -87 94 40 60 21 69 44 hvcurveto
          -184 -12 -49 -99 -102 hhcurveto
          -43 -38 24 38 -12 hvcurveto
          -15 -7 -29 -19 -27 vvcurveto
          -37 56 -22 65 169 49 94 199 20 vhcurveto
          11 107 19 122 36 149 rrcurveto
          43 -57 -67 14 -55 hhcurveto
          endchar
        </CharString>
        <CharString name="germandbls">
          48 -107 -21 118 56 571 56 hstemhm
          182 52 -18 62 82 73 -58 58 -58 72 hintmask 11110001
          234 112 rmoveto
          -29 -7 -23 -13 -30 vvcurveto
          hintmask 11101100
          -42 51 -30 55 85 74 72 79 vhcurveto
          118 -169 37 66 69 155 4 143 vvcurveto
          63 -57 32 -67 -84 -115 -59 -149 -16 vhcurveto
          -43 -409 -32 -123 -46 -12 rrcurveto
          -31 8 17 -18 21 hhcurveto
          46 18 61 33 9 hvcurveto
          13 46 27 202 31 279 rrcurveto
          92 10 74 32 49 hhcurveto
          hintmask 11110010
          38 26 -21 -39 hvcurveto
          -103 -144 -11 -94 -106 159 -17 -102 vvcurveto
          -43 -30 -35 -41 -33 -35 21 45 -2 vhcurveto
          endchar
        </CharString>
        <CharString name="grave">
          -238 546 -21 176 -20 hstem
          -26 619 rmoveto
          -106 callsubr
          endchar
        </CharString>
        <CharString name="greater">
          39 -21 454 -20 hstem
          360 251 rmoveto
          -34 -30 -166 -133 -45 -36 rrcurveto
          -19 8 18 -15 19 hhcurveto
          9 8 3 8 9 hvcurveto
          250 222 -189 210 rlineto
          7 -7 -8 4 -9 hhcurveto
          -21 -22 -18 -16 -10 hvcurveto
          35 -36 148 -143 7 -8 rrcurveto
          endchar
        </CharString>
        <CharString name="greaterequal">
          9 64 -46 -21 474 -20 hstemhm
          hintmask 10100000
          135 51 rmoveto
          -23 14 -19 22 vhcurveto
          36 27 5 53 hhcurveto
          55 53 -4 -4 44 hvcurveto
          3 15 0 3 7 vvcurveto
          18 -9 24 -27 vhcurveto
          -20 -69 -4 -28 hhcurveto
          -49 -50 1 6 -52 hvcurveto
          -3 -9 0 -5 -11 vvcurveto
          223 249 rmoveto
          -30 -24 -133 -88 -40 -29 rrcurveto
          -19 8 18 -20 23 hhcurveto
          hintmask 01100000
          9 10 6 7 8 hvcurveto
          212 167 rlineto
          hintmask 10100000
          -212 167 rlineto
          6 -8 -10 7 -9 hhcurveto
          -21 -20 -18 -21 -8 hvcurveto
          40 -29 155 -106 8 -6 rrcurveto
          endchar
        </CharString>
        <CharString name="guillemotleft">
          33 10 callgsubr
          328 235 rmoveto
          -78 callsubr
          -189 hmoveto
          -78 callsubr
          endchar
        </CharString>
        <CharString name="guillemotright">
          34 10 callgsubr
          334 235 rmoveto
          -78 callgsubr
          -189 hmoveto
          -78 callgsubr
          endchar
        </CharString>
        <CharString name="guilsinglleft">
          -156 10 callgsubr
          139 235 rmoveto
          -78 callsubr
          endchar
        </CharString>
        <CharString name="guilsinglright">
          -155 10 callgsubr
          145 235 rmoveto
          -78 callgsubr
          endchar
        </CharString>
        <CharString name="h">
          26 31 callsubr
          268 -20 hstemhm
          46 78 4 76 108 69 -32 70 hintmask 11111010
          164 382 rmoveto
          10 59 30 184 54 vvcurveto
          hintmask 11111100
          33 -11 30 -32 -29 -22 9 callsubr
          4 -24 -24 -61 -82 -480 -67 vvcurveto
          hintmask 11111010
          -79 callgsubr
        </CharString>
        <CharString name="hungarumlaut">
          -89 545 -21 178 -20 hstemhm
          -8 193 -15 193 hintmask 11100000
          333 619 rmoveto
          -10 callgsubr
          15 callsubr
          -178 hmoveto
          -10 callgsubr
          hintmask 11010000
          15 callsubr
          endchar
        </CharString>
        <CharString name="hyphen">
          -215 233 -8 callsubr
          25 194 hintmask 01110000
          hintmask 10010000
          218 297 rmoveto
          -5 -22 -29 -2 -23 -37 -32 4 -9 hhcurveto
          hintmask 01110000
          -32 -9 -26 -28 hvcurveto
          hintmask 10010000
          -5 0 -5 1 -5 vhcurveto
          7 31 27 1 22 34 21 -5 16 hhcurveto
          hintmask 01110000
          30 12 32 26 -22 callsubr
          endchar
        </CharString>
        <CharString name="i">
          -238 11 callgsubr
          32 callsubr
          42 69 -24 24 -24 76 -76 101 hintmask 11101000
          132 521 rmoveto
          hintmask 11110000
          -73 callgsubr
          -101 callgsubr
          hvcurveto
          -12 -47 -81 callgsubr
          vvcurveto
          hintmask 11100100
          -86 -45 6 callsubr
          -91 callsubr
          hintmask 11100010
          -51 callsubr
          50 52 192 70 vvcurveto
          33 -11 30 -32 vhcurveto
          endchar
        </CharString>
        <CharString name="iacute">
          -239 11 callgsubr
          214 -20 hstemhm
          46 69 -32 32 hintmask 11110000
          116 474 -31 callgsubr
          -37 -111 -93 vvcurveto
          -89 callgsubr
          89 130 rmoveto
          -67 callsubr
          18 -11 13 2 callgsubr
          -96 callgsubr
          hintmask 11101000
          -11 5 -10 8 -8 vhcurveto
          hintmask 11110000
          27 20 82 31 50 28 rrcurveto
          endchar
        </CharString>
        <CharString name="icircumflex">
          -239 11 callgsubr
          205 -20 hstemhm
          46 69 -32 32 hintmask 11101000
          139 679 -57 callgsubr
          -23 -205 -31 callgsubr
          -37 -111 -93 vvcurveto
          -42 callsubr
        </CharString>
        <CharString name="idieresis">
          -238 11 callgsubr
          32 callsubr
          -8 99 -49 69 -24 24 -24 76 -4 99 hintmask 11110001
          120 474 rmoveto
          -20 callgsubr
          -91 callsubr
          -25 17 -7 22 24 50 52 192 70 vvcurveto
          33 -11 30 -32 vhcurveto
          hintmask 11100101
          -85 47 rmoveto
          hintmask 11101001
          -101 callsubr
          hintmask 11100010
          -73 callgsubr
          -101 callgsubr
          hvcurveto
          endchar
        </CharString>
        <CharString name="igrave">
          -239 11 callgsubr
          227 -20 hstemhm
          83 32 -32 76 hintmask 11110000
          116 474 -31 callgsubr
          -37 -111 -93 vvcurveto
          -89 callgsubr
          -92 145 rmoveto
          hintmask 11101000
          -106 callsubr
          endchar
        </CharString>
        <CharString name="infinity">
          294 114 54 185 55 hstem
          40 60 533 60 vstem
          633 264 rmoveto
          -56 -38 -40 -54 -38 -49 36 60 -52 vhcurveto
          9 9 rlineto
          31 31 48 49 52 hhcurveto
          49 42 -32 -57 hvcurveto
          -441 -96 rmoveto
          -53 -39 42 47 52 35 44 51 71 65 -83 -15 11 hvcurveto
          -38 -37 -49 -49 -55 hhcurveto
          -4 240 rmoveto
          -84 -64 -63 -85 -83 63 -63 81 75 59 54 48 47 hvcurveto
          -69 67 50 -33 59 hhcurveto
          77 75 52 96 84 -60 62 -82 -77 -54 -54 -52 -52 hvcurveto
          56 -51 -54 50 -75 hhcurveto
          endchar
        </CharString>
        <CharString name="integral">
          -130 -175 55 804 55 hstem
          148 400 rmoveto
          -19 -133 1 -110 -18 -125 rrcurveto
          -67 -9 -21 -85 -42 hhcurveto
          -23 -10 19 28 -7 hvcurveto
          -27 -2 -33 -20 -34 vvcurveto
          -26 20 -20 36 100 76 105 240 28 vhcurveto
          44 378 rlineto
          67 8 19 69 36 hhcurveto
          24 10 -19 -28 7 hvcurveto
          27 2 34 22 32 vvcurveto
          26 -21 20 -36 -103 -70 -116 -223 -31 vhcurveto
          endchar
        </CharString>
        <CharString name="j">
          -221 -253 50 698 -21 32 callsubr
          100 76 -76 101 hintmask 11110000
          145 521 rmoveto
          -73 callgsubr
          -101 callgsubr
          hvcurveto
          -12 -47 -81 callgsubr
          vvcurveto
          hintmask 11101000
          -68 -32 -205 -21 -128 vhcurveto
          -117 -19 -40 -56 -65 hhcurveto
          -35 -32 24 38 -10 hvcurveto
          -15 -7 -29 -19 -27 vvcurveto
          -37 50 -22 58 142 47 109 135 21 vhcurveto
          14 87 42 280 53 vvcurveto
          33 -11 30 -32 vhcurveto
          endchar
        </CharString>
        <CharString name="j_alt">
          -213 -222 59 658 -21 32 callsubr
          93 76 -76 101 hintmask 11110000
          138 521 rmoveto
          -73 callgsubr
          -101 callgsubr
          hvcurveto
          -55 -255 rmoveto
          -12 -83 -17 -141 -6 -45 -6 -44 -5 -46 -12 -25 rrcurveto
          hintmask 11101000
          -32 -15 -22 -13 -29 hhcurveto
          -12 -14 3 4 -14 hvcurveto
          -4 -12 -2 -10 -9 vvcurveto
          -24 16 -11 35 78 48 75 78 12 vhcurveto
          48 321 rlineto
          11 71 8 64 24 -48 callgsubr
          -24 -4 -37 -6 -44 vhcurveto
          endchar
        </CharString>
        <CharString name="k">
          13 -10 65 140 38 191 50 268 -20 hstemhm
          46 78 -1 76 155 79 hintmask 11110110
          158 371 rmoveto
          6 50 35 204 54 -48 callgsubr
          -38 -8 -72 -27 -194 vhcurveto
          -14 -104 -28 -172 -28 vvcurveto
          -73 callsubr
          88 30 79 63 42 hhcurveto
          42 16 -35 -37 -60 -43 -59 -65 -17 -18 4 9 -20 hvcurveto
          -8 -9 -5 -9 -9 vvcurveto
          -12 9 -4 14 -5 vhcurveto
          -86 36 36 -122 79 hhcurveto
          35 29 12 30 hvcurveto
          hintmask 11111010
          7 -2 9 -2 10 vhcurveto
          -2 -10 -9 -1 -9 hhcurveto
          -22 -19 6 23 -17 hvcurveto
          -21 28 -17 43 -17 40 rrcurveto
          98 7 64 95 76 vvcurveto
          55 -38 46 -76 -42 -66 -20 -83 -53 vhcurveto
          endchar
        </CharString>
        <CharString name="l">
          -235 11 -21 752 -20 hstem
          46 69 3 76 vstem
          151 742 -81 callgsubr
          -84 -72 -382 -92 vvcurveto
          -87 callsubr
          50 79 460 70 vvcurveto
          33 -11 30 -32 vhcurveto
          endchar
        </CharString>
        <CharString name="less">
          39 -21 454 -20 hstem
          206 251 rmoveto
          9 8 190 143 45 36 rrcurveto
          16 -6 -18 18 -21 hhcurveto
          -9 -8 -4 -7 -9 hvcurveto
          -249 -210 188 -222 rlineto
          -8 7 8 -3 9 hhcurveto
          19 22 15 19 12 hvcurveto
          -35 36 -128 133 -26 30 rrcurveto
          endchar
        </CharString>
        <CharString name="lessequal">
          14 55 -42 -21 474 -20 hstemhm
          hintmask 10100000
          442 51 rmoveto
          11 0 5 -3 9 vhcurveto
          -6 -52 -50 -1 -49 -28 -69 4 -20 hhcurveto
          -21 callgsubr
          -7 0 -3 3 -15 hvcurveto
          4 44 53 4 55 53 27 -5 36 hhcurveto
          22 14 19 23 hvcurveto
          -223 249 rmoveto
          8 6 155 106 40 29 rrcurveto
          hintmask 01100000
          21 -8 -20 18 -21 hhcurveto
          hintmask 10100000
          -9 -10 -7 -6 -8 hvcurveto
          -212 -167 212 -167 rlineto
          -7 8 10 -6 9 hhcurveto
          23 18 20 19 8 hvcurveto
          -40 29 -133 88 -30 24 rrcurveto
          endchar
        </CharString>
        <CharString name="logicalnot">
          72 -21 221 52 hstem
          414 60 vstem
          473 324 rmoveto
          -355 hlineto
          -32 -10 -17 -20 -11 3 -9 4 -10 hvcurveto
          12 35 50 3 15 hhcurveto
          231 -36 hlineto
          -57 0 -64 -17 -56 vhcurveto
          -5 10 13 -3 11 hhcurveto
          36 8 16 35 hvcurveto
          endchar
        </CharString>
        <CharString name="lozenge">
          53 21 -21 686 -20 hstem
          419 343 rmoveto
          -200 -296 -116 296 199 296 rlineto
          -262 -296 rmoveto
          130 -325 rlineto
          -15 6 17 -3 19 hhcurveto
          18 19 5 13 11 hvcurveto
          222 325 -131 325 rlineto
          14 -5 -19 4 -18 hhcurveto
          -19 -19 -4 -14 -10 hvcurveto
          endchar
        </CharString>
        <CharString name="lslash">
          -226 11 -21 752 -20 hstem
          55 69 13 76 vstem
          170 742 -81 callgsubr
          vvcurveto
          -41 -29 -167 -11 -61 vhcurveto
          -122 -85 rlineto
          22 callgsubr
          37 28 27 23 38 27 rrcurveto
          -17 -94 -13 -88 -37 vvcurveto
          -87 callsubr
          vvcurveto
          23 20 113 20 121 vhcurveto
          129 90 19 callgsubr
          -38 -30 -30 -24 -41 -30 rrcurveto
          19 115 18 108 31 vvcurveto
          33 -11 30 -32 vhcurveto
          endchar
        </CharString>
        <CharString name="m">
          266 31 callsubr
          hstemhm
          46 78 -34 73 133 78 178 71 -34 70 hintmask 11101010
          395 273 rmoveto
          80 25 73 70 48 hhcurveto
          30 18 -30 -46 hvcurveto
          -47 -37 -141 -78 vvcurveto
          -42 6 -49 44 -91 callsubr
          -24 17 -6 22 24 46 36 13 callsubr
          -35 53 -65 -49 -66 -39 -69 -38 vhcurveto
          62 -5 -34 46 -60 hhcurveto
          hintmask 11101100
          -47 -60 -33 -65 -40 hvcurveto
          2 12 1 12 12 vvcurveto
          -9 callsubr
          15 -4 6 -27 -23 -49 -44 -252 -37 vvcurveto
          -83 callsubr
          hintmask 11011010
          52 7 54 14 107 vhcurveto
          80 25 71 70 48 hhcurveto
          27 22 -24 -51 hvcurveto
          -38 -42 -244 -35 vvcurveto
          hintmask 11101100
          -73 callsubr
          endchar
        </CharString>
        <CharString name="macron">
          -89 557 58 -43 -21 hstemhm
          hintmask 10000000
          226 609 rmoveto
          hintmask 01000000
          -30 -55 6 -10 hhcurveto
          hintmask 10000000
          -32 -2 -37 -27 hvcurveto
          5 35 49 1 14 hhcurveto
          hintmask 01000000
          21 hlineto
          hintmask 10000000
          50 47 -6 9 hhcurveto
          34 1 38 26 hvcurveto
          -4 -32 -38 -2 -40 hhcurveto
          endchar
        </CharString>
        <CharString name="minus">
          223 -8 callsubr
          hintmask 01100000
          486 257 rmoveto
          hintmask 10000000
          -44 callsubr
          vhcurveto
          hintmask 01100000
          -6 -52 -90 -1 -49 -14 callsubr
          hintmask 01100000
          -67 callgsubr
          endchar
        </CharString>
        <CharString name="mu">
          34 -233 -21 244 51 434 -20 hstem
          9 67 285 72 vstem
          312 88 rmoveto
          -2 -12 -1 -12 -12 vvcurveto
          -33 9 -29 32 29 22 36 15 2 vhcurveto
          -16 4 -4 24 24 vvcurveto
          32 22 138 11 68 vhcurveto
          -68 callgsubr
          -99 rrcurveto
          -80 -27 -75 -70 -51 hhcurveto
          -32 -19 30 46 hvcurveto
          52 40 209 36 vvcurveto
          33 -11 28 -32 -29 -22 -36 -15 -2 vhcurveto
          17 -4 3 -26 -24 -90 -78 -351 -92 vvcurveto
          -42 6 -49 44 -91 callsubr
          -25 12 -9 36 40 vvcurveto
          52 14 60 10 34 vhcurveto
          -26 17 23 -10 24 hhcurveto
          56 64 54 44 28 hvcurveto
          endchar
        </CharString>
        <CharString name="multiply">
          67 -21 413 -20 hstem
          327 252 rmoveto
          33 33 84 74 25 26 rrcurveto
          7 7 3 7 9 vvcurveto
          21 -20 21 -17 9 vhcurveto
          -33 -41 -114 -117 -8 -8 -51 54 -67 74 -14 14 rrcurveto
          8 -8 -8 3 -8 hhcurveto
          -23 -17 -22 -16 -10 hvcurveto
          40 -35 75 -72 50 -48 -57 -53 -71 -65 -15 -15 rrcurveto
          -7 -7 -3 -8 -8 vvcurveto
          -25 19 -13 19 -13 vhcurveto
          35 43 67 71 53 52 33 -33 74 -84 26 -25 rrcurveto
          -7 7 8 -3 8 hhcurveto
          23 18 20 17 10 hvcurveto
          -41 33 -117 114 -8 8 rrcurveto
          endchar
        </CharString>
        <CharString name="n">
          26 31 callsubr
          hstemhm
          46 78 -34 73 149 69 -32 70 hintmask 11100100
          -27 callgsubr
          hintmask 11101000
          -42 6 -49 44 29 16 26 20 6 vhcurveto
          -41 callsubr
          hintmask 11010100
          -9 callsubr
          28 callgsubr
          hintmask 11101000
          -73 callsubr
          endchar
        </CharString>
        <CharString name="nine">
          -9 60 222 57 285 59 hstem
          106 75 246 71 vstem
          285 330 rmoveto
          -62 -42 43 73 81 49 88 89 85 23 -67 -83 -24 -2 -26 -3 -25 hvcurveto
          -42 -49 -48 -18 -40 hhcurveto
          49 344 rmoveto
          -136 -92 -129 -116 -98 68 -58 85 49 54 19 42 52 hvcurveto
          -146 -30 -90 -137 -143 hhcurveto
          -12 -13 2 2 -13 hvcurveto
          -4 -12 -3 -13 -12 vvcurveto
          -16 6 -11 27 224 135 262 215 112 -39 94 -125 vhcurveto
          endchar
        </CharString>
        <CharString name="nineoldstyle">
          -2 -159 57 166 55 300 56 hstem
          36 71 237 68 vstem
          259 475 rmoveto
          -139 -84 -144 -121 -80 38 -66 104 22 23 4 10 21 hvcurveto
          13 6 7 11 13 vvcurveto
          8 -3 7 -5 8 vhcurveto
          -8 -18 -18 -4 -18 hhcurveto
          -55 -40 36 77 85 48 102 89 75 25 -57 -76 -160 -100 -228 -182 -13 -13 1 3 -14 hvcurveto
          -5 -9 -4 -12 -11 vvcurveto
          -15 9 -14 27 218 145 258 198 101 -41 77 -112 vhcurveto
          endchar
        </CharString>
        <CharString name="notequal">
          -27 -21 172 57 135 65 177 -20 hstem
          486 158 24 callgsubr
          -4 callsubr
          hhcurveto
          -18 hlineto
          78 141 rlineto
          -3 39 35 -3 24 hhcurveto
          22 14 19 23 -44 callsubr
          hvcurveto
          -26 -3 -36 -2 -35 -1 70 125 rcurveline
          4 7 2 7 6 vvcurveto
          20 -26 10 -20 1 vhcurveto
          -24 -51 -31 -61 -36 -65 rrcurveto
          -33 hlineto
          -74 -73 7 21 callgsubr
          4 44 52 4 105 hhcurveto
          -79 -141 rlineto
          2 -42 -35 3 -12 -19 callsubr
          24 2 24 3 39 1 -67 -119 rcurveline
          -4 -8 -2 -5 -6 vvcurveto
          -20 24 -9 22 -3 vhcurveto
          28 58 18 34 41 74 3 6 rcurveline
          52 hlineto
          53 67 -8 36 hhcurveto
          22 14 19 23 hvcurveto
          endchar
        </CharString>
        <CharString name="ntilde">
          36 31 callsubr
          56 27 callsubr
          46 78 -34 73 149 69 -32 80 hintmask 11101010
          -27 callgsubr
          -42 6 -49 44 -91 callsubr
          hintmask 11011010
          -41 callsubr
          -9 callsubr
          hintmask 11101001
          28 callgsubr
          -23 10 -11 29 11 20 3 5 11 vhcurveto
          hintmask 11100110
          -2 17 -1 19 19 vvcurveto
          52 7 54 14 107 vhcurveto
          206 316 rmoveto
          -35 -35 45 -36 hhcurveto
          -49 -60 -47 -37 -7 5 -6 8 -4 hvcurveto
          hintmask 11101010
          31 34 21 11 10 37 29 -45 41 hhcurveto
          48 60 46 38 12 -13 5 0 hvcurveto
          -20 -19 -31 -22 -15 hhcurveto
          endchar
        </CharString>
        <CharString name="numbersign">
          41 239 -67 67 110 52 -52 223 hstemhm
          hintmask 10100000
          311 220 rmoveto
          -32 callgsubr
          16 59 6 27 rrcurveto
          -2 42 38 42 callgsubr
          -41 -3 -41 -2 -48 -2 11 45 8 27 12 42 rrcurveto
          hintmask 01100000
          -2 42 39 42 callgsubr
          hintmask 10010000
          -41 -3 -38 -2 -48 -2 rrcurveto
          37 callgsubr
          vhcurveto
          hintmask 10100000
          -5 -7 0 -3 -14 hvcurveto
          -6 -39 -22 -82 -10 -47 rrcurveto
          hintmask 10010000
          -108 hlineto
          37 callgsubr
          -5 -7 0 -3 -14 vhcurveto
          -6 -39 -22 -82 -10 -47 rrcurveto
          1 -29 -32 16 callgsubr
          hintmask 10100000
          42 12 42 4 42 2 -30 -116 rcurveline
          1 -29 -34 16 callgsubr
          42 12 42 4 42 2 rrcurveto
          -32 callgsubr
          17 62 6 27 rrcurveto
          31 hlineto
          28 27 0 -1 24 hvcurveto
          -96 52 rmoveto
          10 43 10 35 12 40 rrcurveto
          29 hlineto
          28 27 0 -1 25 hvcurveto
          -14 -60 -10 -37 -6 -19 rrcurveto
          -24 -1 -87 0 0 vvcurveto
          endchar
        </CharString>
        <CharString name="o">
          36 -54 callgsubr
          -23 callsubr
          203 -10 -102 callsubr
          endchar
        </CharString>
        <CharString name="oacute">
          36 -54 callgsubr
          214 -20 -23 callsubr
          203 -10 -102 callsubr
          129 180 rmoveto
          -106 callgsubr
          endchar
        </CharString>
        <CharString name="ocircumflex">
          36 -54 callgsubr
          205 -20 -23 callsubr
          300 679 rmoveto
          -104 callgsubr
          -97 -689 -102 callsubr
          endchar
        </CharString>
        <CharString name="odieresis">
          36 -54 callgsubr
          32 callsubr
          29 78 44 40 callsubr
          -50 79 hintmask 11111100
          203 -10 -102 callsubr
          -68 97 rmoveto
          -73 callgsubr
          28 -19 21 -24 hvcurveto
          hintmask 11111010
          -29 -27 -26 -34 -74 callsubr
          hvcurveto
          -25 callgsubr
        </CharString>
        <CharString name="oe">
          316 -10 50 145 43 196 50 hstem
          29 78 260 75 205 78 vstem
          647 -29 callsubr
          -385 65 rmoveto
          70 35 -70 -88 -111 -53 -115 -101 -70 -36 68 86 -45 callsubr
          hvcurveto
          392 -322 rmoveto
          -46 -30 -37 -16 -38 hhcurveto
          -57 -44 43 104 -6 hvcurveto
          -1 10 11 -1 12 hhcurveto
          69 181 14 171 57 -41 47 -83 -59 -69 -29 -71 -49 hvcurveto
          67 -25 -56 33 -75 hhcurveto
          -141 -98 -131 -162 -119 65 -72 109 72 63 35 65 45 hvcurveto
          -71 27 55 -29 81 hhcurveto
          35 callsubr
          endchar
        </CharString>
        <CharString name="ogonek">
          -89 -219 40 194 -20 hstemhm
          95 61 -61 176 hintmask 11010000
          241 15 rmoveto
          hintmask 11100000
          -82 -35 -64 -44 -82 vvcurveto
          -54 41 -19 42 46 47 21 27 9 -6 8 -14 9 vhcurveto
          -26 -19 -21 -8 -18 hhcurveto
          -21 -16 15 28 53 25 45 85 45 hvcurveto
          endchar
        </CharString>
        <CharString name="ograve">
          36 -54 callgsubr
          227 -20 -23 callsubr
          203 -10 -102 callsubr
          -103 195 rmoveto
          -106 callsubr
          endchar
        </CharString>
        <CharString name="one">
          0 57 -38 -21 675 -20 hstemhm
          109 196 hintmask 10110000
          305 54 rmoveto
          2 55 6 62 11 78 8 62 rcurveline
          hintmask 01110000
          21 166 30 143 22 vvcurveto
          24 -19 7 -15 -13 -63 -9 -7 -45 vhcurveto
          -28 -4 -12 -18 -2 -21 rrcurveto
          -1 -7 0 -7 -8 vvcurveto
          31 6 60 5 28 3 -7 -74 -12 -94 -11 -84 -18 -134 -16 -106 -7 -57 rrcurveto
          -64 hlineto
          -42 -18 -14 -28 -5 1 -5 1 -6 hvcurveto
          1 29 47 0 25 70 56 -2 24 hhcurveto
          32 11 22 22 5 -1 6 -1 5 hvcurveto
          -3 -25 -41 -1 -32 hhcurveto
          endchar
        </CharString>
        <CharString name="onehalf">
          453 -86 -21 108 52 168 51 129 51 221 -20 87 -20 hstem
          741 66 vstem
          570 328 -35 callgsubr
          -30 callgsubr
          -57 callsubr
          -364 -51 rmoveto
          -24 callgsubr
          -8 callgsubr
          -97 callsubr
          -48 -325 -93 callgsubr
          endchar
        </CharString>
        <CharString name="oneoldstyle">
          -143 0 57 -38 -21 477 -20 hstemhm
          hintmask 10100000
          175 54 rmoveto
          38 5 43 7 54 vhcurveto
          20 156 21 75 25 vvcurveto
          hintmask 01100000
          24 -18 6 -14 -14 -43 -7 -10 -47 vhcurveto
          -31 -7 -7 -18 -22 vvcurveto
          -4 0 -4 1 -4 vhcurveto
          31 6 36 4 32 4 -13 -122 -15 -116 -20 -118 rrcurveto
          -45 hlineto
          -41 -20 -13 -27 -6 1 -7 2 -5 hvcurveto
          1 29 27 0 26 68 37 -2 23 hhcurveto
          32 11 23 22 6 -1 5 -1 4 hvcurveto
          -2 -21 -26 -2 -32 hhcurveto
          endchar
        </CharString>
        <CharString name="onequarter">
          399 -86 -21 97 193 -54 54 38 51 401 -20 87 -20 hstemhm
          630 65 -65 148 hintmask 10111110
          512 185 rmoveto
          72 101 39 30 55 56 -7 -55 -7 -39 -12 -95 rrcurveto
          -102 -7 0 2 -31 hvcurveto
          172 256 rmoveto
          -57 -47 -111 -117 -56 -82 rrcurveto
          -3 -11 -2 -13 -11 vvcurveto
          -13 4 -10 10 -1 vhcurveto
          -6 46 44 -1 48 hhcurveto
          37 hlineto
          -6 -49 -8 -23 -32 vvcurveto
          -23 9 -12 29 12 9 3 5 10 vhcurveto
          -3 16 -1 17 19 vvcurveto
          22 2 25 4 33 vhcurveto
          44 1 33 0 44 vvcurveto
          10 -2 8 -2 7 vhcurveto
          -15 -7 -17 -3 -33 -2 20 154 20 93 2 15 rrcurveto
          20 callgsubr
          -478 -164 rmoveto
          hintmask 11011110
          -24 callgsubr
          -8 callgsubr
          hintmask 11011101
          -97 callsubr
          -48 -325 -93 callgsubr
          endchar
        </CharString>
        <CharString name="onesuperior">
          -95 221 51 -32 -21 454 -20 hstemhm
          hintmask 10100000
          206 277 rmoveto
          hintmask 01100000
          -24 callgsubr
          hintmask 10100000
          -8 callgsubr
          -97 callsubr
          endchar
        </CharString>
        <CharString name="ordfeminine">
          -130 264 37 -24 -21 120 33 200 34 hstemhm
          12 230 -194 48 -20 184 -45 45 hintmask 10110101
          140 -62 callsubr
          hintmask 10111000
          -37 272 rmoveto
          26 14 27 10 18 hhcurveto
          40 13 -14 -32 -9 -1 -11 -2 -13 hvcurveto
          -29 -1 -47 -5 -29 -8 rrcurveto
          -45 -13 -14 -27 -38 vvcurveto
          hintmask 10110010
          -49 35 -13 40 vhcurveto
          hintmask 01111000
          22 28 10 18 23 hvcurveto
          -15 5 -9 19 10 12 3 1 2 vhcurveto
          -1 9 -1 10 10 46 18 82 36 vvcurveto
          51 -31 15 -54 -42 -57 -17 -31 -10 11 -8 16 -4 vhcurveto
          hintmask 10111000
          105 -70 rmoveto
          -4 -15 -2 -17 -2 -12 -4 -25 rcurveline
          hintmask 01111000
          -15 -16 -24 -10 -21 hhcurveto
          hintmask 10111000
          -22 -17 11 26 48 47 0 65 9 hvcurveto
          endchar
        </CharString>
        <CharString name="ordmasculine">
          -96 264 37 -24 -21 120 35 197 35 hstemhm
          43 46 153 45 hintmask 10111100
          148 -62 callsubr
          hintmask 01111100
          -1 75 rmoveto
          88 52 76 81 68 -39 42 -66 -89 -50 -78 -81 -66 40 -42 64 hvcurveto
          hintmask 10111100
          4 35 rmoveto
          -42 -20 36 48 64 33 49 56 hvcurveto
          hintmask 01111100
          43 21 -36 -49 hvcurveto
          hintmask 10111100
          -65 -35 -47 -56 vhcurveto
          endchar
        </CharString>
        <CharString name="oslash">
          46 -64 -21 75 50 384 50 83 -20 -23 callsubr
          351 356 rmoveto
          9 -25 7 -32 -33 vvcurveto
          -111 -53 -115 -101 -22 -20 8 11 -14 vhcurveto
          105 365 rmoveto
          25 20 -9 -16 16 hvcurveto
          -198 -297 rlineto
          -12 25 -6 32 35 vvcurveto
          -45 callsubr
          vhcurveto
          -59 -434 rmoveto
          139 104 129 162 60 -20 50 -31 33 hvcurveto
          53 83 rlineto
          6 8 2 8 6 vvcurveto
          18 -15 9 -21 1 vhcurveto
          -18 -31 -21 -35 -23 -37 rrcurveto
          13 -26 -30 7 -34 hhcurveto
          -141 -98 -131 -162 -63 21 -51 33 -33 hvcurveto
          -46 -69 rlineto
          -5 -8 -3 -8 -6 vvcurveto
          -17 14 -10 22 -1 vhcurveto
          59 91 rlineto
          -10 23 26 -6 30 hhcurveto
          endchar
        </CharString>
        <CharString name="otilde">
          36 -54 callgsubr
          56 27 callsubr
          29 78 260 79 hintmask 11101100
          203 -10 rmoveto
          139 104 129 162 120 -67 73 -111 hvcurveto
          hintmask 11011100
          -141 -98 -131 -162 -119 65 -72 109 hvcurveto
          59 434 rmoveto
          70 35 -70 -88 -111 -53 -115 -101 -70 -36 68 86 hvcurveto
          hintmask 11101100
          -45 callsubr
          vhcurveto
          94 165 -99 callsubr
        </CharString>
        <CharString name="p">
          36 -232 -21 243 49 385 50 1 -20 hstemhm
          13 69 8 76 202 78 hintmask 11011110
          151 37 callsubr
          30 -58 -85 -157 -75 -85 -79 hvcurveto
          hintmask 11101110
          16 callsubr
          -28 181 rmoveto
          -29 -22 -36 -15 -2 hvcurveto
          17 -4 3 -26 -24 -90 -77 -343 -112 vvcurveto
          hintmask 11011110
          -42 4 -36 38 19 20 18 24 15 vhcurveto
          hintmask 11101110
          -20 24 -7 16 24 vvcurveto
          19 11 76 30 callsubr
          115 123 185 127 -63 49 -75 -53 -52 -31 -60 -39 hvcurveto
          1 12 1 10 7 vvcurveto
          33 -11 30 -32 vhcurveto
          endchar
        </CharString>
        <CharString name="paragraph">
          33 -119 65 568 61 hstem
          243 235 rmoveto
          13 91 20 126 16 64 rrcurveto
          9 -2 46 0 0 vvcurveto
          -12 -56 -24 -129 -19 -133 rrcurveto
          -85 -13 17 -165 -111 hhcurveto
          -17 -17 4 8 -19 hvcurveto
          -6 -12 -3 -11 -10 vvcurveto
          -27 27 -17 35 113 38 120 114 13 vhcurveto
          13 115 33 180 22 104 rrcurveto
          22 hlineto
          43 20 12 28 6 -1 5 -1 7 hvcurveto
          -1 -31 -29 0 -27 -48 -78 4 -19 hhcurveto
          -109 -99 -85 -128 -89 60 -55 76 12 33 0 17 2 hvcurveto
          endchar
        </CharString>
        <CharString name="parenleft">
          -107 -182 -21 934 -20 hstem
          82 72 vstem
          237 -180 rmoveto
          -50 69 -33 119 138 vvcurveto
          205 83 229 125 128 vhcurveto
          16 -9 -10 7 -11 hhcurveto
          -62 -188 -290 -283 -200 76 -161 43 11 12 7 16 13 hvcurveto
          endchar
        </CharString>
        <CharString name="parenright">
          -107 -182 -21 934 -20 hstem
          178 71 vstem
          94 708 rmoveto
          55 -73 29 -128 -128 vvcurveto
          -201 -81 -227 -127 -131 vhcurveto
          -16 9 10 -7 11 hhcurveto
          53 196 272 298 196 -75 168 -44 -11 -12 -7 -16 -13 hvcurveto
          endchar
        </CharString>
        <CharString name="partialdiff">
          63 -10 56 300 55 212 60 hstem
          30 69 301 67 vstem
          271 346 rmoveto
          39 41 -17 -33 36 hvcurveto
          -119 -24 -66 -131 -111 hhcurveto
          -62 -25 42 53 112 83 93 89 hvcurveto
          -125 252 rmoveto
          10 34 31 5 27 hhcurveto
          107 55 -73 -128 -21 -1 -22 -3 -23 hvcurveto
          37 -41 -49 18 -47 hhcurveto
          -121 -108 -115 -139 -84 43 -73 105 201 88 240 176 163 -81 104 -183 -41 -21 -14 -30 -9 1 -10 4 -12 hvcurveto
          endchar
        </CharString>
        <CharString name="percent">
          273 -34 callgsubr
          hintmask 0111111111000000
          485 -10 -86 callgsubr
          -46 callsubr
          -418 -248 -70 callsubr
          rrcurveto
          329 455 21 18 18 vvcurveto
          17 -20 12 -19 1 vhcurveto
          -398 -359 rmoveto
          95 62 91 110 hvcurveto
          hintmask 1011111111000000
          82 -42 49 -72 -95 -63 -89 -111 -81 42 -51 73 vhcurveto
          37 283 rmoveto
          40 17 -45 -49 -66 -33 -73 -55 -46 callsubr
          endchar
        </CharString>
        <CharString name="percentoldstyle">
          335 -34 callsubr
          hintmask 1110111111000000
          532 -10 -60 callsubr
          -84 callgsubr
          hvcurveto
          hintmask 1101111111000000
          -72 37 -45 65 vhcurveto
          -28 callgsubr
        </CharString>
        <CharString name="period">
          -235 -10 127 hstem
          30 115 vstem
          80 -10 rmoveto
          -90 callgsubr
          endchar
        </CharString>
        <CharString name="periodcentered">
          -264 197 127 hstem
          35 115 vstem
          85 197 rmoveto
          -90 callgsubr
          endchar
        </CharString>
        <CharString name="perthousand">
          597 -34 callgsubr
          52 62 147 63 hintmask 1011111111110000
          104 25 -70 callsubr
          rrcurveto
          329 455 21 18 18 vvcurveto
          17 -20 12 -19 1 vhcurveto
          226 -702 -86 callgsubr
          -46 callsubr
          -361 -283 -86 callgsubr
          -46 callsubr
          -337 60 -86 callgsubr
          hvcurveto
          hintmask 0111111111110000
          -46 callsubr
          endchar
        </CharString>
        <CharString name="perthousandoldstyle">
          635 -34 callsubr
          60 61 118 61 hintmask 1110111111110000
          832 -10 -60 callsubr
          -72 callgsubr
          -331 -249 -60 callsubr
          hintmask 1101111111110000
          -84 callgsubr
          -72 37 -45 65 hvcurveto
          -28 callgsubr
        </CharString>
        <CharString name="pi">
          33 18 -21 417 51 hstem
          270 75 vstem
          24 395 rmoveto
          31 12 30 5 34 1 -3 -21 -10 -106 -19 -148 -4 -33 -9 -57 -25 -43 rrcurveto
          -5 10 12 -3 11 hhcurveto
          34 12 16 36 5 hvcurveto
          49 365 rlineto
          76 hlineto
          20 24 0 -1 24 hvcurveto
          -7 -43 -10 -65 -8 -61 rrcurveto
          -10 -77 -21 -112 -24 vvcurveto
          -23 12 -11 31 12 16 3 5 11 vhcurveto
          -5 14 -2 19 20 vvcurveto
          79 49 256 4 19 vhcurveto
          51 hlineto
          40 18 15 34 8 -2 9 -2 6 hvcurveto
          -19 -46 -57 0 -33 hhcurveto
          -71 hlineto
          -123 -82 2 -13 hhcurveto
          -52 -6 -27 -22 -7 1 -8 3 -8 hvcurveto
          endchar
        </CharString>
        <CharString name="plus">
          44 -21 201 57 200 -20 hstemhm
          258 65 -65 248 hintmask 11110000
          316 280 rmoveto
          47 7 82 36 vvcurveto
          hintmask 11101000
          35 callgsubr
          6 -52 2 -133 -12 vvcurveto
          2 -74 -60 1 callsubr
          64 3 69 1 rrcurveto
          -2 -78 -5 -66 -21 vvcurveto
          -25 22 -11 20 7 8 0 3 15 vhcurveto
          -5 55 -3 68 74 vvcurveto
          47 72 0 callgsubr
          -123 -2 -12 hhcurveto
          endchar
        </CharString>
        <CharString name="plusminus">
          14 57 -44 -21 258 57 -57 217 hstemhm
          79 244 -65 65 -65 238 hintmask 10011000
          hintmask 10101000
          476 48 24 callgsubr
          38 callsubr
          hintmask 10100100
          -50 callsubr
          -67 callgsubr
          -160 272 rmoveto
          hintmask 10100010
          47 7 42 36 vvcurveto
          hintmask 01101000
          35 callgsubr
          hintmask 10101000
          6 -52 2 -93 -12 vvcurveto
          2 -74 -50 1 callsubr
          54 3 69 1 rrcurveto
          -2 -78 -5 -16 -21 vvcurveto
          -25 22 -11 20 vhcurveto
          hintmask 01101000
          7 8 0 3 15 hvcurveto
          -5 55 -3 18 74 vvcurveto
          47 62 0 callgsubr
          -113 -2 -12 hhcurveto
          endchar
        </CharString>
        <CharString name="product">
          214 18 -21 603 62 2 -20 24 -20 hstemhm
          402 87 hintmask 10011000
          677 596 rmoveto
          41 5 34 30 hvcurveto
          8 vlineto
          -4 -66 -81 -2 -86 hhcurveto
          -190 hlineto
          -64 -74 2 -39 hhcurveto
          -48 -15 -14 -42 -8 1 -8 2 -5 hvcurveto
          33 7 35 4 60 2 -3 -27 -4 -92 -41 -278 -9 -64 -10 -71 -28 -63 rrcurveto
          -5 10 18 -3 13 hhcurveto
          36 11 18 39 5 hvcurveto
          6 39 8 74 9 64 52 370 rcurveline
          1 49 61 0 80 hhcurveto
          29 hlineto
          hintmask 11001000
          -52 -371 rlineto
          -10 -74 -19 -105 -18 vvcurveto
          -25 11 -12 32 vhcurveto
          hintmask 10101000
          15 22 3 5 11 hvcurveto
          -3 19 -1 19 20 vvcurveto
          hintmask 11001000
          43 6 45 6 42 vhcurveto
          4 1 2 25 183 vhcurveto
          14 97 20 92 5 29 rrcurveto
          -2 56 43 -2 12 hhcurveto
          endchar
        </CharString>
        <CharString name="q">
          17 -233 -21 244 50 384 50 hstem
          29 78 161 69 vstem
          327 189 rmoveto
          -92 -39 -64 -57 -42 hhcurveto
          -50 -25 68 75 144 63 97 83 32 36 -14 -31 35 hvcurveto
          -8 -49 -11 -70 -10 -71 rrcurveto
          104 228 rmoveto
          43 -58 -66 14 -55 hhcurveto
          -126 -97 -141 -167 -44 callgsubr
          52 53 31 59 39 hvcurveto
          -23 -120 -15 -85 -38 vvcurveto
          -87 callsubr
          vvcurveto
          47 67 409 27 106 vhcurveto
          endchar
        </CharString>
        <CharString name="question">
          -80 -10 127 511 56 hstemhm
          76 115 -90 73 115 73 hintmask 11011000
          141 117 -13 callgsubr
          37 82 rmoveto
          -3 14 -1 12 12 vvcurveto
          92 74 37 55 59 vhcurveto
          hintmask 11101000
          39 42 20 49 44 vvcurveto
          88 -74 36 -75 -76 -77 -37 -57 -21 13 -11 27 -5 vhcurveto
          45 15 57 30 48 hhcurveto
          38 31 -18 -44 -34 -19 -41 -23 -30 hvcurveto
          -55 -71 -91 -55 -97 vvcurveto
          -27 9 -22 28 11 13 3 7 16 vhcurveto
          endchar
        </CharString>
        <CharString name="questiondown">
          -77 -219 56 511 127 hstem
          0 73 115 73 vstem
          221 348 rmoveto
          -90 callgsubr
          -37 -82 rmoveto
          3 -14 1 -12 -12 vvcurveto
          -92 -74 -37 -55 -59 vhcurveto
          -39 -42 -20 -49 -44 vvcurveto
          -88 74 -36 75 76 77 37 57 21 -13 11 -27 5 vhcurveto
          -45 -15 -57 -30 -48 hhcurveto
          -38 -31 18 44 34 19 41 23 30 hvcurveto
          55 71 91 55 97 vvcurveto
          27 -9 22 -28 -11 -13 -3 -7 -16 vhcurveto
          endchar
        </CharString>
        <CharString name="quotedbl">
          -95 485 250 hstem
          118 711 rmoveto
          -79 callsubr
          166 hmoveto
          -79 callsubr
          endchar
        </CharString>
        <CharString name="quotedblbase">
          -24 -143 13 callgsubr
          46 14 callsubr
          82 14 callsubr
          hintmask 11101000
          hintmask 11010100
          90 -12 -88 callsubr
        </CharString>
        <CharString name="quotedblleft">
          -27 23 callsubr
          86 65 -65 111 hintmask 11011000
          410 738 rmoveto
          -39 callsubr
          hintmask 11100100
          -72 callsubr
          -197 hmoveto
          -39 callsubr
          hintmask 11101000
          -72 callsubr
          endchar
        </CharString>
        <CharString name="quotedblright">
          -29 477 13 callgsubr
          116 14 callsubr
          82 14 callsubr
          hintmask 11101000
          hintmask 11010100
          160 608 -88 callsubr
        </CharString>
        <CharString name="quoteleft">
          -224 23 callsubr
          hintmask 11010000
          213 738 rmoveto
          -39 callsubr
          hintmask 11100000
          -72 callsubr
          endchar
        </CharString>
        <CharString name="quoteright">
          -222 477 13 callgsubr
          116 14 callsubr
          hintmask 11100000
          hintmask 11010000
          160 608 rmoveto
          -28 callsubr
          -55 callgsubr
        </CharString>
        <CharString name="quotesinglbase">
          -217 -143 13 callgsubr
          46 14 callsubr
          hintmask 11100000
          hintmask 11010000
          90 -12 rmoveto
          -28 callsubr
          -55 callgsubr
        </CharString>
        <CharString name="quotesingle">
          -261 506 -21 250 -20 hstem
          118 711 rmoveto
          -79 callsubr
          endchar
        </CharString>
        <CharString name="r">
          -107 18 -21 405 72 hstemhm
          45 78 -33 74 hintmask 11010000
          142 256 rmoveto
          42 15 53 104 65 hhcurveto
          16 14 -6 -13 12 hvcurveto
          16 14 10 22 18 vvcurveto
          hintmask 11100000
          20 -12 17 -29 -58 -68 -74 -44 -18 vhcurveto
          hintmask 11010000
          2 12 4 32 12 vvcurveto
          33 -9 29 -32 vhcurveto
          hintmask 11100000
          -90 callsubr
          vvcurveto
          -13 -4 -32 -5 -37 vhcurveto
          -14 -94 -22 -136 -15 callsubr
          5 37 14 107 vhcurveto
          endchar
        </CharString>
        <CharString name="radical">
          118 -11 -21 770 -20 hstem
          298 92 rmoveto
          -124 389 -37 -9 -66 -31 -25 -14 rlinecurve
          -11 -6 -3 -8 -7 vvcurveto
          -10 7 -8 7 -4 vhcurveto
          17 9 37 19 18 7 147 -451 rcurveline
          6 hlineto
          24 14 8 28 10 hvcurveto
          233 684 7 16 15 vvcurveto
          11 -8 8 -19 -6 -6 0 -1 -7 vhcurveto
          endchar
        </CharString>
        <CharString name="registered">
          168 207 50 -50 238 -120 238 -32 32 60 50 hstemhm
          100 59 83 51 84 50 71 59 hintmask 0101111110000000
          498 440 rmoveto
          -112 -77 -71 -92 -93 -77 71 112 112 77 71 93 92 77 -71 -112 vhcurveto
          59 hmoveto
          134 -103 99 -125 -129 -100 -99 -134 -133 100 -100 129 125 103 100 133 vhcurveto
          -147 -80 rmoveto
          -12 13 -23 30 -12 21 rrcurveto
          39 8 25 21 38 vvcurveto
          58 -55 14 -53 -18 -38 -3 -2 -25 vhcurveto
          3 -22 1 -28 -31 vvcurveto
          -69 vlineto
          -19 -2 -32 -9 vvcurveto
          -15 7 -8 24 11 12 1 4 7 vhcurveto
          -8 23 0 23 21 vvcurveto
          26 vlineto
          10 -3 12 0 0 vvcurveto
          hintmask 1010111110000000
          12 -20 26 -33 13 -19 rrcurveto
          -22 15 17 -3 12 hhcurveto
          17 7 5 13 3 0 4 -2 4 hvcurveto
          -10 -5 1 7 -7 hvcurveto
          -90 85 rmoveto
          -10 -7 2 2 -10 hvcurveto
          45 0 25 -1 10 vhcurveto
          1 8 9 1 6 hhcurveto
          36 26 -9 -31 -34 -29 -12 -28 hvcurveto
          endchar
        </CharString>
        <CharString name="ring">
          -89 520 33 112 33 hstem
          158 42 87 43 vstem
          233 520 -80 callgsubr
          endchar
        </CharString>
        <CharString name="s">
          -71 -10 56 373 56 9 callgsubr
          -57 75 hintmask 11010100
          296 354 -35 callsubr
          hintmask 11101000
          -46 callgsubr
          -56 callgsubr
          44 47 -24 -41 9 vhcurveto
          endchar
        </CharString>
        <CharString name="scaron">
          -51 -10 56 373 56 211 -20 9 callgsubr
          -57 75 hintmask 11101010
          212 526 -37 callgsubr
          -92 callgsubr
          84 -172 -35 callsubr
          -46 callgsubr
          -56 callgsubr
          vhcurveto
          hintmask 11110100
          44 47 -24 -41 9 hvcurveto
          endchar
        </CharString>
        <CharString name="section">
          -24 -78 57 637 56 hstemhm
          72 60 -13 58 104 59 -14 60 hintmask 11101000
          132 339 rmoveto
          26 8 23 14 18 vhcurveto
          59 -66 113 0 -83 vvcurveto
          -29 -9 -23 -13 -17 vhcurveto
          -59 62 -113 9 80 vvcurveto
          -60 -28 rmoveto
          -144 209 26 -121 vvcurveto
          -65 -45 -28 -51 -71 -38 26 39 -7 vhcurveto
          -26 -7 -22 -11 -29 vvcurveto
          -44 65 -31 71 vhcurveto
          hintmask 11010100
          91 92 54 120 23 -5 20 -8 16 hvcurveto
          36 32 23 49 48 147 -209 -25 124 vvcurveto
          59 42 27 47 44 48 -24 -41 9 vhcurveto
          34 9 14 15 25 vvcurveto
          hintmask 11100100
          50 -72 22 -47 -93 -84 -59 -106 -27 5 -22 8 -18 vhcurveto
          -35 -31 -25 -46 -52 vvcurveto
          endchar
        </CharString>
        <CharString name="semicolon">
          -218 -143 42 452 127 hstemhm
          30 111 -82 115 -100 67 hintmask 11001000
          109 351 rmoveto
          -16 callsubr
          hvcurveto
          hintmask 11100000
          31 -21 23 -28 -35 -31 -35 -39 -32 22 -21 28 vhcurveto
          -35 -363 rmoveto
          -28 callsubr
          -4 hlineto
          -2 -6 -2 -6 -6 vvcurveto
          hintmask 11001000
          -12 6 -12 16 68 67 111 85 vhcurveto
          hintmask 11010000
          48 -23 19 -26 -33 -29 -26 -33 -8 2 -8 3 -8 vhcurveto
          27 -6 12 -20 -23 vvcurveto
          endchar
        </CharString>
        <CharString name="seven">
          11 -21 602 70 8 -20 hstemhm
          hintmask 11000000
          448 597 rmoveto
          hintmask 10100000
          -63 -133 -189 -306 -133 -129 rrcurveto
          -16 10 27 -23 21 hhcurveto
          hintmask 11000000
          22 21 27 42 27 hvcurveto
          89 138 198 313 34 79 rrcurveto
          8 15 3 17 16 vvcurveto
          9 -1 9 -2 9 vhcurveto
          -2 -48 -26 0 -211 hhcurveto
          -23 -42 1 7 -40 hvcurveto
          -6 -9 -7 -17 -14 vvcurveto
          -22 15 -16 50 50 159 3 2 57 vhcurveto
          endchar
        </CharString>
        <CharString name="sevenoldstyle">
          -40 -137 -21 553 70 8 -20 hstemhm
          hintmask 11000000
          315 400 rmoveto
          hintmask 10100000
          -64 -130 -152 -263 -124 -126 rrcurveto
          -17 12 24 -22 20 hhcurveto
          hintmask 11000000
          18 14 20 31 20 hvcurveto
          91 138 176 283 37 79 rrcurveto
          7 16 5 17 16 vvcurveto
          8 -1 9 -2 8 vhcurveto
          -2 -49 -38 0 -181 hhcurveto
          -23 -42 1 7 -36 hvcurveto
          -6 -10 -8 -17 -15 vvcurveto
          -21 15 -15 47 50 133 3 2 57 vhcurveto
          endchar
        </CharString>
        <CharString name="six">
          -10 59 285 57 222 60 hstem
          82 71 246 75 vstem
          295 334 rmoveto
          62 42 -43 -73 -81 -49 -88 -89 -85 -23 67 83 24 2 26 3 25 hvcurveto
          42 49 48 18 40 hhcurveto
          -50 -344 rmoveto
          136 93 129 116 98 -68 58 -85 -49 -54 -19 -42 -52 hvcurveto
          146 30 90 137 143 hhcurveto
          12 13 -2 -2 12 hvcurveto
          5 10 4 13 12 vvcurveto
          16 -8 13 -27 -222 -136 -260 -215 -112 38 -96 125 vhcurveto
          endchar
        </CharString>
        <CharString name="sixoldstyle">
          -2 -10 56 300 55 166 57 hstem
          25 68 237 71 vstem
          178 -10 rmoveto
          139 84 144 121 80 -37 66 -100 -21 -22 -4 -10 -21 hvcurveto
          -12 -6 -7 -11 -13 vvcurveto
          -8 3 -7 5 -8 vhcurveto
          8 17 17 4 17 hhcurveto
          52 38 -36 -77 -85 -48 -102 -89 -75 -25 57 76 160 100 228 182 13 13 -1 -3 14 hvcurveto
          5 9 4 12 11 vvcurveto
          15 -9 14 -27 -218 -145 -258 -198 -101 41 -77 112 vhcurveto
          endchar
        </CharString>
        <CharString name="slash">
          -196 -101 -21 864 -20 hstem
          246 742 rmoveto
          0 -12 0 -9 -3 vhcurveto
          -15 -65 -23 -81 -25 -86 rrcurveto
          -145 -487 -32 -105 -14 vvcurveto
          -13 5 -10 23 7 8 1 2 9 vhcurveto
          13 64 65 224 27 85 rrcurveto
          1 3 135 440 24 vvcurveto
          16 -12 5 -20 vhcurveto
          endchar
        </CharString>
        <CharString name="space">
          -239 endchar
        </CharString>
        <CharString name="st">
          235 -10 56 364 54 22 -21 31 -21 127 42 9 callgsubr
          -26 26 103 66 -66 219 -165 72 hintmask 1110110100100000
          436 465 rmoveto
          -42 -16 -15 -28 -6 1 -5 1 -7 hvcurveto
          2 22 28 4 34 hhcurveto
          -13 -102 -23 -133 -50 vvcurveto
          -86 35 -49 90 46 48 15 34 16 -12 14 -4 4 vhcurveto
          -18 -22 -26 -12 -24 hhcurveto
          -41 -24 11 66 50 25 158 12 82 hvcurveto
          48 42 0 1 32 hvcurveto
          32 1 16 13 24 vvcurveto
          hintmask 1110110101000000
          6 -1 7 -2 7 vhcurveto
          -3 -41 -30 -2 -87 hhcurveto
          3 20 11 52 13 vvcurveto
          4 vlineto
          51 -3 -58 40 -57 hhcurveto
          -69 -68 43 callsubr
          -24 -29 6 -24 hhcurveto
          hintmask 1101101010010000
          -90 -88 -45 -108 -119 133 11 59 -41 hvcurveto
          17 -12 11 -16 -25 vvcurveto
          -46 callgsubr
          hintmask 1110110100010000
          -56 callgsubr
          44 47 -24 -41 9 vhcurveto
          35 9 12 16 25 14 -12 17 35 vvcurveto
          74 54 58 48 15 34 -4 -28 -12 -12 -76 -1 -17 vhcurveto
          endchar
        </CharString>
        <CharString name="sterling">
          -3 49 -49 125 -97 21 -21 44 263 48 228 67 hstemhm
          188 70 -20 79 -79 204 -204 232 hintmask 1000111000000000
          447 392 rmoveto
          -30 -4 -52 -5 -56 -3 rrcurveto
          -17 56 -34 48 45 vvcurveto
          51 38 28 38 28 25 -14 -26 12 vhcurveto
          hintmask 1000110010000000
          21 9 22 19 25 vvcurveto
          hintmask 1000111000000000
          36 -40 18 -33 -104 -77 -97 -79 -40 19 -40 14 -43 vhcurveto
          -1 -26 -26 -2 -20 hhcurveto
          hintmask 1000110001000000
          -22 -2 -13 -7 -3 -17 rrcurveto
          hintmask 0010111000000000
          -4 0 -5 1 -6 vhcurveto
          2 33 36 2 33 hhcurveto
          20 hlineto
          3 -12 1 -13 -11 vvcurveto
          -79 -44 -57 -88 -91 vhcurveto
          hintmask 0100110001000000
          -52 -9 -19 -23 -19 vvcurveto
          -14 11 -11 15 15 16 9 17 12 vhcurveto
          2 6 4 0 3 76 42 -28 102 hhcurveto
          55 78 21 59 28 -15 17 -38 hvcurveto
          hintmask 1000111000000000
          -6 hlineto
          -43 -47 -33 -45 vhcurveto
          hintmask 0001110100000000
          -77 -42 19 4 -53 hvcurveto
          141 103 29 62 94 vvcurveto
          6 vlineto
          -1 26 23 -1 21 hhcurveto
          44 18 10 30 6 -1 7 -1 7 hvcurveto
          endchar
        </CharString>
        <CharString name="sterlingoldstyle">
          -3 49 -49 114 -91 26 -26 44 219 43 191 63 hstemhm
          191 65 -22 76 -76 187 -187 211 hintmask 1000111000000000
          425 337 rmoveto
          -27 -4 -48 -4 -50 -3 rrcurveto
          -15 48 -29 39 38 vvcurveto
          43 34 23 35 vhcurveto
          hintmask 1000110010000000
          25 23 -12 -22 11 hvcurveto
          hintmask 1000111000000000
          18 8 19 18 22 vvcurveto
          33 -36 16 -30 -94 -70 -83 -68 -35 17 -34 12 -37 vhcurveto
          hintmask 1000110001000000
          -1 -23 -22 -2 -17 hhcurveto
          hintmask 0010111000000000
          -19 -1 -11 -8 -3 -16 rrcurveto
          -5 0 -5 1 -6 vhcurveto
          3 28 31 1 29 hhcurveto
          17 hlineto
          2 -10 1 -10 -10 vvcurveto
          hintmask 0100110001000000
          -66 -34 -48 -68 -77 vhcurveto
          -42 -7 -19 -22 -17 vvcurveto
          -11 8 -8 14 13 15 9 13 9 vhcurveto
          1 5 7 0 3 65 33 -23 88 hhcurveto
          47 67 18 52 hvcurveto
          hintmask 1000111000000000
          27 -15 17 -37 vhcurveto
          -6 hlineto
          hintmask 0001110100000000
          -37 -37 -28 -35 -63 -34 15 3 -44 vhcurveto
          113 84 23 51 82 vvcurveto
          -1 23 20 -1 19 hhcurveto
          39 16 10 29 5 -1 7 -1 7 hvcurveto
          endchar
        </CharString>
        <CharString name="summation">
          161 -62 71 590 59 hstem
          234 288 rmoveto
          -255 -330 rlineto
          -10 1 -10 11 vhcurveto
          509 hlineto
          15 41 36 104 16 vvcurveto
          9 -7 4 -9 -2 -2 0 -1 -3 vhcurveto
          -23 -38 -23 -37 -24 -27 rrcurveto
          -363 hlineto
          155 204 rlineto
          22 29 39 46 20 vvcurveto
          5 -1 4 0 vhcurveto
          -131 282 rlineto
          318 hlineto
          14 -27 8 -23 12 -38 rrcurveto
          -1 3 2 0 2 hhcurveto
          18 4 12 17 28 -4 58 -2 33 hvcurveto
          -447 hlineto
          -13 -11 -12 -16 -2 hvcurveto
          endchar
        </CharString>
        <CharString name="t">
          -125 -10 53 367 54 hstem
          68 66 vstem
          76 465 rmoveto
          -42 -16 -15 -28 -6 1 -5 1 -7 hvcurveto
          2 22 28 4 34 hhcurveto
          -13 -102 -23 -133 -50 vvcurveto
          -86 35 -49 90 46 48 15 34 16 -12 14 -4 4 vhcurveto
          -18 -22 -26 -12 -24 hhcurveto
          -41 -24 11 66 50 25 158 12 82 hvcurveto
          48 42 0 1 32 hvcurveto
          -85 callgsubr
          -41 -30 -2 -87 hhcurveto
          3 20 11 52 13 vvcurveto
          25 -18 6 -21 -11 -12 -2 -2 -9 vhcurveto
          -2 -24 -9 -57 -3 -30 rrcurveto
          endchar
        </CharString>
        <CharString name="thorn">
          32 -233 -21 244 49 385 50 268 -20 hstem
          13 69 55 76 151 78 vstem
          152 37 callsubr
          25 -68 -75 -157 -70 -85 -79 16 callsubr
          18 448 -81 callgsubr
          vvcurveto
          -66 -48 -247 -24 -149 vhcurveto
          -21 -131 -31 -153 -56 vvcurveto
          -87 callsubr
          vvcurveto
          19 12 74 30 callsubr
          110 123 185 118 -58 58 -75 -51 -49 -28 -55 -39 hvcurveto
          22 126 21 127 35 vvcurveto
          33 -11 30 -32 vhcurveto
          endchar
        </CharString>
        <CharString name="three">
          -10 59 277 49 239 59 hstemhm
          348 75 -52 75 hintmask 11101000
          324 364 rmoveto
          82 42 40 65 70 vvcurveto
          70 -47 62 -99 -91 -90 -62 -47 -15 12 -13 24 vhcurveto
          53 35 52 25 44 hhcurveto
          hintmask 11110000
          55 30 -41 -48 -75 -65 -75 -136 hvcurveto
          -3 -9 -1 -7 -7 vvcurveto
          -17 9 -9 18 109 46 -57 -65 -74 -59 -81 -105 -60 -28 14 26 -18 vhcurveto
          -22 -3 -18 -15 -23 vvcurveto
          -27 37 -31 97 159 92 116 117 56 -23 46 -76 39 vhcurveto
          endchar
        </CharString>
        <CharString name="threeoldstyle">
          -71 -159 58 260 46 213 56 hstemhm
          78 239 -69 69 -41 67 hintmask 11100100
          231 201 rmoveto
          73 32 39 58 63 vvcurveto
          64 -44 56 -91 -85 -88 -62 -46 -16 12 -13 23 vhcurveto
          55 34 51 26 42 hhcurveto
          hintmask 11110000
          51 28 -35 -43 -71 -61 -61 -133 -3 hvcurveto
          hintmask 11101000
          -2 -5 -2 -8 -8 vvcurveto
          -23 16 -2 14 88 52 -40 -70 -84 -69 -66 -105 -37 -21 11 19 -15 vhcurveto
          -19 -5 -17 -16 -20 vvcurveto
          -25 26 -22 63 155 108 100 128 60 -29 53 -57 19 vhcurveto
          endchar
        </CharString>
        <CharString name="threequarters">
          413 -86 -21 97 193 -54 54 25 51 175 37 151 51 67 -20 hstemhm
          291 44 -44 67 286 65 -65 148 hintmask 1011111011000000
          hintmask 1101111011000000
          182 -57 -93 callgsubr
          -383 -95 rmoveto
          1 9 9 0 8 hhcurveto
          71 22 -32 -40 -63 -42 -40 -63 -35 -33 14 27 -20 hvcurveto
          -19 -6 -13 -12 -18 vvcurveto
          -36 54 -20 56 119 61 79 75 40 -21 38 -53 18 vhcurveto
          68 22 29 46 59 vvcurveto
          51 -33 37 -84 -54 -85 -32 -44 -13 10 -11 18 -4 vhcurveto
          hintmask 1101111100100000
          36 33 27 17 37 hhcurveto
          49 15 -21 -32 -71 -53 -27 -82 hvcurveto
          -5 hlineto
          375 -286 rmoveto
          72 101 39 30 55 56 -7 -55 -7 -39 -12 -95 rrcurveto
          -102 -7 0 2 -31 hvcurveto
          172 256 rmoveto
          -57 -47 -111 -117 -56 -82 rrcurveto
          -3 -11 -2 -13 -11 vvcurveto
          -13 4 -10 10 -1 vhcurveto
          -6 46 44 -1 48 hhcurveto
          37 hlineto
          -6 -49 -8 -23 -32 vvcurveto
          -23 9 -12 29 12 9 3 5 10 vhcurveto
          -3 16 -1 17 19 vvcurveto
          22 2 25 4 33 vhcurveto
          44 1 33 0 44 vvcurveto
          10 -2 8 -2 7 vhcurveto
          -15 -7 -17 -3 -33 -2 20 154 20 93 2 15 rrcurveto
          hintmask 1101111010100000
          20 callgsubr
          endchar
        </CharString>
        <CharString name="threesuperior">
          -66 208 51 175 37 151 51 hstemhm
          271 64 -45 66 hintmask 11110000
          154 471 rmoveto
          -2 -6 -1 -5 -5 vvcurveto
          -11 6 -10 14 75 25 -30 -44 -64 -46 -37 -60 -35 -32 14 27 -21 vhcurveto
          hintmask 11101000
          -19 -7 -13 -8 -21 vvcurveto
          -36 54 -20 54 97 85 61 89 41 -20 40 -55 19 vhcurveto
          65 20 31 46 60 vvcurveto
          52 -36 37 -82 -48 -88 -31 -45 -13 9 -11 19 -4 vhcurveto
          36 32 29 17 36 hhcurveto
          48 15 -20 -30 -90 -77 -9 -59 -2 hvcurveto
          endchar
        </CharString>
        <CharString name="tilde">
          -89 530 27 callsubr
          hintmask 10000000
          293 589 rmoveto
          -35 -35 45 -36 hhcurveto
          -49 -60 -47 -37 hvcurveto
          hintmask 01000000
          -7 5 -6 8 -4 vhcurveto
          31 34 21 11 10 37 29 -45 41 hhcurveto
          48 60 46 38 hvcurveto
          hintmask 10000000
          12 -13 5 0 vhcurveto
          -20 -19 -31 -22 -15 hhcurveto
          endchar
        </CharString>
        <CharString name="trademark">
          422 312 -21 22 -21 312 48 4 -20 hstemhm
          207 58 157 52 252 57 hintmask 10101110
          783 552 rmoveto
          34 1 28 8 34 vhcurveto
          6 -15 -15 2 -8 hhcurveto
          -22 -14 -11 -20 -11 hvcurveto
          -46 -83 -37 -90 -22 -67 -30 85 -27 72 -47 83 rrcurveto
          hintmask 10011110
          19 -11 -14 12 -21 hhcurveto
          -13 -10 -2 -4 -16 hvcurveto
          7 -35 2 -26 -33 -158 -1 -42 -26 vvcurveto
          -26 6 -13 29 12 9 33 callsubr
          153 vlineto
          29 -54 32 -96 39 -94 rrcurveto
          -15 6 16 -4 12 hhcurveto
          9 8 1 2 5 hvcurveto
          19 61 36 109 41 92 rrcurveto
          -126 -1 -31 -70 vvcurveto
          -26 6 -13 29 10 16 33 callsubr
          -652 250 rmoveto
          -19 -1 -12 -4 -23 vvcurveto
          hintmask 01101110
          -4 2 -13 2 -6 vhcurveto
          2 24 44 1 35 hhcurveto
          -274 vlineto
          -26 6 -13 29 vhcurveto
          hintmask 10101110
          10 15 3 3 11 hvcurveto
          -13 41 0 39 35 vvcurveto
          192 78 vlineto
          21 8 13 16 7 -2 7 -2 8 hvcurveto
          -3 -28 -41 0 -43 hhcurveto
          endchar
        </CharString>
        <CharString name="two">
          -2 63 552 60 hstem
          397 73 vstem
          143 528 rmoveto
          50 41 61 35 52 hhcurveto
          56 44 -42 -73 -159 -177 -104 -188 -175 hvcurveto
          -2 -9 -1 -7 -7 vvcurveto
          -30 21 -7 16 vhcurveto
          56 66 -2 70 hhcurveto
          57 67 3 11 30 hvcurveto
          19 7 9 15 18 vvcurveto
          11 -2 13 -5 13 vhcurveto
          -25 -68 -48 -3 -126 hhcurveto
          -29 -38 1 1 -16 hvcurveto
          185 154 177 124 179 vvcurveto
          103 -75 50 -82 -92 -109 -63 -53 -15 11 -11 20 -3 vhcurveto
          endchar
        </CharString>
        <CharString name="twooldstyle">
          -8 -2 71 349 57 hstem
          311 72 vstem
          81 61 rmoveto
          194 93 108 114 98 vvcurveto
          64 -49 45 -83 -86 -93 -66 -46 -13 11 -10 19 -3 vhcurveto
          47 34 55 34 39 hhcurveto
          50 31 -19 -44 -122 -202 -98 -116 -78 hvcurveto
          -2 -8 -1 -8 -7 vvcurveto
          -29 22 -5 14 vhcurveto
          -1 37 47 -1 51 hhcurveto
          52 55 1 2 50 hvcurveto
          45 2 28 13 35 vvcurveto
          9 -2 14 -4 8 vhcurveto
          -27 -7 -50 -5 -25 -1 rrcurveto
          -3 -48 -128 -5 -26 hhcurveto
          endchar
        </CharString>
        <CharString name="twosuperior">
          -40 222 52 -33 -21 402 51 hstemhm
          298 66 hintmask 10110000
          127 549 -35 callgsubr
          hintmask 01110000
          -30 callgsubr
          hintmask 10110000
          -57 callsubr
          endchar
        </CharString>
        <CharString name="u">
          34 -10 51 433 -20 hstem
          53 70 238 72 vstem
          3 callgsubr
          11 callsubr
          vhcurveto
          -43 callgsubr
          -97 callgsubr
          endchar
        </CharString>
        <CharString name="uacute">
          34 -10 -22 callgsubr
          214 -20 27 callgsubr
          154 66 -22 65 hintmask 1101100010000000
          3 callgsubr
          vhcurveto
          hintmask 1101100100000000
          11 callsubr
          hvcurveto
          -43 callgsubr
          hintmask 1101100010000000
          -97 callgsubr
          79 500 rmoveto
          -67 callsubr
          hintmask 1011001100000000
          18 -11 13 2 callgsubr
          -96 callgsubr
          hintmask 1011010100000000
          -11 5 -10 8 -8 vhcurveto
          hintmask 1101100100000000
          27 20 82 31 50 28 rrcurveto
          endchar
        </CharString>
        <CharString name="ucircumflex">
          34 -10 -22 callgsubr
          205 -20 hstemhm
          53 70 -32 32 194 66 -22 72 hintmask 11011010
          295 679 rmoveto
          hintmask 11011001
          -104 callgsubr
          23 -575 -31 callsubr
          -12 -11 vvcurveto
          -41 7 -39 41 11 callsubr
          vhcurveto
          -43 callgsubr
          hintmask 10110110
          -80 -27 -75 -70 -51 hhcurveto
          -32 -19 30 46 hvcurveto
          67 40 127 83 vvcurveto
          hintmask 11011010
          47 -4 33 -36 -82 callsubr
          36 -53 69 72 58 57 57 30 vhcurveto
          endchar
        </CharString>
        <CharString name="udieresis">
          34 -10 -22 callgsubr
          47 107 27 callgsubr
          -22 99 68 75 -75 99 -46 72 hintmask 1101100101000000
          318 104 -31 callsubr
          -12 -11 vvcurveto
          hintmask 1101100110000000
          -41 7 -39 41 vhcurveto
          hintmask 1101100100100000
          11 callsubr
          hvcurveto
          -43 callgsubr
          -97 callgsubr
          hintmask 1011001010000000
          -134 417 rmoveto
          hintmask 1011010110000000
          -101 callsubr
          -73 callgsubr
          hvcurveto
          hintmask 1101100110000000
          -101 callgsubr
          vhcurveto
          endchar
        </CharString>
        <CharString name="ugrave">
          34 -10 -22 callgsubr
          227 -20 27 callgsubr
          154 66 -22 72 hintmask 1101100100000000
          3 callgsubr
          11 callsubr
          vhcurveto
          14 callgsubr
          vvcurveto
          hintmask 1101100010000000
          -83 callgsubr
          -97 callgsubr
          -153 515 rmoveto
          -66 callsubr
          hintmask 1011001010000000
          -58 callsubr
          12 -8 8 -11 8 vhcurveto
          -21 17 -81 57 -34 42 rrcurveto
          hintmask 1011010010000000
          -22 -12 -13 -15 -19 vvcurveto
          hintmask 1101100010000000
          -16 11 -11 14 -9 vhcurveto
          endchar
        </CharString>
        <CharString name="underscore">
          96 -144 -8 callsubr
          hintmask 01100000
          535 -110 rmoveto
          hintmask 10000000
          -44 callsubr
          vhcurveto
          -6 -51 -86 -1 -50 hhcurveto
          hintmask 01100000
          -142 hlineto
          -14 callsubr
          4 44 52 4 106 hhcurveto
          hintmask 01100000
          143 hlineto
          52 64 -8 35 hhcurveto
          22 14 19 23 hvcurveto
          endchar
        </CharString>
        <CharString name="v">
          -37 36 callsubr
          211 73 hintmask 11011000
          18 callgsubr
          31 -33 vhcurveto
          hintmask 11101000
          -6 12 11 -2 13 hhcurveto
          163 112 300 119 32 -10 33 -29 17 callsubr
          -78 -214 -114 -10 vhcurveto
          -14 31 callgsubr
          -14 22 -30 vhcurveto
          hintmask 11011000
          6 callgsubr
        </CharString>
        <CharString name="w">
          188 36 callsubr
          199 38 -38 73 164 73 hintmask 11011010
          18 callgsubr
          30 -33 vhcurveto
          hintmask 11101010
          -6 11 11 -2 12 hhcurveto
          64 57 47 64 44 hvcurveto
          3 -40 11 -37 24 -26 rrcurveto
          -6 11 11 -2 12 hhcurveto
          158 108 300 119 32 -10 33 -29 hvcurveto
          hintmask 11010110
          17 callsubr
          -74 -214 -107 -10 vhcurveto
          -14 24 -4 36 38 vvcurveto
          37 4 39 1 31 vhcurveto
          19 54 11 52 35 vvcurveto
          31 -10 31 -29 -15 -17 -5 -10 -17 vhcurveto
          11 -22 4 -34 -31 vvcurveto
          -96 -74 -201 -107 -9 vhcurveto
          -13 31 callgsubr
          -16 22 -28 vhcurveto
          hintmask 11011010
          6 callgsubr
        </CharString>
        <CharString name="x">
          -41 -10 74 336 74 hstem
          48 400 rmoveto
          61 22 -76 -93 37 hvcurveto
          -46 -44 -111 -110 -46 vvcurveto
          -22 16 -16 25 3 4 0 1 4 vhcurveto
          8 56 67 81 49 54 rrcurveto
          -59 24 54 -136 59 hhcurveto
          24 19 22 28 8 -2 9 -2 7 hvcurveto
          -65 -19 85 92 -39 hvcurveto
          42 48 89 101 48 vvcurveto
          21 -15 15 -28 -4 -5 0 -1 -4 vhcurveto
          -7 -56 -44 -73 -44 -57 rrcurveto
          55 -20 -53 132 -60 hhcurveto
          -24 -19 -22 -28 -8 2 -9 2 -7 hvcurveto
          endchar
        </CharString>
        <CharString name="y">
          -28 -230 50 654 -20 hstem
          321 75 vstem
          -100 callgsubr
          endchar
        </CharString>
        <CharString name="y_alt">
          12 -230 50 170 51 433 -20 hstem
          53 70 228 72 vstem
          317 192 24 callsubr
          -31 -18 30 46 hvcurveto
          -9 callgsubr
          -82 callsubr
          35 -53 66 45 58 30 61 40 vhcurveto
          -94 callsubr
          endchar
        </CharString>
        <CharString name="y_altacute">
          12 -230 50 170 -22 callgsubr
          214 -20 hstemhm
          351 72 hintmask 11011100
          381 604 rmoveto
          -106 callgsubr
          -64 -412 24 callsubr
          -31 -18 30 46 hvcurveto
          -9 callgsubr
          -82 callsubr
          35 -53 66 vhcurveto
          hintmask 11101100
          45 58 30 61 40 hvcurveto
          -94 callsubr
          endchar
        </CharString>
        <CharString name="y_altdieresis">
          12 -230 50 170 -22 callgsubr
          32 callsubr
          53 70 -32 72 -36 40 callsubr
          -42 72 hintmask 1101110110000000
          317 192 24 callsubr
          hintmask 1101101001000000
          -31 -18 30 46 hvcurveto
          hintmask 1101110101000000
          -9 callgsubr
          vhcurveto
          hintmask 1101101001000000
          -28 -21 -33 -18 -4 hvcurveto
          hintmask 1110110101000000
          18 -7 3 -27 -24 -46 -38 -167 -39 vvcurveto
          -70 35 -53 66 45 58 30 61 40 vhcurveto
          -94 callsubr
          -147 329 rmoveto
          25 31 25 33 28 -19 21 -24 -29 -27 -26 -34 -28 18 -19 25 hvcurveto
          -25 callgsubr
        </CharString>
        <CharString name="yacute">
          -28 -230 50 675 -21 214 -20 hstem
          321 75 vstem
          -100 callgsubr
          148 532 rmoveto
          -106 callgsubr
          endchar
        </CharString>
        <CharString name="ydieresis">
          -28 -230 50 675 -21 32 callsubr
          83 40 callsubr
          -28 75 hintmask 11111000
          -100 callgsubr
          -78 449 rmoveto
          -101 callsubr
          -73 callgsubr
          28 -19 21 -24 -29 -27 -26 -34 hvcurveto
          hintmask 11110100
          -74 callsubr
          vhcurveto
          endchar
        </CharString>
        <CharString name="yen">
          -3 238 -39 39 71 39 323 -20 24 -20 hstemhm
          200 73 hintmask 01101100
          hintmask 10101100
          222 196 rmoveto
          -12 -92 -10 -54 -17 vvcurveto
          -23 10 -13 31 14 11 3 5 11 vhcurveto
          -2 13 -2 21 19 vvcurveto
          35 5 40 8 63 vhcurveto
          143 hlineto
          22 7 17 19 hvcurveto
          8 vlineto
          -4 -43 -54 -1 -56 hhcurveto
          -15 hlineto
          10 71 rlineto
          143 hlineto
          hintmask 01101100
          22 8 18 19 hvcurveto
          7 vlineto
          -4 -41 -46 -1 -50 hhcurveto
          82 101 111 157 39 vvcurveto
          24 -18 6 -20 -5 -6 0 -1 -3 vhcurveto
          -10 -50 -109 -176 -69 -82 -40 108 -46 97 -32 64 rrcurveto
          24 -12 -11 12 -14 hhcurveto
          -24 -20 -19 -21 -15 hvcurveto
          44 -42 25 -47 31 -76 16 -38 18 -38 15 -42 rrcurveto
          -120 hlineto
          -18 -11 -11 -21 -4 0 -4 1 -4 hvcurveto
          4 42 53 1 56 hhcurveto
          hintmask 10110100
          10 hlineto
          -10 -71 rlineto
          -138 hlineto
          hintmask 01101100
          -17 -12 -11 -23 -3 -4 callgsubr
          4 43 53 1 56 hhcurveto
          endchar
        </CharString>
        <CharString name="yenoldstyle">
          -10 193 -39 39 61 39 293 -20 24 -20 hstemhm
          206 74 hintmask 10110100
          285 290 rmoveto
          -38 101 -42 92 -30 59 rrcurveto
          23 -11 -11 11 -13 hhcurveto
          -23 -23 -21 -19 -13 hvcurveto
          36 -34 22 -38 29 -63 16 -36 16 -41 16 -41 rrcurveto
          -106 hlineto
          -16 -14 -10 -23 -3 0 -4 1 -4 hvcurveto
          4 44 35 1 71 hhcurveto
          4 -11 -7 -50 rlineto
          -131 hlineto
          -16 -14 -10 -23 hvcurveto
          hintmask 01110100
          -3 0 -4 1 -4 vhcurveto
          4 44 34 1 76 hhcurveto
          -9 -60 -7 -48 -8 vvcurveto
          hintmask 10110100
          -23 10 -15 31 13 13 3 5 11 vhcurveto
          hintmask 01101100
          -3 15 -1 17 19 vvcurveto
          27 3 30 4 38 vhcurveto
          130 hlineto
          22 7 16 17 -22 callsubr
          -4 -44 -50 -1 -59 hhcurveto
          7 53 8 8 rlineto
          123 hlineto
          22 7 16 17 -22 callsubr
          -3 -35 -39 -2 -42 hhcurveto
          77 91 95 144 31 vvcurveto
          23 -20 8 -20 -4 -5 0 -1 -4 vhcurveto
          -9 -47 -102 -165 -65 -77 rrcurveto
          endchar
        </CharString>
        <CharString name="z">
          -48 19 callsubr
          hstemhm
          hintmask 10001000
          hintmask 01010000
          103 474 -47 callgsubr
          hintmask 10010000
          -9 -16 -4 -13 -12 vvcurveto
          -3 callgsubr
          hintmask 00110000
          1 callgsubr
          30 callgsubr
          hintmask 10000100
          -1 callsubr
          -10 callsubr
        </CharString>
        <CharString name="zcaron">
          -47 19 callsubr
          211 -20 hstemhm
          hintmask 10001010
          236 525 -37 callgsubr
          hintmask 01010010
          -92 callgsubr
          -133 -51 -47 callgsubr
          -9 -16 -4 -13 -12 vvcurveto
          hintmask 10010010
          -3 callgsubr
          1 callgsubr
          hhcurveto
          hintmask 00110010
          30 callgsubr
          -1 callsubr
          hintmask 10000110
          -10 callsubr
        </CharString>
        <CharString name="zero">
          -10 59 565 59 hstem
          58 75 309 75 vstem
          242 -10 rmoveto
          171 104 209 218 159 -69 97 -116 -169 -105 -206 -221 -158 68 -98 116 hvcurveto
          -109 285 rmoveto
          185 82 154 110 83 34 -109 -115 -169 -74 -172 -119 -82 -34 107 119 vhcurveto
          endchar
        </CharString>
        <CharString name="zerooldstyle">
          26 -10 56 373 56 hstem
          25 57 302 56 vstem
          200 -10 rmoveto
          162 78 151 141 120 -65 73 -110 -161 -79 -150 -141 -119 64 -75 111 hvcurveto
          7 56 rmoveto
          -85 -40 79 85 102 69 107 106 89 38 -83 -81 -103 -70 -106 -107 hvcurveto
          endchar
        </CharString>
      <CharString index="0">
        rmoveto
        14 -78 17 -105 27 -118 rrcurveto
        -2 -27 -29 0 -27 hhcurveto
        -37 -37 1 1 -36 hvcurveto
        57 118 43 105 35 78 rrcurveto
        -49 -362 rmoveto
        34 36 1 1 50 hvcurveto
        19 -92 9 -43 13 -57 rrcurveto
        -25 6 17 -2 14 hhcurveto
        13 22 10 10 14 hvcurveto
        -23 67 -24 99 -24 104 -29 121 -21 130 -15 79 rrcurveto
        42 -8 -13 11 -31 hhcurveto
        -12 -15 -2 -2 -18 hvcurveto
        -19 -67 -59 -129 -61 -127 rrcurveto
        -70 -145 -79 -142 -21 vvcurveto
        -28 39 -12 24 -1 vhcurveto
        19 56 44 89 34 77 rrcurveto
        -1 46 34 -1 34 hhcurveto
        return
      </CharString>
      <CharString index="1">
        -67 callsubr
        18 -11 13 2 callgsubr
        -96 callgsubr
        -11 5 -10 8 -8 vhcurveto
        27 20 82 31 50 28 rrcurveto
        return
      </CharString>
      <CharString index="2">
        rmoveto
        -46 -30 -37 -16 -38 hhcurveto
        -57 -44 43 104 -6 hvcurveto
        -1 10 11 -1 12 hhcurveto
        69 181 14 171 57 -41 47 -83 -105 -133 -82 callgsubr
        hvcurveto
        -7 257 rmoveto
        -126 -138 -4 -66 -1 vhcurveto
        116 9 63 81 69 hhcurveto
        return
      </CharString>
      <CharString index="3">
        -65 callgsubr
        -14 8 6 -4 8 hhcurveto
        18 54 45 36 46 hvcurveto
        0 59 -35 32 -54 vhcurveto
        15 6 12 12 15 vvcurveto
        41 -69 58 -37 28 vhcurveto
        return
      </CharString>
      <CharString index="4">
        -19 callgsubr
        -59 -2 -7 -76 hvcurveto
        1 -7 0 -9 -9 -145 -67 -378 -74 vvcurveto
        -23 9 -10 27 -2 vhcurveto
        -1 13 84 -86 callsubr
        -18 -105 callsubr
        22 -65 callsubr
        return
      </CharString>
      <CharString index="5">
        -4 hlineto
        -2 -6 -2 -6 -6 vvcurveto
        -12 6 -12 16 68 67 111 85 48 -23 19 -26 -33 -29 -26 -33 -8 2 -8 3 -8 vhcurveto
        27 -6 12 -20 -23 vvcurveto
        return
      </CharString>
      <CharString index="6">
        28 -19 21 -24 -29 -27 -26 -34 -74 callsubr
        return
      </CharString>
      <CharString index="7">
        204 72 rmoveto
        -20 108 -29 151 -34 95 rrcurveto
        33 -12 -18 15 -20 hhcurveto
        -19 -21 -14 -25 -18 hvcurveto
        75 -64 59 -307 5 -74 rrcurveto
        -78 -50 -65 -92 -85 hhcurveto
        -40 -37 24 38 -11 hvcurveto
        -15 -7 -29 -19 -27 vvcurveto
        -37 51 -22 58 132 69 87 136 92 vhcurveto
        90 133 84 177 105 vvcurveto
        47 -17 19 -25 -14 -16 -5 -10 -17 vhcurveto
        7 -18 7 -21 -25 vvcurveto
        -105 -63 -129 -54 -89 vhcurveto
        return
      </CharString>
      <CharString index="8">
        hhcurveto
        -23 -22 10 27 -12 hvcurveto
        -31 -17 -4 -17 -13 vvcurveto
        -28 23 -29 61 132 41 127 125 18 vhcurveto
        14 97 13 return
      </CharString>
      <CharString index="9">
        44 -37 60 -134 52 -146 rrcurveto
        -23 -176 -12 -73 -14 -103 callsubr
        -76 callsubr
        13 99 rlineto
        71 84 158 208 37 vvcurveto
        38 -48 3 -26 vhcurveto
        -9 -50 -101 -170 -66 -83 -37 103 -38 98 -32 63 rrcurveto
        24 -10 -18 10 -13 hhcurveto
        -24 -14 -21 -27 -25 hvcurveto
        return
      </CharString>
      <CharString index="10">
        -80 -27 -75 -70 -51 hhcurveto
        -32 -19 30 46 hvcurveto
        67 40 127 83 vvcurveto
        47 -4 33 -36 -82 callsubr
        36 -53 69 72 58 57 57 30 vhcurveto
        return
      </CharString>
      <CharString index="11">
        -40 -39 -89 -53 -21 -12 rrcurveto
        -15 -7 -6 -10 -13 vvcurveto
        return
      </CharString>
      <CharString index="12">
        -85 callgsubr
        -38 -27 -2 -71 hhcurveto
        return
      </CharString>
      <CharString index="13">
        313 569 -107 callgsubr
        return
      </CharString>
      <CharString index="14">
        rmoveto
        -5 -8 -3 -7 -6 vvcurveto
        -20 25 -8 20 -1 vhcurveto
        31 61 43 73 47 78 352 585 rcurveline
        5 7 3 9 7 vvcurveto
        19 -26 8 -19 vhcurveto
        -31 -60 -43 -74 -47 -78 rrcurveto
        return
      </CharString>
      <CharString index="15">
        14 -8 -5 4 -9 hhcurveto
        -18 -53 -45 -36 -46 hvcurveto
        0 -59 35 -32 54 vhcurveto
        -16 -6 -11 -12 -15 vvcurveto
        -41 68 -58 38 -28 vhcurveto
        return
      </CharString>
      <CharString index="16">
        -138 -53 -53 rrcurveto
        -15 -15 -25 -12 -24 -99 callgsubr
        return
      </CharString>
      <CharString index="17">
        -16 callsubr
        31 -21 23 -28 -35 -31 -35 -39 -32 22 -21 28 hvcurveto
        return
      </CharString>
      <CharString index="18">
        -87 callsubr
        50 44 192 70 vvcurveto
        33 -11 30 -32 vhcurveto
        return
      </CharString>
      <CharString index="19">
        -36 -22 -11 -32 -5 1 -6 1 -7 hvcurveto
        return
      </CharString>
      <CharString index="20">
        26 201 rlineto
        -75 callsubr
        return
      </CharString>
      <CharString index="21">
        rmoveto
        95 62 91 110 82 -42 49 -72 -95 -63 -89 -111 -81 42 -51 73 hvcurveto
        37 283 rmoveto
        40 17 -45 -49 -66 -33 -73 -55 return
      </CharString>
      <CharString index="22">
        32 1 16 13 24 vvcurveto
        6 -1 7 -2 7 vhcurveto
        -3 return
      </CharString>
      <CharString index="23">
        -72 callgsubr
        -390 -227 -70 callsubr
        126 173 47 62 29 40 rrcurveto
        45 62 5 9 9 vvcurveto
        17 -20 12 -19 1 vhcurveto
        -36 -56 -50 -71 -53 -73 rrcurveto
        -224 -135 -62 callgsubr
        return
      </CharString>
      <CharString index="24">
        59 50 258 27 -77 callsubr
        return
      </CharString>
      <CharString index="25">
        -71 callgsubr
        -48 callsubr
        return
      </CharString>
      <CharString index="26">
        rmoveto
        -90 callsubr
        return
      </CharString>
      <CharString index="27">
        rmoveto
        54 43 44 59 46 -28 29 -46 -55 -43 -44 -59 -46 28 -29 47 hvcurveto
        19 145 rmoveto
        22 13 -19 -28 -35 -16 -30 -34 -24 -13 19 27 36 17 30 35 hvcurveto
        return
      </CharString>
      <CharString index="28">
        -73 callsubr
        80 27 75 70 51 hhcurveto
        32 19 -30 -46 hvcurveto
        -47 -37 -141 -78 vvcurveto
        -87 callsubr
        46 38 13 callsubr
        -36 53 -69 -49 -60 -33 -59 -41 vhcurveto
        endchar
      </CharString>
      <CharString index="29">
        -48 -51 -82 -94 -23 vvcurveto
        -8 5 -6 12 -9 vhcurveto
        59 44 88 96 45 51 -30 51 -62 96 -47 44 rrcurveto
        -16 -12 -8 -6 -12 vvcurveto
        -24 52 -90 32 -47 vhcurveto
        return
      </CharString>
      <CharString index="30">
        -11 callsubr
        -6 -79 rcurveline
        -64 callsubr
        return
      </CharString>
      <CharString index="31">
        -38 callgsubr
        -9 -184 -46 -259 -63 vvcurveto
        return
      </CharString>
      <CharString index="32">
        -46 -30 -37 -16 -38 hhcurveto
        -57 -50 45 110 116 53 108 92 29 50 -16 -49 13 hvcurveto
        return
      </CharString>
      <CharString index="33">
        15 callgsubr
        40 callgsubr
        -23 -281 -69 -84 callsubr
        return
      </CharString>
      <CharString index="34">
        25 31 25 33 return
      </CharString>
      <CharString index="35">
        32 14 -40 -42 -57 -27 -64 -44 -33 -14 42 43 55 27 63 45 hvcurveto
        return
      </CharString>
      <CharString index="36">
        -95 -199 -123 66 -67 117 -2 callgsubr
        return
      </CharString>
      <CharString index="37">
        55 hhcurveto
        22 36 -13 -45 12 -18 callsubr
        -54 17 -43 -38 callsubr
        vhcurveto
        -13 hlineto
        return
      </CharString>
      <CharString index="38">
        hlineto
        -88 callgsubr
        return
      </CharString>
      <CharString index="39">
        9 57 8 36 13 -92 callsubr
        return
      </CharString>
      <CharString index="40">
        4 44 52 4 106 53 67 -8 36 hhcurveto
        22 14 19 23 hvcurveto
        return
      </CharString>
      <CharString index="41">
        -13 -69 callgsubr
        return
      </CharString>
      <CharString index="42">
        -48 -34 -61 -53 -43 -47 rrcurveto
        return
      </CharString>
      <CharString index="43">
        18 82 13 -17 callsubr
        return
      </CharString>
      <CharString index="44">
        362 612 -47 callsubr
        -47 -620 rmoveto
        181 18 113 181 211 vvcurveto
        return
      </CharString>
      <CharString index="45">
        rmoveto
        83 55 80 97 73 -37 43 -64 -83 -56 -78 -98 return
      </CharString>
      <CharString index="46">
        rmoveto
        199 126 190 222 return
      </CharString>
      <CharString index="47">
        12 -9 13 -19 6 vhcurveto
        -28 -22 -28 -35 -56 -74 -55 78 -106 hhcurveto
        -75 -59 -64 -29 -18 14 -9 14 -5 hvcurveto
        28 22 28 35 56 68 59 -78 108 hhcurveto
        70 64 58 36 hvcurveto
        return
      </CharString>
      <CharString index="48">
        174 84 150 147 return
      </CharString>
      <CharString index="49">
        -29 8 19 -18 20 hhcurveto
        return
      </CharString>
      <CharString index="50">
        rmoveto
        -65 callgsubr
        -14 8 6 -4 8 hhcurveto
        hintmask 11110000
        18 54 45 36 46 hvcurveto
        0 59 -35 32 -54 vhcurveto
        15 6 12 12 15 vvcurveto
        41 -69 58 -37 28 vhcurveto
        return
      </CharString>
      <CharString index="51">
        -43 65 -30 70 102 83 47 103 vhcurveto
        166 -219 -75 108 vvcurveto
        55 47 25 43 return
      </CharString>
      <CharString index="52">
        -102 callgsubr
        endchar
      </CharString>
      <CharString index="53">
        -10 50 384 50 return
      </CharString>
      <CharString index="54">
        -12 -192 -23 -281 -69 -84 callsubr
        -49 callgsubr
        return
      </CharString>
      <CharString index="55">
        rmoveto
        -89 callsubr
        return
      </CharString>
      <CharString index="56">
        26 callsubr
        -43 callsubr
        return
      </CharString>
      <CharString index="57">
        -88 46 -79 94 71 83 48 94 59 vhcurveto
        return
      </CharString>
      <CharString index="58">
        37 37 0 1 23 hvcurveto
        return
      </CharString>
      <CharString index="59">
        vvcurveto
        33 -11 30 -32 -29 -22 9 callsubr
        4 -24 -24 vvcurveto
        return
      </CharString>
      <CharString index="60">
        rmoveto
        -34 -13 -17 -22 -11 3 -12 5 -12 hvcurveto
        8 16 22 6 22 61 53 -13 57 hhcurveto
        -92 -99 -141 -156 -38 -64 rrcurveto
        return
      </CharString>
      <CharString index="61">
        -39 -36 -35 -65 -54 -53 21 45 -8 vhcurveto
        -27 -7 -20 -13 -29 vvcurveto
        return
      </CharString>
      <CharString index="62">
        169 -89 103 -150 return
      </CharString>
      <CharString index="63">
        -118 58 -58 75 return
      </CharString>
      <CharString index="64">
        14 callgsubr
        -83 callgsubr
        return
      </CharString>
      <CharString index="65">
        rmoveto
        -45 43 68 -18 73 hhcurveto
        211 117 204 210 205 -130 64 -160 -50 -74 -8 -4 -18 hvcurveto
        return
      </CharString>
      <CharString index="66">
        20 vvcurveto
        30 -22 8 -24 -8 -6 -1 callgsubr
        7 -46 1 return
      </CharString>
      <CharString index="67">
        189 -10 60 562 62 return
      </CharString>
      <CharString index="68">
        rmoveto
        2 19 21 2 16 hhcurveto
        136 79 -75 -155 -133 -55 -198 -178 -42 -36 8 28 -34 hvcurveto
        return
      </CharString>
      <CharString index="69">
        -54 callsubr
        -69 callsubr
        vhcurveto
        return
      </CharString>
      <CharString index="70">
        rmoveto
        48 34 59 53 44 47 rrcurveto
        return
      </CharString>
      <CharString index="71">
        -10 50 145 43 197 49 return
      </CharString>
      <CharString index="72">
        rmoveto
        42 28 44 31 32 hhcurveto
        41 26 -26 -39 -79 -96 -110 -154 -89 hvcurveto
        -3 -7 0 -11 -7 vvcurveto
        return
      </CharString>
      <CharString index="73">
        -10 50 -48 -21 302 49 11 50 233 49 27 -20 hstemhm
        70 62 147 63 28 62 147 63 return
      </CharString>
      <CharString index="74">
        -69 callsubr
        hvcurveto
        return
      </CharString>
      <CharString index="75">
        -14 -48 -25 -90 -18 vvcurveto
        -16 7 -7 17 9 15 3 5 8 vhcurveto
        21 0 16 3 20 vhcurveto
        3 26 return
      </CharString>
      <CharString index="76">
        -81 callgsubr
        -86 return
      </CharString>
      <CharString index="77">
        -28 20 -4 14 vhcurveto
        -2 47 14 0 59 hhcurveto
        49 56 3 9 24 hvcurveto
        12 4 14 10 20 vvcurveto
        return
      </CharString>
      <CharString index="78">
        -57 -7 -125 -20 vvcurveto
        -30 22 -8 24 8 6 0 3 16 vhcurveto
        -4 36 -4 37 119 vvcurveto
        return
      </CharString>
      <CharString index="79">
        31 249 rmoveto
        -72 callgsubr
        endchar
      </CharString>
      <CharString index="80">
        145 273 rmoveto
        80 27 75 70 51 hhcurveto
        32 19 -30 -46 hvcurveto
        -47 -37 -141 -78 vvcurveto
        return
      </CharString>
      <CharString index="81">
        355 354 rmoveto
        34 6 14 21 22 vvcurveto
        52 -75 19 -48 -111 -130 -95 -199 return
      </CharString>
      <CharString index="82">
        2 callsubr
        -73 callgsubr
        -101 callgsubr
        hvcurveto
        endchar
      </CharString>
      <CharString index="83">
        32 4 36 12 92 vhcurveto
        13 100 22 98 11 vvcurveto
        return
      </CharString>
      <CharString index="84">
        157 -10 72 604 -20 return
      </CharString>
      <CharString index="85">
        51 449 -21 26 -21 return
      </CharString>
      <CharString index="86">
        -27 -9 -24 -18 return
      </CharString>
      <CharString index="87">
        -90 callsubr
        -86 -45 6 callsubr
        return
      </CharString>
      <CharString index="88">
        -52 callgsubr
        -63 return
      </CharString>
      <CharString index="89">
        -110 -21 121 -20 440 return
      </CharString>
      <CharString index="90">
        41 22 -30 -36 hvcurveto
        return
      </CharString>
      <CharString index="91">
        1 1 -14 hvcurveto
        return
      </CharString>
      <CharString index="92">
        -3 -51 -1 -59 -7 -64 rrcurveto
        3 -75 -22 10 -16 hhcurveto
        -30 -12 -23 -24 -3 hvcurveto
        return
      </CharString>
      <CharString index="93">
        21 -7 21 -16 16 vhcurveto
        -10 -18 -19 -3 -31 -90 -123 27 -64 hhcurveto
        endchar
      </CharString>
      <CharString index="94">
        rmoveto
        -36 -29 -33 -40 -31 21 -23 28 35 31 35 39 32 -22 21 -28 hvcurveto
        return
      </CharString>
      <CharString index="95">
        vhcurveto
        -28 28 -9 62 53 123 46 159 106 vvcurveto
        64 -17 31 -34 vhcurveto
        return
      </CharString>
      <CharString index="96">
        113 521 rmoveto
        -158 -33 -38 -134 vvcurveto
        -74 18 -69 44 -47 vhcurveto
        return
      </CharString>
      <CharString index="97">
        15 9 15 14 17 vvcurveto
        18 -9 13 -19 12 vhcurveto
        -99 -105 -66 -4 -43 vvcurveto
        return
      </CharString>
      <CharString index="98">
        48 40 163 71 vvcurveto
        41 -6 34 -34 return
      </CharString>
      <CharString index="99">
        21 -18 6 -13 -12 -41 -5 -9 -40 vhcurveto
        return
      </CharString>
      <CharString index="100">
        28 16 126 14 103 return
      </CharString>
      <CharString index="101">
        vvcurveto
        -23 9 -10 27 -2 vhcurveto
        -1 13 84 -1 41 hhcurveto
        104 48 1 42 return
      </CharString>
      <CharString index="102">
        48 15 29 20 50 -71 17 -56 -152 -62 -49 callsubr
        -9 hvcurveto
        return
      </CharString>
      <CharString index="103">
        0 -3 1 -4 hvcurveto
        return
      </CharString>
      <CharString index="104">
        -15 8 -12 11 -15 vhcurveto
        7 21 23 2 23 63 68 -18 45 hhcurveto
        return
      </CharString>
      <CharString index="105">
        71 68 29 41 return
      </CharString>
      <CharString index="106">
        0 -3 -16 vhcurveto
        return
      </CharString>
      <CharString index="107">
        -7 36 hhcurveto
        22 14 19 23 -44 callsubr
        hvcurveto
        -6 -52 return
      </CharString>
      <CharString index="108">
        48 25 12 29 11 -2 10 -6 10 hvcurveto
        -10 -20 -22 -2 -22 return
      </CharString>
      <CharString index="109">
        -19 14 vhcurveto
        return
      </CharString>
      <CharString index="110">
        318 104 -31 callsubr
        -12 -11 vvcurveto
        -41 7 -39 41 return
      </CharString>
      <CharString index="111">
        -45 callgsubr
        -194 -128 -182 -229 return
      </CharString>
      <CharString index="112">
        72 -10 68 -43 43 -43 68 492 65 -40 40 -40 67 return
      </CharString>
      <CharString index="113">
        -15 -18 -6 -11 -21 hvcurveto
        11 -23 8 -35 -33 vvcurveto
        endchar
      </CharString>
      <CharString index="114">
        -16 callgsubr
        52 5 38 22 return
      </CharString>
      <CharString index="115">
        -20 12 callsubr
        201 return
      </CharString>
      <CharString index="116">
        hstemhm
        5 101 -58 58 162 57 return
      </CharString>
      <CharString index="117">
        65 -21 382 -20 hstem
        return
      </CharString>
      <CharString index="118">
        11 -21 505 -21 return
      </CharString>
      <CharString index="119">
        79 205 78 vstem
        return
      </CharString>
      <CharString index="120">
        42 221 -20 hstemhm
        return
      </CharString>
      <CharString index="121">
        -18 11 -14 22 24 return
      </CharString>
      <CharString index="122">
        2 24 1 return
      </CharString>
      <CharString index="123">
        0 -22 hhcurveto
        -43 -15 -19 -34 -6 0 -6 1 -7 hvcurveto
        return
      </CharString>
      <CharString index="124">
        -58 -17 -38 -6 -52 -1 11 64 15 59 11 51 rrcurveto
        return
      </CharString>
      <CharString index="125">
        71 366 rmoveto
        -112 -20 -27 -95 vvcurveto
        -52 9 -49 return
      </CharString>
      <CharString index="126">
        rlineto
        13 9 6 9 10 vvcurveto
        14 -11 13 -16 8 vhcurveto
        return
      </CharString>
      <CharString index="127">
        1 -8 -4 1 -10 hhcurveto
        -17 -18 -2 -9 -10 hvcurveto
        return
      </CharString>
      <CharString index="128">
        -20 -19 callsubr
        return
      </CharString>
      <CharString index="129">
        -12 -9 -7 -8 -10 vvcurveto
        -14 12 -13 15 -9 vhcurveto
        return
      </CharString>
      <CharString index="130">
        -20 9 14 -7 21 hhcurveto
        10 12 1 3 11 hvcurveto
        return
      </CharString>
      <CharString index="131">
        rmoveto
        -44 callsubr
        vhcurveto
        return
      </CharString>
      <CharString index="132">
        hstem
        10 callsubr
        vstem
        return
      </CharString>
      <CharString index="133">
        hstem
        29 12 callgsubr
        return
      </CharString>
      <CharString index="134">
        hstemhm
        53 70 -32 32 -32 72 return
      </CharString>
      <CharString index="135">
        17 -7 4 -24 -24 -45 -44 -260 -32 vvcurveto
        return
      </CharString>
      <CharString index="136">
        8 callgsubr
        86 -12 85 return
      </CharString>
      <CharString index="137">
        -49 -61 18 -51 hhcurveto
        -6 -5 0 -1 -6 hvcurveto
        return
      </CharString>
      <CharString index="138">
        21 -5 34 37 87 32 113 75 vvcurveto
        45 return
      </CharString>
      <CharString index="139">
        -49 callsubr
        -8 return
      </CharString>
      <CharString index="140">
        117 hhcurveto
        63 68 10 46 15 -5 14 return
      </CharString>
      <CharString index="141">
        -14 -27 -31 -2 -31 -70 -96 25 -73 hhcurveto
        return
      </CharString>
      <CharString index="142">
        22 -19 14 -23 -11 -10 0 -3 -9 vhcurveto
        return
      </CharString>
      <CharString index="143">
        3 5 11 vhcurveto
        -2 17 -2 19 18 vvcurveto
        return
      </CharString>
      <CharString index="144">
        13 45 29 84 19 vvcurveto
        14 -6 9 -20 return
      </CharString>
      <CharString index="145">
        hhcurveto
        78 57 -23 -95 -105 -48 -85 -102 hvcurveto
        return
      </CharString>
      <CharString index="146">
        -10 61 561 61 hstem
        return
      </CharString>
      <CharString index="147">
        -12 -191 return
      </CharString>
      <CharString index="148">
        -20 hstemhm
        60 return
      </CharString>
      <CharString index="149">
        -3 12 hhcurveto
        43 7 34 33 2 hvcurveto
        return
      </CharString>
      <CharString index="150">
        -204 67 547 55 192 57 return
      </CharString>
      <CharString index="151">
        hstemhm
        25 133 -73 73 196 72 return
      </CharString>
</ttFont>
